<?xml version="1.0" encoding="UTF-8" standalone="no"?>
<!DOCTYPE svg PUBLIC "-//W3C//DTD SVG 1.1//EN"
 "http://www.w3.org/Graphics/SVG/1.1/DTD/svg11.dtd">
<!-- Generated by graphviz version 14.1.2 (20260124.0452)
 -->
<!-- Title: dpn Pages: 1 -->
<svg width="4758pt" height="1882pt"
 viewBox="0.00 0.00 4758.00 1882.00" xmlns="http://www.w3.org/2000/svg" xmlns:xlink="http://www.w3.org/1999/xlink">
<g id="graph0" class="graph" transform="scale(2.08333 2.08333) rotate(0) translate(4 899.5)">
<title>dpn</title>
<polygon fill="white" stroke="none" points="-4,4 -4,-899.5 2279.7,-899.5 2279.7,4 -4,4"/>
<text xml:space="preserve" text-anchor="middle" x="1137.85" y="-879.15" font-family="Helvetica,sans-Serif" font-size="13.00">Sepsis — DPN</text>
<!-- p_r0_q0 -->
<g id="node1" class="node">
<title>p_r0_q0</title>
<ellipse fill="#e8f5e9" stroke="#2e7d32" stroke-width="2.5" cx="33.52" cy="-202" rx="33.52" ry="33.52"/>
<text xml:space="preserve" text-anchor="middle" x="33.52" y="-197.55" font-family="Helvetica,sans-Serif" font-size="11.00">p_r0_q0</text>
</g>
<!-- t_NEW_10 -->
<g id="node17" class="node">
<title>t_NEW_10</title>
<path fill="#e3f2fd" stroke="#1565c0" stroke-width="1.2" d="M184.55,-246.12C184.55,-246.12 115.05,-246.12 115.05,-246.12 109.05,-246.12 103.05,-240.12 103.05,-234.12 103.05,-234.12 103.05,-169.88 103.05,-169.88 103.05,-163.88 109.05,-157.88 115.05,-157.88 115.05,-157.88 184.55,-157.88 184.55,-157.88 190.55,-157.88 196.55,-163.88 196.55,-169.88 196.55,-169.88 196.55,-234.12 196.55,-234.12 196.55,-240.12 190.55,-246.12 184.55,-246.12"/>
<text xml:space="preserve" text-anchor="start" x="136.67" y="-230.68" font-family="Helvetica,sans-Serif" font-weight="bold" font-size="11.00">NEW</text>
<text xml:space="preserve" text-anchor="start" x="138.55" y="-214.62" font-family="Helvetica,sans-Serif" font-size="10.00" fill="#c62828">[true]</text>
<text xml:space="preserve" text-anchor="start" x="121.67" y="-199.38" font-family="Helvetica,sans-Serif" font-size="10.00" fill="#1565c0">blocked&#39; := 0</text>
<text xml:space="preserve" text-anchor="start" x="127.3" y="-188.12" font-family="Helvetica,sans-Serif" font-size="10.00" fill="#1565c0">flagA&#39; := 0</text>
<text xml:space="preserve" text-anchor="start" x="127.3" y="-176.88" font-family="Helvetica,sans-Serif" font-size="10.00" fill="#1565c0">flagB&#39; := 0</text>
<text xml:space="preserve" text-anchor="start" x="113.05" y="-165.62" font-family="Helvetica,sans-Serif" font-size="10.00" fill="#1565c0">isCancelled&#39; := 0</text>
<polygon fill="#1565c0" stroke="#1565c0" points="111.05,-226.12 111.05,-226.12 188.55,-226.12 188.55,-226.12 111.05,-226.12"/>
</g>
<!-- p_r0_q0&#45;&gt;t_NEW_10 -->
<g id="edge33" class="edge">
<title>p_r0_q0&#45;&gt;t_NEW_10</title>
<path fill="none" stroke="#424242" d="M68.19,-202C75.45,-202 83.31,-202 91.19,-202"/>
<polygon fill="#424242" stroke="#424242" points="91.16,-205.5 101.16,-202 91.16,-198.5 91.16,-205.5"/>
</g>
<!-- p_r1_q1_q14_q16_+6 -->
<g id="node2" class="node">
<title>p_r1_q1_q14_q16_+6</title>
<ellipse fill="#e8f5e9" stroke="#616161" cx="306.21" cy="-405" rx="73.66" ry="73.66"/>
<text xml:space="preserve" text-anchor="middle" x="306.21" y="-400.55" font-family="Helvetica,sans-Serif" font-size="11.00">p_r1_q1_q14_q16_+6</text>
</g>
<!-- t_BILLED_1 -->
<g id="node9" class="node">
<title>t_BILLED_1</title>
<path fill="#e3f2fd" stroke="#1565c0" stroke-width="1.2" d="M464.38,-537.62C464.38,-537.62 427.88,-537.62 427.88,-537.62 421.88,-537.62 415.88,-531.62 415.88,-525.62 415.88,-525.62 415.88,-510.38 415.88,-510.38 415.88,-504.38 421.88,-498.38 427.88,-498.38 427.88,-498.38 464.38,-498.38 464.38,-498.38 470.38,-498.38 476.38,-504.38 476.38,-510.38 476.38,-510.38 476.38,-525.62 476.38,-525.62 476.38,-531.62 470.38,-537.62 464.38,-537.62"/>
<text xml:space="preserve" text-anchor="start" x="425.88" y="-522.17" font-family="Helvetica,sans-Serif" font-weight="bold" font-size="11.00">BILLED</text>
<text xml:space="preserve" text-anchor="start" x="434.88" y="-506.12" font-family="Helvetica,sans-Serif" font-size="10.00" fill="#c62828">[true]</text>
<polygon fill="#1565c0" stroke="#1565c0" points="423.88,-517.62 423.88,-517.62 468.38,-517.62 468.38,-517.62 423.88,-517.62"/>
</g>
<!-- p_r1_q1_q14_q16_+6&#45;&gt;t_BILLED_1 -->
<g id="edge1" class="edge">
<title>p_r1_q1_q14_q16_+6&#45;&gt;t_BILLED_1</title>
<path fill="none" stroke="#424242" d="M366.9,-447.21C384.75,-461.62 403.43,-477.33 418.07,-490.34"/>
<polygon fill="#424242" stroke="#424242" points="415.72,-492.93 425.49,-497.04 420.41,-487.74 415.72,-492.93"/>
</g>
<!-- t_CHANGE DIAGN_2 -->
<g id="node10" class="node">
<title>t_CHANGE DIAGN_2</title>
<path fill="#e3f2fd" stroke="#1565c0" stroke-width="1.2" d="M1591.08,-480.62C1591.08,-480.62 1319.08,-480.62 1319.08,-480.62 1313.08,-480.62 1307.08,-474.62 1307.08,-468.62 1307.08,-468.62 1307.08,-453.38 1307.08,-453.38 1307.08,-447.38 1313.08,-441.38 1319.08,-441.38 1319.08,-441.38 1591.08,-441.38 1591.08,-441.38 1597.08,-441.38 1603.08,-447.38 1603.08,-453.38 1603.08,-453.38 1603.08,-468.62 1603.08,-468.62 1603.08,-474.62 1597.08,-480.62 1591.08,-480.62"/>
<text xml:space="preserve" text-anchor="start" x="1411.21" y="-465.18" font-family="Helvetica,sans-Serif" font-weight="bold" font-size="11.00">CHANGE DIAGN</text>
<text xml:space="preserve" text-anchor="start" x="1317.08" y="-449.12" font-family="Helvetica,sans-Serif" font-size="10.00" fill="#c62828">[(=&gt; (&gt;= (+ 1/2 (* &#45;1 isClosed)) 0) (&gt;= (+ 1/2 (* &#45;1 isClosed)) 0))]</text>
<polygon fill="#1565c0" stroke="#1565c0" points="1315.08,-460.62 1315.08,-460.62 1595.08,-460.62 1595.08,-460.62 1315.08,-460.62"/>
</g>
<!-- p_r1_q1_q14_q16_+6&#45;&gt;t_CHANGE DIAGN_2 -->
<g id="edge5" class="edge">
<title>p_r1_q1_q14_q16_+6&#45;&gt;t_CHANGE DIAGN_2</title>
<path fill="none" stroke="#424242" d="M379.77,-397.3C426.84,-396 489.5,-396 544.9,-396 544.9,-396 544.9,-396 739.68,-396 948.78,-396 1191.25,-420.14 1333.15,-439.27"/>
<polygon fill="#424242" stroke="#424242" points="1332.57,-442.72 1342.95,-440.6 1333.52,-435.78 1332.57,-442.72"/>
</g>
<!-- t_CODE NOK_4 -->
<g id="node11" class="node">
<title>t_CODE NOK_4</title>
<path fill="#e3f2fd" stroke="#1565c0" stroke-width="1.2" d="M2029.93,-777.12C2029.93,-777.12 1966.43,-777.12 1966.43,-777.12 1960.43,-777.12 1954.43,-771.12 1954.43,-765.12 1954.43,-765.12 1954.43,-700.88 1954.43,-700.88 1954.43,-694.88 1960.43,-688.88 1966.43,-688.88 1966.43,-688.88 2029.93,-688.88 2029.93,-688.88 2035.93,-688.88 2041.93,-694.88 2041.93,-700.88 2041.93,-700.88 2041.93,-765.12 2041.93,-765.12 2041.93,-771.12 2035.93,-777.12 2029.93,-777.12"/>
<text xml:space="preserve" text-anchor="start" x="1968.18" y="-761.67" font-family="Helvetica,sans-Serif" font-weight="bold" font-size="11.00">CODE NOK</text>
<text xml:space="preserve" text-anchor="start" x="1986.93" y="-745.62" font-family="Helvetica,sans-Serif" font-size="10.00" fill="#c62828">[true]</text>
<text xml:space="preserve" text-anchor="start" x="1964.43" y="-730.38" font-family="Helvetica,sans-Serif" font-size="10.00" fill="#1565c0">actOrange&#39; := 0</text>
<text xml:space="preserve" text-anchor="start" x="1971.18" y="-719.12" font-family="Helvetica,sans-Serif" font-size="10.00" fill="#1565c0">actRed&#39; := 0</text>
<text xml:space="preserve" text-anchor="start" x="1975.31" y="-707.88" font-family="Helvetica,sans-Serif" font-size="10.00" fill="#1565c0">flagC&#39; := 0</text>
<text xml:space="preserve" text-anchor="start" x="1964.43" y="-696.62" font-family="Helvetica,sans-Serif" font-size="10.00" fill="#1565c0">msgCount&#39; := 1</text>
<polygon fill="#1565c0" stroke="#1565c0" points="1962.43,-757.12 1962.43,-757.12 2033.93,-757.12 2033.93,-757.12 1962.43,-757.12"/>
</g>
<!-- p_r1_q1_q14_q16_+6&#45;&gt;t_CODE NOK_4 -->
<g id="edge9" class="edge">
<title>p_r1_q1_q14_q16_+6&#45;&gt;t_CODE NOK_4</title>
<path fill="none" stroke="#424242" d="M312.07,-478.8C320.95,-555.62 345.91,-674.82 415.88,-750 457.77,-795.02 483.4,-800 544.9,-800 544.9,-800 544.9,-800 1779.76,-800 1838.31,-800 1901.01,-775.14 1943.96,-755.54"/>
<polygon fill="#424242" stroke="#424242" points="1945.19,-758.82 1952.8,-751.45 1942.25,-752.47 1945.19,-758.82"/>
</g>
<!-- t_CODE NOK_5 -->
<g id="node12" class="node">
<title>t_CODE NOK_5</title>
<path fill="#e3f2fd" stroke="#1565c0" stroke-width="1.2" d="M2029.93,-430.12C2029.93,-430.12 1966.43,-430.12 1966.43,-430.12 1960.43,-430.12 1954.43,-424.12 1954.43,-418.12 1954.43,-418.12 1954.43,-353.88 1954.43,-353.88 1954.43,-347.88 1960.43,-341.88 1966.43,-341.88 1966.43,-341.88 2029.93,-341.88 2029.93,-341.88 2035.93,-341.88 2041.93,-347.88 2041.93,-353.88 2041.93,-353.88 2041.93,-418.12 2041.93,-418.12 2041.93,-424.12 2035.93,-430.12 2029.93,-430.12"/>
<text xml:space="preserve" text-anchor="start" x="1968.18" y="-414.68" font-family="Helvetica,sans-Serif" font-weight="bold" font-size="11.00">CODE NOK</text>
<text xml:space="preserve" text-anchor="start" x="1986.93" y="-398.62" font-family="Helvetica,sans-Serif" font-size="10.00" fill="#c62828">[true]</text>
<text xml:space="preserve" text-anchor="start" x="1964.43" y="-383.38" font-family="Helvetica,sans-Serif" font-size="10.00" fill="#1565c0">actOrange&#39; := 0</text>
<text xml:space="preserve" text-anchor="start" x="1971.18" y="-372.12" font-family="Helvetica,sans-Serif" font-size="10.00" fill="#1565c0">actRed&#39; := 0</text>
<text xml:space="preserve" text-anchor="start" x="1975.31" y="-360.88" font-family="Helvetica,sans-Serif" font-size="10.00" fill="#1565c0">flagC&#39; := 0</text>
<text xml:space="preserve" text-anchor="start" x="1964.43" y="-349.62" font-family="Helvetica,sans-Serif" font-size="10.00" fill="#1565c0">msgCount&#39; := 1</text>
<polygon fill="#1565c0" stroke="#1565c0" points="1962.43,-410.12 1962.43,-410.12 2033.93,-410.12 2033.93,-410.12 1962.43,-410.12"/>
</g>
<!-- p_r1_q1_q14_q16_+6&#45;&gt;t_CODE NOK_5 -->
<g id="edge13" class="edge">
<title>p_r1_q1_q14_q16_+6&#45;&gt;t_CODE NOK_5</title>
<path fill="none" stroke="#424242" d="M326.25,-333.93C356.66,-242.06 425.3,-94 544.9,-94 544.9,-94 544.9,-94 1779.76,-94 1895.83,-94 1958.45,-245.55 1983.7,-330.37"/>
<polygon fill="#424242" stroke="#424242" points="1980.32,-331.28 1986.45,-339.92 1987.04,-329.34 1980.32,-331.28"/>
</g>
<!-- t_CODE NOK_6 -->
<g id="node13" class="node">
<title>t_CODE NOK_6</title>
<path fill="#e3f2fd" stroke="#1565c0" stroke-width="1.2" d="M2029.93,-189.12C2029.93,-189.12 1966.43,-189.12 1966.43,-189.12 1960.43,-189.12 1954.43,-183.12 1954.43,-177.12 1954.43,-177.12 1954.43,-112.88 1954.43,-112.88 1954.43,-106.88 1960.43,-100.88 1966.43,-100.88 1966.43,-100.88 2029.93,-100.88 2029.93,-100.88 2035.93,-100.88 2041.93,-106.88 2041.93,-112.88 2041.93,-112.88 2041.93,-177.12 2041.93,-177.12 2041.93,-183.12 2035.93,-189.12 2029.93,-189.12"/>
<text xml:space="preserve" text-anchor="start" x="1968.18" y="-173.68" font-family="Helvetica,sans-Serif" font-weight="bold" font-size="11.00">CODE NOK</text>
<text xml:space="preserve" text-anchor="start" x="1986.93" y="-157.62" font-family="Helvetica,sans-Serif" font-size="10.00" fill="#c62828">[true]</text>
<text xml:space="preserve" text-anchor="start" x="1964.43" y="-142.38" font-family="Helvetica,sans-Serif" font-size="10.00" fill="#1565c0">actOrange&#39; := 0</text>
<text xml:space="preserve" text-anchor="start" x="1971.18" y="-131.12" font-family="Helvetica,sans-Serif" font-size="10.00" fill="#1565c0">actRed&#39; := 0</text>
<text xml:space="preserve" text-anchor="start" x="1975.31" y="-119.88" font-family="Helvetica,sans-Serif" font-size="10.00" fill="#1565c0">flagC&#39; := 0</text>
<text xml:space="preserve" text-anchor="start" x="1964.43" y="-108.62" font-family="Helvetica,sans-Serif" font-size="10.00" fill="#1565c0">msgCount&#39; := 1</text>
<polygon fill="#1565c0" stroke="#1565c0" points="1962.43,-169.12 1962.43,-169.12 2033.93,-169.12 2033.93,-169.12 1962.43,-169.12"/>
</g>
<!-- p_r1_q1_q14_q16_+6&#45;&gt;t_CODE NOK_6 -->
<g id="edge17" class="edge">
<title>p_r1_q1_q14_q16_+6&#45;&gt;t_CODE NOK_6</title>
<path fill="none" stroke="#424242" d="M319.97,-332.49C344.05,-225.46 406.7,-38 544.9,-38 544.9,-38 544.9,-38 1779.76,-38 1840.19,-38 1902.39,-69.86 1944.7,-98.91"/>
<polygon fill="#424242" stroke="#424242" points="1942.52,-101.66 1952.71,-104.57 1946.56,-95.94 1942.52,-101.66"/>
</g>
<!-- t_CODE OK_7 -->
<g id="node14" class="node">
<title>t_CODE OK_7</title>
<path fill="#e3f2fd" stroke="#1565c0" stroke-width="1.2" d="M2029.93,-645.25C2029.93,-645.25 1966.43,-645.25 1966.43,-645.25 1960.43,-645.25 1954.43,-639.25 1954.43,-633.25 1954.43,-633.25 1954.43,-602.75 1954.43,-602.75 1954.43,-596.75 1960.43,-590.75 1966.43,-590.75 1966.43,-590.75 2029.93,-590.75 2029.93,-590.75 2035.93,-590.75 2041.93,-596.75 2041.93,-602.75 2041.93,-602.75 2041.93,-633.25 2041.93,-633.25 2041.93,-639.25 2035.93,-645.25 2029.93,-645.25"/>
<text xml:space="preserve" text-anchor="start" x="1972.31" y="-629.8" font-family="Helvetica,sans-Serif" font-weight="bold" font-size="11.00">CODE OK</text>
<text xml:space="preserve" text-anchor="start" x="1986.93" y="-613.75" font-family="Helvetica,sans-Serif" font-size="10.00" fill="#c62828">[true]</text>
<text xml:space="preserve" text-anchor="start" x="1964.43" y="-598.5" font-family="Helvetica,sans-Serif" font-size="10.00" fill="#1565c0">msgCount&#39; := 0</text>
<polygon fill="#1565c0" stroke="#1565c0" points="1962.43,-625.25 1962.43,-625.25 2033.93,-625.25 2033.93,-625.25 1962.43,-625.25"/>
</g>
<!-- p_r1_q1_q14_q16_+6&#45;&gt;t_CODE OK_7 -->
<g id="edge21" class="edge">
<title>p_r1_q1_q14_q16_+6&#45;&gt;t_CODE OK_7</title>
<path fill="none" stroke="#424242" d="M331.75,-474.62C365.02,-558.48 433.45,-688 544.9,-688 544.9,-688 544.9,-688 1779.76,-688 1838.38,-688 1900.84,-662.32 1943.7,-641.91"/>
<polygon fill="#424242" stroke="#424242" points="1945.04,-645.14 1952.52,-637.64 1942,-638.84 1945.04,-645.14"/>
</g>
<!-- t_DELETE_8 -->
<g id="node15" class="node">
<title>t_DELETE_8</title>
<path fill="#e3f2fd" stroke="#1565c0" stroke-width="1.2" d="M1489.83,-268.25C1489.83,-268.25 1420.33,-268.25 1420.33,-268.25 1414.33,-268.25 1408.33,-262.25 1408.33,-256.25 1408.33,-256.25 1408.33,-225.75 1408.33,-225.75 1408.33,-219.75 1414.33,-213.75 1420.33,-213.75 1420.33,-213.75 1489.83,-213.75 1489.83,-213.75 1495.83,-213.75 1501.83,-219.75 1501.83,-225.75 1501.83,-225.75 1501.83,-256.25 1501.83,-256.25 1501.83,-262.25 1495.83,-268.25 1489.83,-268.25"/>
<text xml:space="preserve" text-anchor="start" x="1432.96" y="-252.8" font-family="Helvetica,sans-Serif" font-weight="bold" font-size="11.00">DELETE</text>
<text xml:space="preserve" text-anchor="start" x="1443.83" y="-236.75" font-family="Helvetica,sans-Serif" font-size="10.00" fill="#c62828">[true]</text>
<text xml:space="preserve" text-anchor="start" x="1418.33" y="-221.5" font-family="Helvetica,sans-Serif" font-size="10.00" fill="#1565c0">isCancelled&#39; := 1</text>
<polygon fill="#1565c0" stroke="#1565c0" points="1416.33,-248.25 1416.33,-248.25 1493.83,-248.25 1493.83,-248.25 1416.33,-248.25"/>
</g>
<!-- p_r1_q1_q14_q16_+6&#45;&gt;t_DELETE_8 -->
<g id="edge25" class="edge">
<title>p_r1_q1_q14_q16_+6&#45;&gt;t_DELETE_8</title>
<path fill="none" stroke="#424242" d="M344.24,-341.58C385.75,-283.26 458.66,-206 544.9,-206 544.9,-206 544.9,-206 1074.68,-206 1189.29,-206 1322.92,-217.95 1397.07,-228.46"/>
<polygon fill="#424242" stroke="#424242" points="1396.11,-231.85 1406.52,-229.84 1397.13,-224.93 1396.11,-231.85"/>
</g>
<!-- t_FIN_9 -->
<g id="node16" class="node">
<title>t_FIN_9</title>
<path fill="#e3f2fd" stroke="#1565c0" stroke-width="1.2" d="M1470.08,-408.62C1470.08,-408.62 1440.08,-408.62 1440.08,-408.62 1434.08,-408.62 1428.08,-402.62 1428.08,-396.62 1428.08,-396.62 1428.08,-381.38 1428.08,-381.38 1428.08,-375.38 1434.08,-369.38 1440.08,-369.38 1440.08,-369.38 1470.08,-369.38 1470.08,-369.38 1476.08,-369.38 1482.08,-375.38 1482.08,-381.38 1482.08,-381.38 1482.08,-396.62 1482.08,-396.62 1482.08,-402.62 1476.08,-408.62 1470.08,-408.62"/>
<text xml:space="preserve" text-anchor="start" x="1446.08" y="-393.18" font-family="Helvetica,sans-Serif" font-weight="bold" font-size="11.00">FIN</text>
<text xml:space="preserve" text-anchor="start" x="1443.83" y="-377.12" font-family="Helvetica,sans-Serif" font-size="10.00" fill="#c62828">[true]</text>
<polygon fill="#1565c0" stroke="#1565c0" points="1441.83,-388.62 1441.83,-388.62 1468.33,-388.62 1468.33,-388.62 1441.83,-388.62"/>
</g>
<!-- p_r1_q1_q14_q16_+6&#45;&gt;t_FIN_9 -->
<g id="edge29" class="edge">
<title>p_r1_q1_q14_q16_+6&#45;&gt;t_FIN_9</title>
<path fill="none" stroke="#424242" d="M360.99,-355.77C407.1,-322.2 476.7,-284 544.9,-284 544.9,-284 544.9,-284 950.49,-284 1022.6,-284 1051.45,-270.34 1110.31,-312 1136.94,-330.85 1118.24,-359.34 1146.31,-376 1231.78,-426.74 1355.54,-405.85 1416.81,-394.1"/>
<polygon fill="#424242" stroke="#424242" points="1417.22,-397.58 1426.37,-392.25 1415.89,-390.71 1417.22,-397.58"/>
</g>
<!-- t_REJECT_11 -->
<g id="node18" class="node">
<title>t_REJECT_11</title>
<path fill="#e3f2fd" stroke="#1565c0" stroke-width="1.2" d="M1093.81,-659.62C1093.81,-659.62 1053.56,-659.62 1053.56,-659.62 1047.56,-659.62 1041.56,-653.62 1041.56,-647.62 1041.56,-647.62 1041.56,-632.38 1041.56,-632.38 1041.56,-626.38 1047.56,-620.38 1053.56,-620.38 1053.56,-620.38 1093.81,-620.38 1093.81,-620.38 1099.81,-620.38 1105.81,-626.38 1105.81,-632.38 1105.81,-632.38 1105.81,-647.62 1105.81,-647.62 1105.81,-653.62 1099.81,-659.62 1093.81,-659.62"/>
<text xml:space="preserve" text-anchor="start" x="1051.56" y="-644.17" font-family="Helvetica,sans-Serif" font-weight="bold" font-size="11.00">REJECT</text>
<text xml:space="preserve" text-anchor="start" x="1062.43" y="-628.12" font-family="Helvetica,sans-Serif" font-size="10.00" fill="#c62828">[true]</text>
<polygon fill="#1565c0" stroke="#1565c0" points="1049.56,-639.62 1049.56,-639.62 1097.81,-639.62 1097.81,-639.62 1049.56,-639.62"/>
</g>
<!-- p_r1_q1_q14_q16_+6&#45;&gt;t_REJECT_11 -->
<g id="edge36" class="edge">
<title>p_r1_q1_q14_q16_+6&#45;&gt;t_REJECT_11</title>
<path fill="none" stroke="#424242" d="M313.91,-478.7C324.18,-548.24 350.15,-650.44 415.88,-711 459.41,-751.11 485.71,-744 544.9,-744 544.9,-744 544.9,-744 739.68,-744 849.62,-744 969.67,-688.08 1031.2,-658.05"/>
<polygon fill="#424242" stroke="#424242" points="1032.48,-661.32 1039.92,-653.78 1029.4,-655.04 1032.48,-661.32"/>
</g>
<!-- t_RELEASE_12 -->
<g id="node19" class="node">
<title>t_RELEASE_12</title>
<path fill="#e3f2fd" stroke="#1565c0" stroke-width="1.2" d="M1803.38,-400.62C1803.38,-400.62 1754.13,-400.62 1754.13,-400.62 1748.13,-400.62 1742.13,-394.62 1742.13,-388.62 1742.13,-388.62 1742.13,-373.38 1742.13,-373.38 1742.13,-367.38 1748.13,-361.38 1754.13,-361.38 1754.13,-361.38 1803.38,-361.38 1803.38,-361.38 1809.38,-361.38 1815.38,-367.38 1815.38,-373.38 1815.38,-373.38 1815.38,-388.62 1815.38,-388.62 1815.38,-394.62 1809.38,-400.62 1803.38,-400.62"/>
<text xml:space="preserve" text-anchor="start" x="1752.13" y="-385.18" font-family="Helvetica,sans-Serif" font-weight="bold" font-size="11.00">RELEASE</text>
<text xml:space="preserve" text-anchor="start" x="1767.51" y="-369.12" font-family="Helvetica,sans-Serif" font-size="10.00" fill="#c62828">[true]</text>
<polygon fill="#1565c0" stroke="#1565c0" points="1750.13,-380.62 1750.13,-380.62 1807.38,-380.62 1807.38,-380.62 1750.13,-380.62"/>
</g>
<!-- p_r1_q1_q14_q16_+6&#45;&gt;t_RELEASE_12 -->
<g id="edge40" class="edge">
<title>p_r1_q1_q14_q16_+6&#45;&gt;t_RELEASE_12</title>
<path fill="none" stroke="#424242" d="M334.2,-336.65C370.57,-261.05 442.76,-150 544.9,-150 544.9,-150 544.9,-150 1456.08,-150 1524.54,-150 1544.59,-160.44 1603.08,-196 1670.88,-237.22 1731.59,-310.31 1760.28,-351.37"/>
<polygon fill="#424242" stroke="#424242" points="1757.35,-353.28 1765.86,-359.59 1763.14,-349.35 1757.35,-353.28"/>
</g>
<!-- t_RELEASE_13 -->
<g id="node20" class="node">
<title>t_RELEASE_13</title>
<path fill="#e3f2fd" stroke="#1565c0" stroke-width="1.2" d="M1098.31,-515.62C1098.31,-515.62 1049.06,-515.62 1049.06,-515.62 1043.06,-515.62 1037.06,-509.62 1037.06,-503.62 1037.06,-503.62 1037.06,-488.38 1037.06,-488.38 1037.06,-482.38 1043.06,-476.38 1049.06,-476.38 1049.06,-476.38 1098.31,-476.38 1098.31,-476.38 1104.31,-476.38 1110.31,-482.38 1110.31,-488.38 1110.31,-488.38 1110.31,-503.62 1110.31,-503.62 1110.31,-509.62 1104.31,-515.62 1098.31,-515.62"/>
<text xml:space="preserve" text-anchor="start" x="1047.06" y="-500.18" font-family="Helvetica,sans-Serif" font-weight="bold" font-size="11.00">RELEASE</text>
<text xml:space="preserve" text-anchor="start" x="1062.43" y="-484.12" font-family="Helvetica,sans-Serif" font-size="10.00" fill="#c62828">[true]</text>
<polygon fill="#1565c0" stroke="#1565c0" points="1045.06,-495.62 1045.06,-495.62 1102.31,-495.62 1102.31,-495.62 1045.06,-495.62"/>
</g>
<!-- p_r1_q1_q14_q16_+6&#45;&gt;t_RELEASE_13 -->
<g id="edge44" class="edge">
<title>p_r1_q1_q14_q16_+6&#45;&gt;t_RELEASE_13</title>
<path fill="none" stroke="#424242" d="M377.96,-423.03C424.7,-436.43 487.67,-452 544.9,-452 544.9,-452 544.9,-452 739.68,-452 842.23,-452 961.57,-468.62 1025.87,-481.9"/>
<polygon fill="#424242" stroke="#424242" points="1024.85,-485.26 1035.36,-483.93 1026.31,-478.42 1024.85,-485.26"/>
</g>
<!-- t_REOPEN_14 -->
<g id="node21" class="node">
<title>t_REOPEN_14</title>
<path fill="#e3f2fd" stroke="#1565c0" stroke-width="1.2" d="M1095.31,-369.62C1095.31,-369.62 1052.06,-369.62 1052.06,-369.62 1046.06,-369.62 1040.06,-363.62 1040.06,-357.62 1040.06,-357.62 1040.06,-342.38 1040.06,-342.38 1040.06,-336.38 1046.06,-330.38 1052.06,-330.38 1052.06,-330.38 1095.31,-330.38 1095.31,-330.38 1101.31,-330.38 1107.31,-336.38 1107.31,-342.38 1107.31,-342.38 1107.31,-357.62 1107.31,-357.62 1107.31,-363.62 1101.31,-369.62 1095.31,-369.62"/>
<text xml:space="preserve" text-anchor="start" x="1050.06" y="-354.18" font-family="Helvetica,sans-Serif" font-weight="bold" font-size="11.00">REOPEN</text>
<text xml:space="preserve" text-anchor="start" x="1062.43" y="-338.12" font-family="Helvetica,sans-Serif" font-size="10.00" fill="#c62828">[true]</text>
<polygon fill="#1565c0" stroke="#1565c0" points="1048.06,-349.62 1048.06,-349.62 1099.31,-349.62 1099.31,-349.62 1048.06,-349.62"/>
</g>
<!-- p_r1_q1_q14_q16_+6&#45;&gt;t_REOPEN_14 -->
<g id="edge48" class="edge">
<title>p_r1_q1_q14_q16_+6&#45;&gt;t_REOPEN_14</title>
<path fill="none" stroke="#424242" d="M373.09,-373.31C420.26,-356.69 485.65,-340 544.9,-340 544.9,-340 544.9,-340 739.68,-340 843.09,-340 964.56,-340.49 1028.37,-343.85"/>
<polygon fill="#424242" stroke="#424242" points="1027.9,-347.33 1038.08,-344.43 1028.31,-340.34 1027.9,-347.33"/>
</g>
<!-- t_SET STATUS_15 -->
<g id="node22" class="node">
<title>t_SET STATUS_15</title>
<path fill="#e3f2fd" stroke="#1565c0" stroke-width="1.2" d="M2263.7,-608.62C2263.7,-608.62 2200.2,-608.62 2200.2,-608.62 2194.2,-608.62 2188.2,-602.62 2188.2,-596.62 2188.2,-596.62 2188.2,-581.38 2188.2,-581.38 2188.2,-575.38 2194.2,-569.38 2200.2,-569.38 2200.2,-569.38 2263.7,-569.38 2263.7,-569.38 2269.7,-569.38 2275.7,-575.38 2275.7,-581.38 2275.7,-581.38 2275.7,-596.62 2275.7,-596.62 2275.7,-602.62 2269.7,-608.62 2263.7,-608.62"/>
<text xml:space="preserve" text-anchor="start" x="2198.2" y="-593.17" font-family="Helvetica,sans-Serif" font-weight="bold" font-size="11.00">SET STATUS</text>
<text xml:space="preserve" text-anchor="start" x="2220.7" y="-577.12" font-family="Helvetica,sans-Serif" font-size="10.00" fill="#c62828">[true]</text>
<polygon fill="#1565c0" stroke="#1565c0" points="2196.2,-588.62 2196.2,-588.62 2267.7,-588.62 2267.7,-588.62 2196.2,-588.62"/>
</g>
<!-- p_r1_q1_q14_q16_+6&#45;&gt;t_SET STATUS_15 -->
<g id="edge52" class="edge">
<title>p_r1_q1_q14_q16_+6&#45;&gt;t_SET STATUS_15</title>
<path fill="none" stroke="#424242" d="M309.93,-478.72C316.88,-563.69 340.11,-703.07 415.88,-794 456.6,-842.88 481.28,-856 544.9,-856 544.9,-856 544.9,-856 1999.18,-856 2123.35,-856 2194.29,-690.14 2219.9,-619.76"/>
<polygon fill="#424242" stroke="#424242" points="2223.19,-620.96 2223.25,-610.37 2216.6,-618.61 2223.19,-620.96"/>
</g>
<!-- t_STORNO_16 -->
<g id="node23" class="node">
<title>t_STORNO_16</title>
<path fill="#e3f2fd" stroke="#1565c0" stroke-width="1.2" d="M849.93,-600.62C849.93,-600.62 627.43,-600.62 627.43,-600.62 621.43,-600.62 615.43,-594.62 615.43,-588.62 615.43,-588.62 615.43,-573.38 615.43,-573.38 615.43,-567.38 621.43,-561.38 627.43,-561.38 627.43,-561.38 849.93,-561.38 849.93,-561.38 855.93,-561.38 861.93,-567.38 861.93,-573.38 861.93,-573.38 861.93,-588.62 861.93,-588.62 861.93,-594.62 855.93,-600.62 849.93,-600.62"/>
<text xml:space="preserve" text-anchor="start" x="715.05" y="-585.17" font-family="Helvetica,sans-Serif" font-weight="bold" font-size="11.00">STORNO</text>
<text xml:space="preserve" text-anchor="start" x="625.43" y="-569.12" font-family="Helvetica,sans-Serif" font-size="10.00" fill="#c62828">[(=&gt; (&gt;= (* &#45;1 actOrange) 0) (&gt;= (* &#45;1 actOrange) 0))]</text>
<polygon fill="#1565c0" stroke="#1565c0" points="623.43,-580.62 623.43,-580.62 853.93,-580.62 853.93,-580.62 623.43,-580.62"/>
</g>
<!-- p_r1_q1_q14_q16_+6&#45;&gt;t_STORNO_16 -->
<g id="edge56" class="edge">
<title>p_r1_q1_q14_q16_+6&#45;&gt;t_STORNO_16</title>
<path fill="none" stroke="#424242" d="M348.02,-466.23C383.68,-516.21 440.9,-581.9 512.38,-604 555.42,-617.31 604.83,-612.41 646.38,-603.68"/>
<polygon fill="#424242" stroke="#424242" points="647.12,-607.1 656.13,-601.52 645.61,-600.27 647.12,-607.1"/>
</g>
<!-- p_r2_q1_q14_q32 -->
<g id="node3" class="node">
<title>p_r2_q1_q14_q32</title>
<ellipse fill="#e8f5e9" stroke="#616161" cx="1208.69" cy="-314" rx="62.39" ry="62.39"/>
<text xml:space="preserve" text-anchor="middle" x="1208.69" y="-309.55" font-family="Helvetica,sans-Serif" font-size="11.00">p_r2_q1_q14_q32</text>
</g>
<!-- p_r2_q1_q14_q32&#45;&gt;t_CHANGE DIAGN_2 -->
<g id="edge6" class="edge">
<title>p_r2_q1_q14_q32&#45;&gt;t_CHANGE DIAGN_2</title>
<path fill="none" stroke="#424242" d="M1251.12,-360.41C1266.93,-377.71 1286.22,-396.17 1307.08,-409 1327.81,-421.75 1352.5,-430.88 1375.67,-437.75"/>
<polygon fill="#424242" stroke="#424242" points="1374.52,-441.06 1385.09,-440.44 1376.44,-434.33 1374.52,-441.06"/>
</g>
<!-- p_r2_q1_q14_q32&#45;&gt;t_DELETE_8 -->
<g id="edge26" class="edge">
<title>p_r2_q1_q14_q32&#45;&gt;t_DELETE_8</title>
<path fill="none" stroke="#424242" d="M1266.99,-291.06C1306.11,-278.14 1357.73,-262.72 1396.84,-252.28"/>
<polygon fill="#424242" stroke="#424242" points="1397.53,-255.72 1406.31,-249.79 1395.75,-248.95 1397.53,-255.72"/>
</g>
<!-- p_r2_q1_q14_q32&#45;&gt;t_FIN_9 -->
<g id="edge30" class="edge">
<title>p_r2_q1_q14_q32&#45;&gt;t_FIN_9</title>
<path fill="none" stroke="#424242" d="M1268.85,-332.16C1314.88,-346.28 1377.34,-365.45 1416.68,-377.52"/>
<polygon fill="#424242" stroke="#424242" points="1415.58,-380.85 1426.17,-380.43 1417.64,-374.15 1415.58,-380.85"/>
</g>
<!-- p_r3_q16_q22 -->
<g id="node4" class="node">
<title>p_r3_q16_q22</title>
<ellipse fill="#e8f5e9" stroke="#616161" cx="949.49" cy="-568" rx="51.56" ry="51.56"/>
<text xml:space="preserve" text-anchor="middle" x="949.49" y="-563.55" font-family="Helvetica,sans-Serif" font-size="11.00">p_r3_q16_q22</text>
</g>
<!-- p_r3_q16_q22&#45;&gt;t_BILLED_1 -->
<g id="edge2" class="edge">
<title>p_r3_q16_q22&#45;&gt;t_BILLED_1</title>
<path fill="none" stroke="#424242" d="M898.73,-557.97C886.71,-555.78 873.89,-553.63 861.93,-552 725.67,-533.42 562.75,-523.68 488.12,-519.9"/>
<polygon fill="#424242" stroke="#424242" points="488.59,-516.42 478.43,-519.42 488.25,-523.41 488.59,-516.42"/>
</g>
<!-- p_r3_q16_q22&#45;&gt;t_REJECT_11 -->
<g id="edge37" class="edge">
<title>p_r3_q16_q22&#45;&gt;t_REJECT_11</title>
<path fill="none" stroke="#424242" d="M997.03,-588.85C1010.79,-596.62 1025.6,-605.49 1038.43,-613.68"/>
<polygon fill="#424242" stroke="#424242" points="1036.25,-616.44 1046.54,-618.96 1040.06,-610.57 1036.25,-616.44"/>
</g>
<!-- p_r3_q16_q22&#45;&gt;t_RELEASE_13 -->
<g id="edge45" class="edge">
<title>p_r3_q16_q22&#45;&gt;t_RELEASE_13</title>
<path fill="none" stroke="#424242" d="M994.26,-542.21C1005.49,-535.59 1017.57,-528.48 1028.8,-521.86"/>
<polygon fill="#424242" stroke="#424242" points="1030.27,-525.05 1037.11,-516.96 1026.72,-519.02 1030.27,-525.05"/>
</g>
<!-- p_r3_q16_q22&#45;&gt;t_REOPEN_14 -->
<g id="edge49" class="edge">
<title>p_r3_q16_q22&#45;&gt;t_REOPEN_14</title>
<path fill="none" stroke="#424242" d="M975.66,-523.09C999.74,-480.14 1035.35,-416.6 1056.07,-379.64"/>
<polygon fill="#424242" stroke="#424242" points="1058.92,-381.71 1060.76,-371.28 1052.81,-378.29 1058.92,-381.71"/>
</g>
<!-- p_r4_q2 -->
<g id="node5" class="node">
<title>p_r4_q2</title>
<ellipse fill="#e8f5e9" stroke="#616161" cx="1672.61" cy="-385" rx="33.52" ry="33.52"/>
<text xml:space="preserve" text-anchor="middle" x="1672.61" y="-380.55" font-family="Helvetica,sans-Serif" font-size="11.00">p_r4_q2</text>
</g>
<!-- p_r4_q2&#45;&gt;t_RELEASE_12 -->
<g id="edge41" class="edge">
<title>p_r4_q2&#45;&gt;t_RELEASE_12</title>
<path fill="none" stroke="#424242" d="M1706.56,-383.73C1714.18,-383.44 1722.42,-383.13 1730.52,-382.81"/>
<polygon fill="#424242" stroke="#424242" points="1730.4,-386.32 1740.26,-382.44 1730.13,-379.33 1730.4,-386.32"/>
</g>
<!-- p_r5_q3 -->
<g id="node6" class="node">
<title>p_r5_q3</title>
<ellipse fill="#e8f5e9" stroke="#616161" cx="1884.91" cy="-386" rx="33.52" ry="33.52"/>
<text xml:space="preserve" text-anchor="middle" x="1884.91" y="-381.55" font-family="Helvetica,sans-Serif" font-size="11.00">p_r5_q3</text>
</g>
<!-- p_r5_q3&#45;&gt;t_CODE NOK_4 -->
<g id="edge10" class="edge">
<title>p_r5_q3&#45;&gt;t_CODE NOK_4</title>
<path fill="none" stroke="#424242" d="M1893.24,-418.86C1907.17,-480.44 1937.54,-610.85 1954.43,-654 1957.59,-662.07 1961.39,-670.35 1965.4,-678.38"/>
<polygon fill="#424242" stroke="#424242" points="1962.18,-679.76 1969.88,-687.03 1968.4,-676.54 1962.18,-679.76"/>
</g>
<!-- p_r5_q3&#45;&gt;t_CODE NOK_5 -->
<g id="edge14" class="edge">
<title>p_r5_q3&#45;&gt;t_CODE NOK_5</title>
<path fill="none" stroke="#424242" d="M1918.09,-379.81C1925.77,-379.42 1934.18,-379.23 1942.56,-379.25"/>
<polygon fill="#424242" stroke="#424242" points="1942.33,-382.75 1952.38,-379.38 1942.42,-375.75 1942.33,-382.75"/>
</g>
<!-- p_r5_q3&#45;&gt;t_CODE NOK_6 -->
<g id="edge18" class="edge">
<title>p_r5_q3&#45;&gt;t_CODE NOK_6</title>
<path fill="none" stroke="#424242" d="M1899.77,-355.96C1917.79,-316.94 1949.59,-248.07 1971.94,-199.66"/>
<polygon fill="#424242" stroke="#424242" points="1975.05,-201.28 1976.07,-190.73 1968.7,-198.34 1975.05,-201.28"/>
</g>
<!-- p_r5_q3&#45;&gt;t_CODE OK_7 -->
<g id="edge22" class="edge">
<title>p_r5_q3&#45;&gt;t_CODE OK_7</title>
<path fill="none" stroke="#424242" d="M1900.23,-415.85C1920.38,-457.86 1957.09,-534.4 1979.1,-580.29"/>
<polygon fill="#424242" stroke="#424242" points="1975.82,-581.56 1983.3,-589.06 1982.13,-578.53 1975.82,-581.56"/>
</g>
<!-- p_r6_q43 -->
<g id="node7" class="node">
<title>p_r6_q43</title>
<ellipse fill="#e8f5e9" stroke="#616161" cx="2115.06" cy="-246" rx="37.13" ry="37.13"/>
<text xml:space="preserve" text-anchor="middle" x="2115.06" y="-241.55" font-family="Helvetica,sans-Serif" font-size="11.00">p_r6_q43</text>
</g>
<!-- p_r6_q43&#45;&gt;t_SET STATUS_15 -->
<g id="edge53" class="edge">
<title>p_r6_q43&#45;&gt;t_SET STATUS_15</title>
<path fill="none" stroke="#424242" d="M2138.32,-275.55C2143.4,-283.23 2148.41,-291.69 2152.2,-300 2192.82,-389.08 2216.28,-503.43 2225.86,-557.72"/>
<polygon fill="#424242" stroke="#424242" points="2222.39,-558.21 2227.53,-567.47 2229.29,-557.02 2222.39,-558.21"/>
</g>
<!-- p_r7_q5 -->
<g id="node8" class="node">
<title>p_r7_q5</title>
<ellipse fill="#e8f5e9" stroke="#616161" cx="545.9" cy="-570" rx="33.52" ry="33.52"/>
<text xml:space="preserve" text-anchor="middle" x="545.9" y="-565.55" font-family="Helvetica,sans-Serif" font-size="11.00">p_r7_q5</text>
</g>
<!-- p_r7_q5&#45;&gt;t_STORNO_16 -->
<g id="edge57" class="edge">
<title>p_r7_q5&#45;&gt;t_STORNO_16</title>
<path fill="none" stroke="#424242" d="M579.7,-571.89C586.88,-572.31 594.92,-572.77 603.45,-573.26"/>
<polygon fill="#424242" stroke="#424242" points="603.23,-576.75 613.42,-573.84 603.63,-569.77 603.23,-576.75"/>
</g>
<!-- t_BILLED_1&#45;&gt;p_r1_q1_q14_q16_+6 -->
<g id="edge3" class="edge">
<title>t_BILLED_1&#45;&gt;p_r1_q1_q14_q16_+6</title>
<path fill="none" stroke="#424242" d="M415.45,-499.35C401.94,-489.12 385.41,-475.93 369.37,-462.65"/>
<polygon fill="#424242" stroke="#424242" points="371.62,-459.97 361.7,-456.25 367.14,-465.34 371.62,-459.97"/>
</g>
<!-- t_BILLED_1&#45;&gt;p_r7_q5 -->
<g id="edge4" class="edge">
<title>t_BILLED_1&#45;&gt;p_r7_q5</title>
<path fill="none" stroke="#424242" d="M476.73,-533.74C485.91,-538.62 496.16,-544.08 505.88,-549.25"/>
<polygon fill="#424242" stroke="#424242" points="503.93,-552.17 514.4,-553.78 507.22,-545.99 503.93,-552.17"/>
</g>
<!-- t_CHANGE DIAGN_2&#45;&gt;p_r1_q1_q14_q16_+6 -->
<g id="edge7" class="edge">
<title>t_CHANGE DIAGN_2&#45;&gt;p_r1_q1_q14_q16_+6</title>
<path fill="none" stroke="#424242" d="M1306.58,-449.55C1162.3,-435.33 936.24,-414 739.68,-414 544.9,-414 544.9,-414 544.9,-414 493.83,-414 436.59,-414 391.08,-412.98"/>
<polygon fill="#424242" stroke="#424242" points="391.37,-409.49 381.28,-412.74 391.19,-416.49 391.37,-409.49"/>
</g>
<!-- t_CHANGE DIAGN_2&#45;&gt;p_r2_q1_q14_q32 -->
<g id="edge8" class="edge">
<title>t_CHANGE DIAGN_2&#45;&gt;p_r2_q1_q14_q32</title>
<path fill="none" stroke="#424242" d="M1334.18,-440.89C1324.74,-436.84 1315.58,-432.22 1307.08,-427 1285.52,-413.74 1265.64,-394.46 1249.53,-375.52"/>
<polygon fill="#424242" stroke="#424242" points="1252.43,-373.53 1243.37,-368.04 1247.02,-377.98 1252.43,-373.53"/>
</g>
<!-- t_CODE NOK_4&#45;&gt;p_r1_q1_q14_q16_+6 -->
<g id="edge11" class="edge">
<title>t_CODE NOK_4&#45;&gt;p_r1_q1_q14_q16_+6</title>
<path fill="none" stroke="#424242" d="M1954.17,-764.54C1911.38,-788.87 1843.14,-818 1779.76,-818 544.9,-818 544.9,-818 544.9,-818 483.4,-818 457.77,-813.02 415.88,-768 345.19,-692.04 320.44,-571.14 311.8,-489.91"/>
<polygon fill="#424242" stroke="#424242" points="315.31,-489.83 310.84,-480.22 308.35,-490.52 315.31,-489.83"/>
</g>
<!-- t_CODE NOK_4&#45;&gt;p_r3_q16_q22 -->
<g id="edge12" class="edge">
<title>t_CODE NOK_4&#45;&gt;p_r3_q16_q22</title>
<path fill="none" stroke="#424242" d="M1969.8,-688.29C1933.5,-635.27 1864.1,-554 1779.76,-554 1207.69,-554 1207.69,-554 1207.69,-554 1140.97,-554 1064.64,-558.76 1012.58,-562.72"/>
<polygon fill="#424242" stroke="#424242" points="1012.41,-559.23 1002.71,-563.49 1012.95,-566.21 1012.41,-559.23"/>
</g>
<!-- t_CODE NOK_5&#45;&gt;p_r1_q1_q14_q16_+6 -->
<g id="edge15" class="edge">
<title>t_CODE NOK_5&#45;&gt;p_r1_q1_q14_q16_+6</title>
<path fill="none" stroke="#424242" d="M1983.76,-341.52C1958.56,-263.81 1895.93,-112 1779.76,-112 544.9,-112 544.9,-112 544.9,-112 434.74,-112 367.8,-237.63 334.16,-324.42"/>
<polygon fill="#424242" stroke="#424242" points="330.93,-323.06 330.66,-333.65 337.48,-325.54 330.93,-323.06"/>
</g>
<!-- t_CODE NOK_5&#45;&gt;p_r5_q3 -->
<g id="edge16" class="edge">
<title>t_CODE NOK_5&#45;&gt;p_r5_q3</title>
<path fill="none" stroke="#424242" d="M1953.89,-392.6C1945.88,-392.8 1937.52,-392.8 1929.5,-392.61"/>
<polygon fill="#424242" stroke="#424242" points="1929.73,-389.11 1919.6,-392.24 1929.47,-396.11 1929.73,-389.11"/>
</g>
<!-- t_CODE NOK_6&#45;&gt;p_r1_q1_q14_q16_+6 -->
<g id="edge19" class="edge">
<title>t_CODE NOK_6&#45;&gt;p_r1_q1_q14_q16_+6</title>
<path fill="none" stroke="#424242" d="M1953.95,-119.29C1911.81,-92.86 1844.76,-56 1779.76,-56 544.9,-56 544.9,-56 544.9,-56 416.23,-56 353.05,-218.48 325.52,-321.77"/>
<polygon fill="#424242" stroke="#424242" points="322.16,-320.79 323.03,-331.35 328.93,-322.55 322.16,-320.79"/>
</g>
<!-- t_CODE NOK_6&#45;&gt;p_r6_q43 -->
<g id="edge20" class="edge">
<title>t_CODE NOK_6&#45;&gt;p_r6_q43</title>
<path fill="none" stroke="#424242" d="M2042.29,-182.9C2054.06,-193.24 2066.69,-204.35 2078.02,-214.31"/>
<polygon fill="#424242" stroke="#424242" points="2075.44,-216.7 2085.26,-220.68 2080.06,-211.44 2075.44,-216.7"/>
</g>
<!-- t_CODE OK_7&#45;&gt;p_r1_q1_q14_q16_+6 -->
<g id="edge23" class="edge">
<title>t_CODE OK_7&#45;&gt;p_r1_q1_q14_q16_+6</title>
<path fill="none" stroke="#424242" d="M1962.06,-645.81C1920.21,-671.77 1847.43,-706 1779.76,-706 544.9,-706 544.9,-706 544.9,-706 433.09,-706 364.59,-575.64 331.43,-486.44"/>
<polygon fill="#424242" stroke="#424242" points="334.78,-485.41 328.08,-477.2 328.2,-487.8 334.78,-485.41"/>
</g>
<!-- t_CODE OK_7&#45;&gt;p_r3_q16_q22 -->
<g id="edge24" class="edge">
<title>t_CODE OK_7&#45;&gt;p_r3_q16_q22</title>
<path fill="none" stroke="#424242" d="M1954.05,-609.77C1910.31,-602.16 1840.58,-592 1779.76,-592 1207.69,-592 1207.69,-592 1207.69,-592 1140.57,-592 1064.01,-583.8 1012,-576.98"/>
<polygon fill="#424242" stroke="#424242" points="1012.51,-573.52 1002.13,-575.66 1011.58,-580.46 1012.51,-573.52"/>
</g>
<!-- t_DELETE_8&#45;&gt;p_r1_q1_q14_q16_+6 -->
<g id="edge27" class="edge">
<title>t_DELETE_8&#45;&gt;p_r1_q1_q14_q16_+6</title>
<path fill="none" stroke="#424242" d="M1408.01,-241.54C1336.69,-237.21 1195.17,-224 1074.68,-224 544.9,-224 544.9,-224 544.9,-224 467.74,-224 401.26,-285.84 358.39,-337.29"/>
<polygon fill="#424242" stroke="#424242" points="355.76,-334.97 352.14,-344.93 361.18,-339.4 355.76,-334.97"/>
</g>
<!-- t_DELETE_8&#45;&gt;p_r2_q1_q14_q32 -->
<g id="edge28" class="edge">
<title>t_DELETE_8&#45;&gt;p_r2_q1_q14_q32</title>
<path fill="none" stroke="#424242" d="M1407.78,-260.26C1372.03,-272.38 1321.95,-287.6 1281.09,-298.88"/>
<polygon fill="#424242" stroke="#424242" points="1280.29,-295.47 1271.57,-301.47 1282.13,-302.22 1280.29,-295.47"/>
</g>
<!-- t_FIN_9&#45;&gt;p_r1_q1_q14_q16_+6 -->
<g id="edge31" class="edge">
<title>t_FIN_9&#45;&gt;p_r1_q1_q14_q16_+6</title>
<path fill="none" stroke="#424242" d="M1427.86,-401.63C1371.65,-420.87 1237.29,-448.01 1146.31,-394 1118.24,-377.34 1136.94,-348.85 1110.31,-330 1051.45,-288.34 1022.6,-302 950.49,-302 544.9,-302 544.9,-302 544.9,-302 484.77,-302 423.54,-331.7 378.28,-359.28"/>
<polygon fill="#424242" stroke="#424242" points="376.52,-356.26 369.87,-364.51 380.21,-362.2 376.52,-356.26"/>
</g>
<!-- t_FIN_9&#45;&gt;p_r4_q2 -->
<g id="edge32" class="edge">
<title>t_FIN_9&#45;&gt;p_r4_q2</title>
<path fill="none" stroke="#424242" d="M1482.51,-388.51C1518.55,-387.84 1583.6,-386.63 1627.2,-385.82"/>
<polygon fill="#424242" stroke="#424242" points="1627.16,-389.33 1637.1,-385.64 1627.03,-382.33 1627.16,-389.33"/>
</g>
<!-- t_NEW_10&#45;&gt;p_r1_q1_q14_q16_+6 -->
<g id="edge34" class="edge">
<title>t_NEW_10&#45;&gt;p_r1_q1_q14_q16_+6</title>
<path fill="none" stroke="#424242" d="M184.69,-246.55C204.96,-273.2 231.13,-307.6 253.9,-337.54"/>
<polygon fill="#424242" stroke="#424242" points="251.09,-339.63 259.93,-345.47 256.66,-335.39 251.09,-339.63"/>
</g>
<!-- t_NEW_10&#45;&gt;p_r2_q1_q14_q32 -->
<g id="edge35" class="edge">
<title>t_NEW_10&#45;&gt;p_r2_q1_q14_q32</title>
<path fill="none" stroke="#424242" d="M184.97,-157.67C235.05,-98.21 334.5,0 445.13,0 445.13,0 445.13,0 950.49,0 1075.72,0 1151.03,-151.32 1185.38,-243.87"/>
<polygon fill="#424242" stroke="#424242" points="1182.05,-244.94 1188.75,-253.15 1188.63,-242.55 1182.05,-244.94"/>
</g>
<!-- t_REJECT_11&#45;&gt;p_r1_q1_q14_q16_+6 -->
<g id="edge38" class="edge">
<title>t_REJECT_11&#45;&gt;p_r1_q1_q14_q16_+6</title>
<path fill="none" stroke="#424242" d="M1046.93,-660.14C992.31,-695.08 859.95,-762 739.68,-762 544.9,-762 544.9,-762 544.9,-762 485.71,-762 459.41,-769.11 415.88,-729 349.31,-667.67 323.52,-563.63 313.53,-489.95"/>
<polygon fill="#424242" stroke="#424242" points="317.04,-489.83 312.31,-480.36 310.1,-490.72 317.04,-489.83"/>
</g>
<!-- t_REJECT_11&#45;&gt;p_r3_q16_q22 -->
<g id="edge39" class="edge">
<title>t_REJECT_11&#45;&gt;p_r3_q16_q22</title>
<path fill="none" stroke="#424242" d="M1041.23,-627.46C1029.05,-620.96 1014.79,-612.78 1001.23,-604.56"/>
<polygon fill="#424242" stroke="#424242" points="1003.16,-601.64 992.81,-599.38 999.49,-607.6 1003.16,-601.64"/>
</g>
<!-- t_RELEASE_12&#45;&gt;p_r1_q1_q14_q16_+6 -->
<g id="edge42" class="edge">
<title>t_RELEASE_12&#45;&gt;p_r1_q1_q14_q16_+6</title>
<path fill="none" stroke="#424242" d="M1758.95,-361.06C1729.74,-326.09 1669.85,-254.59 1603.08,-214 1544.59,-178.44 1524.54,-168 1456.08,-168 544.9,-168 544.9,-168 544.9,-168 452.21,-168 384.2,-259.44 345.22,-328.78"/>
<polygon fill="#424242" stroke="#424242" points="342.17,-327.06 340.41,-337.51 348.3,-330.44 342.17,-327.06"/>
</g>
<!-- t_RELEASE_12&#45;&gt;p_r5_q3 -->
<g id="edge43" class="edge">
<title>t_RELEASE_12&#45;&gt;p_r5_q3</title>
<path fill="none" stroke="#424242" d="M1815.89,-382.73C1823.55,-383.1 1831.72,-383.49 1839.64,-383.87"/>
<polygon fill="#424242" stroke="#424242" points="1839.31,-387.36 1849.46,-384.35 1839.64,-380.37 1839.31,-387.36"/>
</g>
<!-- t_RELEASE_13&#45;&gt;p_r1_q1_q14_q16_+6 -->
<g id="edge46" class="edge">
<title>t_RELEASE_13&#45;&gt;p_r1_q1_q14_q16_+6</title>
<path fill="none" stroke="#424242" d="M1036.84,-495.23C975.96,-488.68 848.38,-470 739.68,-470 544.9,-470 544.9,-470 544.9,-470 490.05,-470 429.93,-455.7 383.88,-440.39"/>
<polygon fill="#424242" stroke="#424242" points="385.11,-437.11 374.52,-437.18 382.85,-443.73 385.11,-437.11"/>
</g>
<!-- t_RELEASE_13&#45;&gt;p_r5_q3 -->
<g id="edge47" class="edge">
<title>t_RELEASE_13&#45;&gt;p_r5_q3</title>
<path fill="none" stroke="#424242" d="M1110.74,-499.17C1178.13,-504.81 1327.77,-516 1454.08,-516 1454.08,-516 1454.08,-516 1673.61,-516 1747.34,-516 1816.81,-457.47 1854.54,-418.95"/>
<polygon fill="#424242" stroke="#424242" points="1856.66,-421.8 1861.05,-412.16 1851.61,-416.96 1856.66,-421.8"/>
</g>
<!-- t_REOPEN_14&#45;&gt;p_r1_q1_q14_q16_+6 -->
<g id="edge50" class="edge">
<title>t_REOPEN_14&#45;&gt;p_r1_q1_q14_q16_+6</title>
<path fill="none" stroke="#424242" d="M1039.6,-355.16C979.75,-358.55 849.52,-358 739.68,-358 544.9,-358 544.9,-358 544.9,-358 492.03,-358 434.26,-371.29 388.91,-383.88"/>
<polygon fill="#424242" stroke="#424242" points="388.09,-380.48 379.42,-386.56 389.99,-387.21 388.09,-380.48"/>
</g>
<!-- t_REOPEN_14&#45;&gt;p_r2_q1_q14_q32 -->
<g id="edge51" class="edge">
<title>t_REOPEN_14&#45;&gt;p_r2_q1_q14_q32</title>
<path fill="none" stroke="#424242" d="M1107.9,-341.01C1116.83,-338.59 1126.84,-335.88 1136.98,-333.14"/>
<polygon fill="#424242" stroke="#424242" points="1137.78,-336.55 1146.52,-330.56 1135.95,-329.79 1137.78,-336.55"/>
</g>
<!-- t_SET STATUS_15&#45;&gt;p_r1_q1_q14_q16_+6 -->
<g id="edge54" class="edge">
<title>t_SET STATUS_15&#45;&gt;p_r1_q1_q14_q16_+6</title>
<path fill="none" stroke="#424242" d="M2226.16,-608.88C2207.74,-673.86 2135.58,-874 1999.18,-874 544.9,-874 544.9,-874 544.9,-874 481.28,-874 456.6,-860.88 415.88,-812 339.59,-720.44 316.56,-579.78 309.79,-490.04"/>
<polygon fill="#424242" stroke="#424242" points="313.3,-490.06 309.11,-480.32 306.32,-490.54 313.3,-490.06"/>
</g>
<!-- t_SET STATUS_15&#45;&gt;p_r2_q1_q14_q32 -->
<g id="edge55" class="edge">
<title>t_SET STATUS_15&#45;&gt;p_r2_q1_q14_q32</title>
<path fill="none" stroke="#424242" d="M2224.93,-568.78C2204.64,-505.27 2132.49,-314 1999.18,-314 1671.61,-314 1671.61,-314 1671.61,-314 1534.14,-314 1373.66,-314 1282.63,-314"/>
<polygon fill="#424242" stroke="#424242" points="1282.85,-310.5 1272.85,-314 1282.85,-317.5 1282.85,-310.5"/>
</g>
<!-- t_STORNO_16&#45;&gt;p_r1_q1_q14_q16_+6 -->
<g id="edge58" class="edge">
<title>t_STORNO_16&#45;&gt;p_r1_q1_q14_q16_+6</title>
<path fill="none" stroke="#424242" d="M703.35,-601.17C658.53,-620.23 578.05,-642.31 512.38,-622 440.49,-599.77 383.03,-533.46 347.41,-479.87"/>
<polygon fill="#424242" stroke="#424242" points="350.44,-478.11 342.05,-471.64 344.57,-481.93 350.44,-478.11"/>
</g>
<!-- t_STORNO_16&#45;&gt;p_r3_q16_q22 -->
<g id="edge59" class="edge">
<title>t_STORNO_16&#45;&gt;p_r3_q16_q22</title>
<path fill="none" stroke="#424242" d="M862.35,-573.36C870.61,-572.85 878.7,-572.34 886.43,-571.86"/>
<polygon fill="#424242" stroke="#424242" points="886.56,-575.36 896.32,-571.25 886.13,-568.38 886.56,-575.36"/>
</g>
</g>
</svg>
