<?xml version="1.0" encoding="UTF-8" standalone="no"?>
<!DOCTYPE svg PUBLIC "-//W3C//DTD SVG 1.1//EN"
 "http://www.w3.org/Graphics/SVG/1.1/DTD/svg11.dtd">
<!-- Generated by graphviz version 14.1.2 (20260124.0452)
 -->
<!-- Title: efsm Pages: 1 -->
<svg width="8107pt" height="171pt"
 viewBox="0.00 0.00 8107.00 171.00" xmlns="http://www.w3.org/2000/svg" xmlns:xlink="http://www.w3.org/1999/xlink">
<g id="graph0" class="graph" transform="scale(2.08333 2.08333) rotate(0) translate(4 77.95)">
<title>efsm</title>
<polygon fill="white" stroke="none" points="-4,4 -4,-77.95 3887.53,-77.95 3887.53,4 -4,4"/>
<text xml:space="preserve" text-anchor="middle" x="1941.77" y="-57.6" font-family="Helvetica,sans-Serif" font-size="13.00">Sepsis — EFSM</text>
<!-- q0 -->
<g id="node1" class="node">
<title>q0</title>
<ellipse fill="#f3e5f5" stroke="#2e7d32" stroke-width="2.5" cx="55.72" cy="-24.45" rx="18" ry="18"/>
<text xml:space="preserve" text-anchor="middle" x="55.72" y="-20" font-family="Helvetica,sans-Serif" font-size="11.00">q0</text>
</g>
<!-- q1 -->
<g id="node2" class="node">
<title>q1</title>
<ellipse fill="#f3e5f5" stroke="#616161" cx="2103.22" cy="-24.45" rx="18" ry="18"/>
<text xml:space="preserve" text-anchor="middle" x="2103.22" y="-20" font-family="Helvetica,sans-Serif" font-size="11.00">q1</text>
</g>
<!-- q0&#45;&gt;q1 -->
<g id="edge2" class="edge">
<title>q0&#45;&gt;q1</title>
<path fill="none" stroke="#424242" d="M74.71,-24.45C261.27,-24.45 1840.31,-24.45 2073.5,-24.45"/>
<polygon fill="#424242" stroke="#424242" points="2073.47,-27.95 2083.47,-24.45 2073.47,-20.95 2073.47,-27.95"/>
<text xml:space="preserve" text-anchor="start" x="1042.35" y="-43.95" font-family="Helvetica,sans-Serif" font-weight="bold" font-size="10.00">ER Registration</text>
<text xml:space="preserve" text-anchor="start" x="1069.35" y="-34.9" font-family="Helvetica,sans-Serif" font-size="9.00" fill="#c62828">[true]</text>
<text xml:space="preserve" text-anchor="start" x="91.72" y="-25.9" font-family="Helvetica,sans-Serif" font-size="9.00" fill="#1565c0">Age&#39; := AgeDiagnosticArtAstrup&#39; := 0DiagnosticBlood&#39; := 1DiagnosticECG&#39; := 1DiagnosticIC&#39; := 1DiagnosticLacticAcid&#39; := 1DiagnosticLiquor&#39; := 0DiagnosticOther&#39; := 0DiagnosticSputum&#39; := 0DiagnosticUrinaryCulture&#39; := 0DiagnosticUrinarySediment&#39; := 0DiagnosticXthorax&#39; := 1DisfuncOrg&#39; := 0Hypotensie&#39; := 0Hypoxie&#39; := 0InfectionSuspected&#39; := 1Infusion&#39; := 1Oligurie&#39; := 0SIRSCritHeartRate&#39; := 1SIRSCritLeucos&#39; := 0SIRSCritTachypnea&#39; := 0SIRSCritTemperature&#39; := 1SIRSCriteria2OrMore&#39; := 1</text>
</g>
<!-- q2 -->
<g id="node7" class="node">
<title>q2</title>
<ellipse fill="#f3e5f5" stroke="#616161" cx="2221.72" cy="-24.45" rx="18" ry="18"/>
<text xml:space="preserve" text-anchor="middle" x="2221.72" y="-20" font-family="Helvetica,sans-Serif" font-size="11.00">q2</text>
</g>
<!-- q1&#45;&gt;q2 -->
<g id="edge3" class="edge">
<title>q1&#45;&gt;q2</title>
<path fill="none" stroke="#424242" d="M2121.66,-24.45C2140.3,-24.45 2170.14,-24.45 2192.2,-24.45"/>
<polygon fill="#424242" stroke="#424242" points="2192.03,-27.95 2202.03,-24.45 2192.03,-20.95 2192.03,-27.95"/>
<text xml:space="preserve" text-anchor="start" x="2139.22" y="-34.95" font-family="Helvetica,sans-Serif" font-weight="bold" font-size="10.00">ER Triage</text>
<text xml:space="preserve" text-anchor="start" x="2152.35" y="-25.9" font-family="Helvetica,sans-Serif" font-size="9.00" fill="#c62828">[true]</text>
</g>
<!-- q10 -->
<g id="node3" class="node">
<title>q10</title>
<ellipse fill="#f3e5f5" stroke="#616161" cx="3453.42" cy="-24.45" rx="20.45" ry="20.45"/>
<text xml:space="preserve" text-anchor="middle" x="3453.42" y="-20" font-family="Helvetica,sans-Serif" font-size="11.00">q10</text>
</g>
<!-- q11 -->
<g id="node4" class="node">
<title>q11</title>
<ellipse fill="#f3e5f5" stroke="#616161" cx="3606.81" cy="-24.45" rx="20.45" ry="20.45"/>
<text xml:space="preserve" text-anchor="middle" x="3606.81" y="-20" font-family="Helvetica,sans-Serif" font-size="11.00">q11</text>
</g>
<!-- q10&#45;&gt;q11 -->
<g id="edge12" class="edge">
<title>q10&#45;&gt;q11</title>
<path fill="none" stroke="#424242" d="M3474.21,-24.45C3499.82,-24.45 3544.73,-24.45 3574.87,-24.45"/>
<polygon fill="#424242" stroke="#424242" points="3574.5,-27.95 3584.5,-24.45 3574.5,-20.95 3574.5,-27.95"/>
<text xml:space="preserve" text-anchor="start" x="3519.24" y="-43.95" font-family="Helvetica,sans-Serif" font-weight="bold" font-size="10.00">CRP</text>
<text xml:space="preserve" text-anchor="start" x="3519.99" y="-34.9" font-family="Helvetica,sans-Serif" font-size="9.00" fill="#c62828">[true]</text>
<text xml:space="preserve" text-anchor="start" x="3491.86" y="-25.9" font-family="Helvetica,sans-Serif" font-size="9.00" fill="#1565c0">CRP&#39; := (+ &#45;2 CRP)</text>
</g>
<!-- q12 -->
<g id="node5" class="node">
<title>q12</title>
<ellipse fill="#f3e5f5" stroke="#616161" cx="3729.45" cy="-24.45" rx="20.45" ry="20.45"/>
<text xml:space="preserve" text-anchor="middle" x="3729.45" y="-20" font-family="Helvetica,sans-Serif" font-size="11.00">q12</text>
</g>
<!-- q11&#45;&gt;q12 -->
<g id="edge13" class="edge">
<title>q11&#45;&gt;q12</title>
<path fill="none" stroke="#424242" d="M3627.73,-24.45C3646.7,-24.45 3675.54,-24.45 3697.51,-24.45"/>
<polygon fill="#424242" stroke="#424242" points="3697.38,-27.95 3707.38,-24.45 3697.38,-20.95 3697.38,-27.95"/>
<text xml:space="preserve" text-anchor="start" x="3645.25" y="-34.95" font-family="Helvetica,sans-Serif" font-weight="bold" font-size="10.00">Release A</text>
<text xml:space="preserve" text-anchor="start" x="3658" y="-25.9" font-family="Helvetica,sans-Serif" font-size="9.00" fill="#c62828">[true]</text>
</g>
<!-- q13 -->
<g id="node6" class="node">
<title>q13</title>
<ellipse fill="#fff9c4" stroke="#616161" cx="3859.09" cy="-24.45" rx="20.45" ry="20.45"/>
<ellipse fill="none" stroke="#616161" cx="3859.09" cy="-24.45" rx="24.45" ry="24.45"/>
<text xml:space="preserve" text-anchor="middle" x="3859.09" y="-20" font-family="Helvetica,sans-Serif" font-size="11.00">q13</text>
</g>
<!-- q12&#45;&gt;q13 -->
<g id="edge14" class="edge">
<title>q12&#45;&gt;q13</title>
<path fill="none" stroke="#424242" d="M3750.39,-24.45C3769.83,-24.45 3799.78,-24.45 3823.17,-24.45"/>
<polygon fill="#424242" stroke="#424242" points="3822.87,-27.95 3832.87,-24.45 3822.87,-20.95 3822.87,-27.95"/>
<text xml:space="preserve" text-anchor="start" x="3767.89" y="-34.95" font-family="Helvetica,sans-Serif" font-weight="bold" font-size="10.00">Return ER</text>
<text xml:space="preserve" text-anchor="start" x="3782.14" y="-25.9" font-family="Helvetica,sans-Serif" font-size="9.00" fill="#c62828">[true]</text>
</g>
<!-- q3 -->
<g id="node8" class="node">
<title>q3</title>
<ellipse fill="#f3e5f5" stroke="#616161" cx="2374.72" cy="-24.45" rx="18" ry="18"/>
<text xml:space="preserve" text-anchor="middle" x="2374.72" y="-20" font-family="Helvetica,sans-Serif" font-size="11.00">q3</text>
</g>
<!-- q2&#45;&gt;q3 -->
<g id="edge4" class="edge">
<title>q2&#45;&gt;q3</title>
<path fill="none" stroke="#424242" d="M2240.04,-24.45C2265.76,-24.45 2314.31,-24.45 2345.29,-24.45"/>
<polygon fill="#424242" stroke="#424242" points="2345.09,-27.95 2355.09,-24.45 2345.09,-20.95 2345.09,-27.95"/>
<text xml:space="preserve" text-anchor="start" x="2257.72" y="-34.95" font-family="Helvetica,sans-Serif" font-weight="bold" font-size="10.00">ER Sepsis Triage</text>
<text xml:space="preserve" text-anchor="start" x="2288.1" y="-25.9" font-family="Helvetica,sans-Serif" font-size="9.00" fill="#c62828">[true]</text>
</g>
<!-- q4 -->
<g id="node9" class="node">
<title>q4</title>
<ellipse fill="#f3e5f5" stroke="#616161" cx="2499.22" cy="-24.45" rx="18" ry="18"/>
<text xml:space="preserve" text-anchor="middle" x="2499.22" y="-20" font-family="Helvetica,sans-Serif" font-size="11.00">q4</text>
</g>
<!-- q3&#45;&gt;q4 -->
<g id="edge5" class="edge">
<title>q3&#45;&gt;q4</title>
<path fill="none" stroke="#424242" d="M2393.01,-24.45C2412.89,-24.45 2445.83,-24.45 2469.56,-24.45"/>
<polygon fill="#424242" stroke="#424242" points="2469.5,-27.95 2479.5,-24.45 2469.5,-20.95 2469.5,-27.95"/>
<text xml:space="preserve" text-anchor="start" x="2426.1" y="-43.95" font-family="Helvetica,sans-Serif" font-weight="bold" font-size="10.00">CRP</text>
<text xml:space="preserve" text-anchor="start" x="2426.85" y="-34.9" font-family="Helvetica,sans-Serif" font-size="9.00" fill="#c62828">[true]</text>
<text xml:space="preserve" text-anchor="start" x="2410.72" y="-25.9" font-family="Helvetica,sans-Serif" font-size="9.00" fill="#1565c0">CRP&#39; := CRP</text>
</g>
<!-- q5 -->
<g id="node10" class="node">
<title>q5</title>
<ellipse fill="#f3e5f5" stroke="#616161" cx="2668.72" cy="-24.45" rx="18" ry="18"/>
<text xml:space="preserve" text-anchor="middle" x="2668.72" y="-20" font-family="Helvetica,sans-Serif" font-size="11.00">q5</text>
</g>
<!-- q4&#45;&gt;q5 -->
<g id="edge6" class="edge">
<title>q4&#45;&gt;q5</title>
<path fill="none" stroke="#424242" d="M2517.51,-24.45C2546.23,-24.45 2604.02,-24.45 2638.95,-24.45"/>
<polygon fill="#424242" stroke="#424242" points="2638.76,-27.95 2648.76,-24.45 2638.76,-20.95 2638.76,-27.95"/>
<text xml:space="preserve" text-anchor="start" x="2559.22" y="-43.95" font-family="Helvetica,sans-Serif" font-weight="bold" font-size="10.00">LacticAcid</text>
<text xml:space="preserve" text-anchor="start" x="2573.85" y="-34.9" font-family="Helvetica,sans-Serif" font-size="9.00" fill="#c62828">[true]</text>
<text xml:space="preserve" text-anchor="start" x="2535.22" y="-25.9" font-family="Helvetica,sans-Serif" font-size="9.00" fill="#1565c0">LacticAcid&#39; := LacticAcid</text>
</g>
<!-- q6 -->
<g id="node11" class="node">
<title>q6</title>
<ellipse fill="#f3e5f5" stroke="#616161" cx="2847.22" cy="-24.45" rx="18" ry="18"/>
<text xml:space="preserve" text-anchor="middle" x="2847.22" y="-20" font-family="Helvetica,sans-Serif" font-size="11.00">q6</text>
</g>
<!-- q5&#45;&gt;q6 -->
<g id="edge7" class="edge">
<title>q5&#45;&gt;q6</title>
<path fill="none" stroke="#424242" d="M2686.96,-24.45C2717.28,-24.45 2780.41,-24.45 2817.44,-24.45"/>
<polygon fill="#424242" stroke="#424242" points="2817.39,-27.95 2827.39,-24.45 2817.39,-20.95 2817.39,-27.95"/>
<text xml:space="preserve" text-anchor="start" x="2731.72" y="-43.95" font-family="Helvetica,sans-Serif" font-weight="bold" font-size="10.00">Leucocytes</text>
<text xml:space="preserve" text-anchor="start" x="2747.85" y="-34.9" font-family="Helvetica,sans-Serif" font-size="9.00" fill="#c62828">[true]</text>
<text xml:space="preserve" text-anchor="start" x="2704.72" y="-25.9" font-family="Helvetica,sans-Serif" font-size="9.00" fill="#1565c0">Leucocytes&#39; := Leucocytes</text>
</g>
<!-- q7 -->
<g id="node12" class="node">
<title>q7</title>
<ellipse fill="#f3e5f5" stroke="#616161" cx="2981.47" cy="-24.45" rx="18" ry="18"/>
<text xml:space="preserve" text-anchor="middle" x="2981.47" y="-20" font-family="Helvetica,sans-Serif" font-size="11.00">q7</text>
</g>
<!-- q6&#45;&gt;q7 -->
<g id="edge8" class="edge">
<title>q6&#45;&gt;q7</title>
<path fill="none" stroke="#424242" d="M2865.51,-24.45C2887.39,-24.45 2925.39,-24.45 2951.68,-24.45"/>
<polygon fill="#424242" stroke="#424242" points="2951.66,-27.95 2961.66,-24.45 2951.66,-20.95 2951.66,-27.95"/>
<text xml:space="preserve" text-anchor="start" x="2883.22" y="-34.95" font-family="Helvetica,sans-Serif" font-weight="bold" font-size="10.00">IV Antibiotics</text>
<text xml:space="preserve" text-anchor="start" x="2904.22" y="-25.9" font-family="Helvetica,sans-Serif" font-size="9.00" fill="#c62828">[true]</text>
</g>
<!-- q8 -->
<g id="node13" class="node">
<title>q8</title>
<ellipse fill="#f3e5f5" stroke="#616161" cx="3122.47" cy="-24.45" rx="18" ry="18"/>
<text xml:space="preserve" text-anchor="middle" x="3122.47" y="-20" font-family="Helvetica,sans-Serif" font-size="11.00">q8</text>
</g>
<!-- q7&#45;&gt;q8 -->
<g id="edge9" class="edge">
<title>q7&#45;&gt;q8</title>
<path fill="none" stroke="#424242" d="M2999.79,-24.45C3023.12,-24.45 3064.94,-24.45 3092.94,-24.45"/>
<polygon fill="#424242" stroke="#424242" points="3092.85,-27.95 3102.85,-24.45 3092.85,-20.95 3092.85,-27.95"/>
<text xml:space="preserve" text-anchor="start" x="3017.47" y="-34.95" font-family="Helvetica,sans-Serif" font-weight="bold" font-size="10.00">Admission NC</text>
<text xml:space="preserve" text-anchor="start" x="3041.85" y="-25.9" font-family="Helvetica,sans-Serif" font-size="9.00" fill="#c62828">[true]</text>
</g>
<!-- q9 -->
<g id="node14" class="node">
<title>q9</title>
<ellipse fill="#f3e5f5" stroke="#616161" cx="3237.22" cy="-24.45" rx="18" ry="18"/>
<text xml:space="preserve" text-anchor="middle" x="3237.22" y="-20" font-family="Helvetica,sans-Serif" font-size="11.00">q9</text>
</g>
<!-- q8&#45;&gt;q9 -->
<g id="edge10" class="edge">
<title>q8&#45;&gt;q9</title>
<path fill="none" stroke="#424242" d="M3140.59,-24.45C3158.39,-24.45 3186.55,-24.45 3207.71,-24.45"/>
<polygon fill="#424242" stroke="#424242" points="3207.42,-27.95 3217.42,-24.45 3207.42,-20.95 3207.42,-27.95"/>
<text xml:space="preserve" text-anchor="start" x="3158.47" y="-34.95" font-family="Helvetica,sans-Serif" font-weight="bold" font-size="10.00">IV Liquid</text>
<text xml:space="preserve" text-anchor="start" x="3169.72" y="-25.9" font-family="Helvetica,sans-Serif" font-size="9.00" fill="#c62828">[true]</text>
</g>
<!-- q9&#45;&gt;q10 -->
<g id="edge11" class="edge">
<title>q9&#45;&gt;q10</title>
<path fill="none" stroke="#424242" d="M3255.39,-24.45C3291.47,-24.45 3375.64,-24.45 3421.42,-24.45"/>
<polygon fill="#424242" stroke="#424242" points="3421.2,-27.95 3431.2,-24.45 3421.2,-20.95 3421.2,-27.95"/>
<text xml:space="preserve" text-anchor="start" x="3317.85" y="-43.95" font-family="Helvetica,sans-Serif" font-weight="bold" font-size="10.00">Leucocytes</text>
<text xml:space="preserve" text-anchor="start" x="3333.97" y="-34.9" font-family="Helvetica,sans-Serif" font-size="9.00" fill="#c62828">[true]</text>
<text xml:space="preserve" text-anchor="start" x="3273.22" y="-25.9" font-family="Helvetica,sans-Serif" font-size="9.00" fill="#1565c0">Leucocytes&#39; := (+ &#45;11/2 Leucocytes)</text>
</g>
<!-- __start__ -->
<g id="node15" class="node">
<title>__start__</title>
</g>
<!-- __start__&#45;&gt;q0 -->
<g id="edge1" class="edge">
<title>__start__&#45;&gt;q0</title>
<path fill="none" stroke="#424242" d="M0.87,-24.45C2.38,-24.45 14.67,-24.45 27.12,-24.45"/>
<polygon fill="#424242" stroke="#424242" points="26.99,-27.25 34.99,-24.45 26.99,-21.65 26.99,-27.25"/>
</g>
</g>
</svg>
