<?xml version="1.0" encoding="UTF-8" standalone="no"?>
<!DOCTYPE svg PUBLIC "-//W3C//DTD SVG 1.1//EN"
 "http://www.w3.org/Graphics/SVG/1.1/DTD/svg11.dtd">
<!-- Generated by graphviz version 14.1.2 (20260124.0452)
 -->
<!-- Title: dpn Pages: 1 -->
<svg width="5117pt" height="2727pt"
 viewBox="0.00 0.00 5117.00 2727.00" xmlns="http://www.w3.org/2000/svg" xmlns:xlink="http://www.w3.org/1999/xlink">
<g id="graph0" class="graph" transform="scale(2.08333 2.08333) rotate(0) translate(4 1304.75)">
<title>dpn</title>
<polygon fill="white" stroke="none" points="-4,4 -4,-1304.75 2452.1,-1304.75 2452.1,4 -4,4"/>
<text xml:space="preserve" text-anchor="middle" x="1224.05" y="-1284.4" font-family="Helvetica,sans-Serif" font-size="13.00">Road Fine — DPN</text>
<!-- p_r0_q0 -->
<g id="node1" class="node">
<title>p_r0_q0</title>
<ellipse fill="#e8f5e9" stroke="#2e7d32" stroke-width="2.5" cx="33.52" cy="-480.62" rx="33.52" ry="33.52"/>
<text xml:space="preserve" text-anchor="middle" x="33.52" y="-476.18" font-family="Helvetica,sans-Serif" font-size="11.00">p_r0_q0</text>
</g>
<!-- t_Create Fine_9 -->
<g id="node11" class="node">
<title>t_Create Fine_9</title>
<path fill="#e3f2fd" stroke="#1565c0" stroke-width="1.2" d="M225.05,-507.88C225.05,-507.88 115.05,-507.88 115.05,-507.88 109.05,-507.88 103.05,-501.88 103.05,-495.88 103.05,-495.88 103.05,-465.38 103.05,-465.38 103.05,-459.38 109.05,-453.38 115.05,-453.38 115.05,-453.38 225.05,-453.38 225.05,-453.38 231.05,-453.38 237.05,-459.38 237.05,-465.38 237.05,-465.38 237.05,-495.88 237.05,-495.88 237.05,-501.88 231.05,-507.88 225.05,-507.88"/>
<text xml:space="preserve" text-anchor="start" x="140.05" y="-492.43" font-family="Helvetica,sans-Serif" font-weight="bold" font-size="11.00">Create Fine</text>
<text xml:space="preserve" text-anchor="start" x="158.8" y="-476.38" font-family="Helvetica,sans-Serif" font-size="10.00" fill="#c62828">[true]</text>
<text xml:space="preserve" text-anchor="start" x="113.05" y="-461.12" font-family="Helvetica,sans-Serif" font-size="10.00" fill="#1565c0">totalPaymentAmount&#39; := 0</text>
<polygon fill="#1565c0" stroke="#1565c0" points="111.05,-487.88 111.05,-487.88 229.05,-487.88 229.05,-487.88 111.05,-487.88"/>
</g>
<!-- p_r0_q0&#45;&gt;t_Create Fine_9 -->
<g id="edge20" class="edge">
<title>p_r0_q0&#45;&gt;t_Create Fine_9</title>
<path fill="none" stroke="#424242" d="M68.12,-480.62C75.26,-480.62 83.09,-480.62 91.12,-480.62"/>
<polygon fill="#424242" stroke="#424242" points="91.05,-484.13 101.05,-480.63 91.05,-477.13 91.05,-484.13"/>
</g>
<!-- p_r1_q1_q10_q11_+14 -->
<g id="node2" class="node">
<title>p_r1_q1_q10_q11_+14</title>
<ellipse fill="#e8f5e9" stroke="#616161" cx="350.32" cy="-670.62" rx="77.27" ry="77.27"/>
<text xml:space="preserve" text-anchor="middle" x="350.32" y="-666.17" font-family="Helvetica,sans-Serif" font-size="11.00">p_r1_q1_q10_q11_+14</text>
</g>
<!-- t_Add penalty_1 -->
<g id="node6" class="node">
<title>t_Add penalty_1</title>
<path fill="#e3f2fd" stroke="#1565c0" stroke-width="1.2" d="M1871.96,-1217.25C1871.96,-1217.25 1812.96,-1217.25 1812.96,-1217.25 1806.96,-1217.25 1800.96,-1211.25 1800.96,-1205.25 1800.96,-1205.25 1800.96,-1190 1800.96,-1190 1800.96,-1184 1806.96,-1178 1812.96,-1178 1812.96,-1178 1871.96,-1178 1871.96,-1178 1877.96,-1178 1883.96,-1184 1883.96,-1190 1883.96,-1190 1883.96,-1205.25 1883.96,-1205.25 1883.96,-1211.25 1877.96,-1217.25 1871.96,-1217.25"/>
<text xml:space="preserve" text-anchor="start" x="1810.96" y="-1201.8" font-family="Helvetica,sans-Serif" font-weight="bold" font-size="11.00">Add penalty</text>
<text xml:space="preserve" text-anchor="start" x="1831.21" y="-1185.75" font-family="Helvetica,sans-Serif" font-size="10.00" fill="#c62828">[true]</text>
<polygon fill="#1565c0" stroke="#1565c0" points="1808.96,-1197.25 1808.96,-1197.25 1875.96,-1197.25 1875.96,-1197.25 1808.96,-1197.25"/>
</g>
<!-- p_r1_q1_q10_q11_+14&#45;&gt;t_Add penalty_1 -->
<g id="edge1" class="edge">
<title>p_r1_q1_q10_q11_+14&#45;&gt;t_Add penalty_1</title>
<path fill="none" stroke="#424242" d="M362.07,-747.15C378.87,-861.24 414.58,-1068.32 463.59,-1124.62 523.14,-1193.03 564.57,-1194.62 655.26,-1194.62 655.26,-1194.62 655.26,-1194.62 1069.8,-1194.62 1340.4,-1194.62 1664.37,-1190.89 1789.03,-1193.73"/>
<polygon fill="#424242" stroke="#424242" points="1788.87,-1197.23 1798.96,-1193.99 1789.05,-1190.23 1788.87,-1197.23"/>
</g>
<!-- t_Add penalty_2 -->
<g id="node7" class="node">
<title>t_Add penalty_2</title>
<path fill="#e3f2fd" stroke="#1565c0" stroke-width="1.2" d="M534.59,-690.25C534.59,-690.25 475.59,-690.25 475.59,-690.25 469.59,-690.25 463.59,-684.25 463.59,-678.25 463.59,-678.25 463.59,-663 463.59,-663 463.59,-657 469.59,-651 475.59,-651 475.59,-651 534.59,-651 534.59,-651 540.59,-651 546.59,-657 546.59,-663 546.59,-663 546.59,-678.25 546.59,-678.25 546.59,-684.25 540.59,-690.25 534.59,-690.25"/>
<text xml:space="preserve" text-anchor="start" x="473.59" y="-674.8" font-family="Helvetica,sans-Serif" font-weight="bold" font-size="11.00">Add penalty</text>
<text xml:space="preserve" text-anchor="start" x="493.84" y="-658.75" font-family="Helvetica,sans-Serif" font-size="10.00" fill="#c62828">[true]</text>
<polygon fill="#1565c0" stroke="#1565c0" points="471.59,-670.25 471.59,-670.25 538.59,-670.25 538.59,-670.25 471.59,-670.25"/>
</g>
<!-- p_r1_q1_q10_q11_+14&#45;&gt;t_Add penalty_2 -->
<g id="edge5" class="edge">
<title>p_r1_q1_q10_q11_+14&#45;&gt;t_Add penalty_2</title>
<path fill="none" stroke="#424242" d="M427.71,-663.88C435.83,-663.88 443.95,-663.98 451.71,-664.18"/>
<polygon fill="#424242" stroke="#424242" points="451.53,-667.68 461.64,-664.52 451.76,-660.68 451.53,-667.68"/>
</g>
<!-- t_Add penalty_3 -->
<g id="node8" class="node">
<title>t_Add penalty_3</title>
<path fill="#e3f2fd" stroke="#1565c0" stroke-width="1.2" d="M1871.96,-1044.25C1871.96,-1044.25 1812.96,-1044.25 1812.96,-1044.25 1806.96,-1044.25 1800.96,-1038.25 1800.96,-1032.25 1800.96,-1032.25 1800.96,-1017 1800.96,-1017 1800.96,-1011 1806.96,-1005 1812.96,-1005 1812.96,-1005 1871.96,-1005 1871.96,-1005 1877.96,-1005 1883.96,-1011 1883.96,-1017 1883.96,-1017 1883.96,-1032.25 1883.96,-1032.25 1883.96,-1038.25 1877.96,-1044.25 1871.96,-1044.25"/>
<text xml:space="preserve" text-anchor="start" x="1810.96" y="-1028.8" font-family="Helvetica,sans-Serif" font-weight="bold" font-size="11.00">Add penalty</text>
<text xml:space="preserve" text-anchor="start" x="1831.21" y="-1012.75" font-family="Helvetica,sans-Serif" font-size="10.00" fill="#c62828">[true]</text>
<polygon fill="#1565c0" stroke="#1565c0" points="1808.96,-1024.25 1808.96,-1024.25 1875.96,-1024.25 1875.96,-1024.25 1808.96,-1024.25"/>
</g>
<!-- p_r1_q1_q10_q11_+14&#45;&gt;t_Add penalty_3 -->
<g id="edge9" class="edge">
<title>p_r1_q1_q10_q11_+14&#45;&gt;t_Add penalty_3</title>
<path fill="none" stroke="#424242" d="M365.61,-746.61C380.45,-809.76 409.41,-898.56 463.59,-958.62 527.41,-1029.37 559.98,-1054.62 655.26,-1054.62 655.26,-1054.62 655.26,-1054.62 1069.8,-1054.62 1340.74,-1054.62 1664.51,-1030.35 1789.08,-1024.52"/>
<polygon fill="#424242" stroke="#424242" points="1789.16,-1028.02 1798.99,-1024.08 1788.85,-1021.03 1789.16,-1028.02"/>
</g>
<!-- t_Appeal to Judge_7 -->
<g id="node9" class="node">
<title>t_Appeal to Judge_7</title>
<path fill="#e3f2fd" stroke="#1565c0" stroke-width="1.2" d="M1109.55,-783.88C1109.55,-783.88 1028.05,-783.88 1028.05,-783.88 1022.05,-783.88 1016.05,-777.88 1016.05,-771.88 1016.05,-771.88 1016.05,-741.38 1016.05,-741.38 1016.05,-735.38 1022.05,-729.38 1028.05,-729.38 1028.05,-729.38 1109.55,-729.38 1109.55,-729.38 1115.55,-729.38 1121.55,-735.38 1121.55,-741.38 1121.55,-741.38 1121.55,-771.88 1121.55,-771.88 1121.55,-777.88 1115.55,-783.88 1109.55,-783.88"/>
<text xml:space="preserve" text-anchor="start" x="1026.05" y="-768.42" font-family="Helvetica,sans-Serif" font-weight="bold" font-size="11.00">Appeal to Judge</text>
<text xml:space="preserve" text-anchor="start" x="1057.55" y="-752.38" font-family="Helvetica,sans-Serif" font-size="10.00" fill="#c62828">[true]</text>
<text xml:space="preserve" text-anchor="start" x="1037.67" y="-737.12" font-family="Helvetica,sans-Serif" font-size="10.00" fill="#1565c0">matricola&#39; := 0</text>
<polygon fill="#1565c0" stroke="#1565c0" points="1024.05,-763.88 1024.05,-763.88 1113.55,-763.88 1113.55,-763.88 1024.05,-763.88"/>
</g>
<!-- p_r1_q1_q10_q11_+14&#45;&gt;t_Appeal to Judge_7 -->
<g id="edge13" class="edge">
<title>p_r1_q1_q10_q11_+14&#45;&gt;t_Appeal to Judge_7</title>
<path fill="none" stroke="#424242" d="M421.16,-702.1C434.84,-708.24 449.37,-713.89 463.59,-717.62 655.41,-767.94 892.96,-760.35 1004.43,-756.52"/>
<polygon fill="#424242" stroke="#424242" points="1004.4,-760.02 1014.27,-756.18 1004.16,-753.03 1004.4,-760.02"/>
</g>
<!-- t_Appeal to Judge_8 -->
<g id="node10" class="node">
<title>t_Appeal to Judge_8</title>
<path fill="#e3f2fd" stroke="#1565c0" stroke-width="1.2" d="M1883.21,-907.88C1883.21,-907.88 1801.71,-907.88 1801.71,-907.88 1795.71,-907.88 1789.71,-901.88 1789.71,-895.88 1789.71,-895.88 1789.71,-865.38 1789.71,-865.38 1789.71,-859.38 1795.71,-853.38 1801.71,-853.38 1801.71,-853.38 1883.21,-853.38 1883.21,-853.38 1889.21,-853.38 1895.21,-859.38 1895.21,-865.38 1895.21,-865.38 1895.21,-895.88 1895.21,-895.88 1895.21,-901.88 1889.21,-907.88 1883.21,-907.88"/>
<text xml:space="preserve" text-anchor="start" x="1799.71" y="-892.42" font-family="Helvetica,sans-Serif" font-weight="bold" font-size="11.00">Appeal to Judge</text>
<text xml:space="preserve" text-anchor="start" x="1831.21" y="-876.38" font-family="Helvetica,sans-Serif" font-size="10.00" fill="#c62828">[true]</text>
<text xml:space="preserve" text-anchor="start" x="1811.33" y="-861.12" font-family="Helvetica,sans-Serif" font-size="10.00" fill="#1565c0">matricola&#39; := 0</text>
<polygon fill="#1565c0" stroke="#1565c0" points="1797.71,-887.88 1797.71,-887.88 1887.21,-887.88 1887.21,-887.88 1797.71,-887.88"/>
</g>
<!-- p_r1_q1_q10_q11_+14&#45;&gt;t_Appeal to Judge_8 -->
<g id="edge16" class="edge">
<title>p_r1_q1_q10_q11_+14&#45;&gt;t_Appeal to Judge_8</title>
<path fill="none" stroke="#424242" d="M375.09,-744.23C392.94,-792.73 421.61,-854.99 463.59,-898.62 530.21,-967.86 559.18,-998.62 655.26,-998.62 655.26,-998.62 655.26,-998.62 1069.8,-998.62 1336.29,-998.62 1647.76,-923.97 1778.58,-893.19"/>
<polygon fill="#424242" stroke="#424242" points="1779.14,-896.65 1788.08,-890.96 1777.54,-889.84 1779.14,-896.65"/>
</g>
<!-- t_Insert Date Appeal to Prefecture_10 -->
<g id="node12" class="node">
<title>t_Insert Date Appeal to Prefecture_10</title>
<path fill="#e3f2fd" stroke="#1565c0" stroke-width="1.2" d="M2133.33,-677.25C2133.33,-677.25 1551.58,-677.25 1551.58,-677.25 1545.58,-677.25 1539.58,-671.25 1539.58,-665.25 1539.58,-665.25 1539.58,-650 1539.58,-650 1539.58,-644 1545.58,-638 1551.58,-638 1551.58,-638 2133.33,-638 2133.33,-638 2139.33,-638 2145.33,-644 2145.33,-650 2145.33,-650 2145.33,-665.25 2145.33,-665.25 2145.33,-671.25 2139.33,-677.25 2133.33,-677.25"/>
<text xml:space="preserve" text-anchor="start" x="1758.83" y="-661.8" font-family="Helvetica,sans-Serif" font-weight="bold" font-size="11.00">Insert Date Appeal to Prefecture</text>
<text xml:space="preserve" text-anchor="start" x="1549.58" y="-645.75" font-family="Helvetica,sans-Serif" font-size="10.00" fill="#c62828">[(or (=&gt; (&gt;= (+ 71/2 (* &#45;1 amount)) 0) (&gt;= (+ 1671/200 (* &#45;1 expense)) 0)) &#160;&#160;&#160;(and (&gt;= (+ 146 (* &#45;1 article)) 0) (&lt; (+ 291/2 (* &#45;1 article)) 0)))]</text>
<polygon fill="#1565c0" stroke="#1565c0" points="1547.58,-657.25 1547.58,-657.25 2137.33,-657.25 2137.33,-657.25 1547.58,-657.25"/>
</g>
<!-- p_r1_q1_q10_q11_+14&#45;&gt;t_Insert Date Appeal to Prefecture_10 -->
<g id="edge23" class="edge">
<title>p_r1_q1_q10_q11_+14&#45;&gt;t_Insert Date Appeal to Prefecture_10</title>
<path fill="none" stroke="#424242" d="M389.6,-737.73C438.87,-818.35 532.91,-942.62 655.26,-942.62 655.26,-942.62 655.26,-942.62 1069.8,-942.62 1204.54,-942.62 1243.1,-954.94 1371.67,-914.62 1460.17,-886.88 1692.61,-743.05 1793.54,-683.37"/>
<polygon fill="#424242" stroke="#424242" points="1795.03,-686.55 1801.87,-678.46 1791.48,-680.52 1795.03,-686.55"/>
</g>
<!-- t_Insert Date Appeal to Prefecture_11 -->
<g id="node13" class="node">
<title>t_Insert Date Appeal to Prefecture_11</title>
<path fill="#e3f2fd" stroke="#1565c0" stroke-width="1.2" d="M1359.67,-349.25C1359.67,-349.25 777.92,-349.25 777.92,-349.25 771.92,-349.25 765.92,-343.25 765.92,-337.25 765.92,-337.25 765.92,-322 765.92,-322 765.92,-316 771.92,-310 777.92,-310 777.92,-310 1359.67,-310 1359.67,-310 1365.67,-310 1371.67,-316 1371.67,-322 1371.67,-322 1371.67,-337.25 1371.67,-337.25 1371.67,-343.25 1365.67,-349.25 1359.67,-349.25"/>
<text xml:space="preserve" text-anchor="start" x="985.17" y="-333.8" font-family="Helvetica,sans-Serif" font-weight="bold" font-size="11.00">Insert Date Appeal to Prefecture</text>
<text xml:space="preserve" text-anchor="start" x="775.92" y="-317.75" font-family="Helvetica,sans-Serif" font-size="10.00" fill="#c62828">[(or (=&gt; (&gt;= (+ 71/2 (* &#45;1 amount)) 0) (&gt;= (+ 1671/200 (* &#45;1 expense)) 0)) &#160;&#160;&#160;(and (&gt;= (+ 146 (* &#45;1 article)) 0) (&lt; (+ 291/2 (* &#45;1 article)) 0)))]</text>
<polygon fill="#1565c0" stroke="#1565c0" points="773.92,-329.25 773.92,-329.25 1363.67,-329.25 1363.67,-329.25 773.92,-329.25"/>
</g>
<!-- p_r1_q1_q10_q11_+14&#45;&gt;t_Insert Date Appeal to Prefecture_11 -->
<g id="edge27" class="edge">
<title>p_r1_q1_q10_q11_+14&#45;&gt;t_Insert Date Appeal to Prefecture_11</title>
<path fill="none" stroke="#424242" d="M364.41,-594.3C379.02,-533.04 408.28,-449.03 463.59,-396.62 507.04,-355.47 630.21,-335.85 754.11,-327.55"/>
<polygon fill="#424242" stroke="#424242" points="754.06,-331.06 763.82,-326.92 753.61,-324.07 754.06,-331.06"/>
</g>
<!-- t_Insert Fine Notification_12 -->
<g id="node14" class="node">
<title>t_Insert Fine Notification_12</title>
<path fill="#e3f2fd" stroke="#1565c0" stroke-width="1.2" d="M1126.42,-292.25C1126.42,-292.25 1011.17,-292.25 1011.17,-292.25 1005.17,-292.25 999.17,-286.25 999.17,-280.25 999.17,-280.25 999.17,-265 999.17,-265 999.17,-259 1005.17,-253 1011.17,-253 1011.17,-253 1126.42,-253 1126.42,-253 1132.42,-253 1138.42,-259 1138.42,-265 1138.42,-265 1138.42,-280.25 1138.42,-280.25 1138.42,-286.25 1132.42,-292.25 1126.42,-292.25"/>
<text xml:space="preserve" text-anchor="start" x="1009.17" y="-276.8" font-family="Helvetica,sans-Serif" font-weight="bold" font-size="11.00">Insert Fine Notification</text>
<text xml:space="preserve" text-anchor="start" x="1057.55" y="-260.75" font-family="Helvetica,sans-Serif" font-size="10.00" fill="#c62828">[true]</text>
<polygon fill="#1565c0" stroke="#1565c0" points="1007.17,-272.25 1007.17,-272.25 1130.42,-272.25 1130.42,-272.25 1007.17,-272.25"/>
</g>
<!-- p_r1_q1_q10_q11_+14&#45;&gt;t_Insert Fine Notification_12 -->
<g id="edge31" class="edge">
<title>p_r1_q1_q10_q11_+14&#45;&gt;t_Insert Fine Notification_12</title>
<path fill="none" stroke="#424242" d="M357.92,-593.24C368.34,-520.6 395.08,-414.47 463.59,-353.62 610.23,-223.4 860.28,-234.35 987.84,-253.86"/>
<polygon fill="#424242" stroke="#424242" points="987.12,-257.29 997.55,-255.41 988.22,-250.38 987.12,-257.29"/>
</g>
<!-- t_Insert Fine Notification_13 -->
<g id="node15" class="node">
<title>t_Insert Fine Notification_13</title>
<path fill="#e3f2fd" stroke="#1565c0" stroke-width="1.2" d="M1900.08,-409.25C1900.08,-409.25 1784.83,-409.25 1784.83,-409.25 1778.83,-409.25 1772.83,-403.25 1772.83,-397.25 1772.83,-397.25 1772.83,-382 1772.83,-382 1772.83,-376 1778.83,-370 1784.83,-370 1784.83,-370 1900.08,-370 1900.08,-370 1906.08,-370 1912.08,-376 1912.08,-382 1912.08,-382 1912.08,-397.25 1912.08,-397.25 1912.08,-403.25 1906.08,-409.25 1900.08,-409.25"/>
<text xml:space="preserve" text-anchor="start" x="1782.83" y="-393.8" font-family="Helvetica,sans-Serif" font-weight="bold" font-size="11.00">Insert Fine Notification</text>
<text xml:space="preserve" text-anchor="start" x="1831.21" y="-377.75" font-family="Helvetica,sans-Serif" font-size="10.00" fill="#c62828">[true]</text>
<polygon fill="#1565c0" stroke="#1565c0" points="1780.83,-389.25 1780.83,-389.25 1904.08,-389.25 1904.08,-389.25 1780.83,-389.25"/>
</g>
<!-- p_r1_q1_q10_q11_+14&#45;&gt;t_Insert Fine Notification_13 -->
<g id="edge35" class="edge">
<title>p_r1_q1_q10_q11_+14&#45;&gt;t_Insert Fine Notification_13</title>
<path fill="none" stroke="#424242" d="M352.98,-592.91C358.61,-497.53 380.66,-335.56 463.59,-228.62 523.25,-151.7 557.91,-122.62 655.26,-122.62 655.26,-122.62 655.26,-122.62 1069.8,-122.62 1204.54,-122.62 1242.37,-112.71 1371.67,-150.62 1452.32,-174.28 1464.28,-200.29 1539.58,-237.62 1631.73,-283.3 1741.09,-334.32 1799.58,-364.35"/>
<polygon fill="#424242" stroke="#424242" points="1797.72,-367.33 1808.21,-368.83 1800.95,-361.12 1797.72,-367.33"/>
</g>
<!-- t_Payment_15 -->
<g id="node16" class="node">
<title>t_Payment_15</title>
<path fill="#e3f2fd" stroke="#1565c0" stroke-width="1.2" d="M1192.05,-1166.5C1192.05,-1166.5 945.55,-1166.5 945.55,-1166.5 939.55,-1166.5 933.55,-1160.5 933.55,-1154.5 933.55,-1154.5 933.55,-1112.75 933.55,-1112.75 933.55,-1106.75 939.55,-1100.75 945.55,-1100.75 945.55,-1100.75 1192.05,-1100.75 1192.05,-1100.75 1198.05,-1100.75 1204.05,-1106.75 1204.05,-1112.75 1204.05,-1112.75 1204.05,-1154.5 1204.05,-1154.5 1204.05,-1160.5 1198.05,-1166.5 1192.05,-1166.5"/>
<text xml:space="preserve" text-anchor="start" x="1045.92" y="-1151.05" font-family="Helvetica,sans-Serif" font-weight="bold" font-size="11.00">Payment</text>
<text xml:space="preserve" text-anchor="start" x="1057.55" y="-1135" font-family="Helvetica,sans-Serif" font-size="10.00" fill="#c62828">[true]</text>
<text xml:space="preserve" text-anchor="start" x="963.8" y="-1119.75" font-family="Helvetica,sans-Serif" font-size="10.00" fill="#1565c0">paymentAmount&#39; := (+ amount paymentAmount)</text>
<text xml:space="preserve" text-anchor="start" x="943.55" y="-1108.5" font-family="Helvetica,sans-Serif" font-size="10.00" fill="#1565c0">totalPaymentAmount&#39; := (+ amount totalPaymentAmount)</text>
<polygon fill="#1565c0" stroke="#1565c0" points="941.55,-1146.5 941.55,-1146.5 1196.05,-1146.5 1196.05,-1146.5 941.55,-1146.5"/>
</g>
<!-- p_r1_q1_q10_q11_+14&#45;&gt;t_Payment_15 -->
<g id="edge39" class="edge">
<title>p_r1_q1_q10_q11_+14&#45;&gt;t_Payment_15</title>
<path fill="none" stroke="#424242" d="M362.31,-747.37C378.57,-853.19 412.71,-1035.42 463.59,-1077.62 590.21,-1182.64 787.55,-1176.91 921.99,-1158.59"/>
<polygon fill="#424242" stroke="#424242" points="922.26,-1162.09 931.67,-1157.23 921.28,-1155.15 922.26,-1162.09"/>
</g>
<!-- t_Payment_16 -->
<g id="node17" class="node">
<title>t_Payment_16</title>
<path fill="#e3f2fd" stroke="#1565c0" stroke-width="1.2" d="M1192.05,-711.5C1192.05,-711.5 945.55,-711.5 945.55,-711.5 939.55,-711.5 933.55,-705.5 933.55,-699.5 933.55,-699.5 933.55,-657.75 933.55,-657.75 933.55,-651.75 939.55,-645.75 945.55,-645.75 945.55,-645.75 1192.05,-645.75 1192.05,-645.75 1198.05,-645.75 1204.05,-651.75 1204.05,-657.75 1204.05,-657.75 1204.05,-699.5 1204.05,-699.5 1204.05,-705.5 1198.05,-711.5 1192.05,-711.5"/>
<text xml:space="preserve" text-anchor="start" x="1045.92" y="-696.05" font-family="Helvetica,sans-Serif" font-weight="bold" font-size="11.00">Payment</text>
<text xml:space="preserve" text-anchor="start" x="1057.55" y="-680" font-family="Helvetica,sans-Serif" font-size="10.00" fill="#c62828">[true]</text>
<text xml:space="preserve" text-anchor="start" x="963.8" y="-664.75" font-family="Helvetica,sans-Serif" font-size="10.00" fill="#1565c0">paymentAmount&#39; := (+ amount paymentAmount)</text>
<text xml:space="preserve" text-anchor="start" x="943.55" y="-653.5" font-family="Helvetica,sans-Serif" font-size="10.00" fill="#1565c0">totalPaymentAmount&#39; := (+ amount totalPaymentAmount)</text>
<polygon fill="#1565c0" stroke="#1565c0" points="941.55,-691.5 941.55,-691.5 1196.05,-691.5 1196.05,-691.5 941.55,-691.5"/>
</g>
<!-- p_r1_q1_q10_q11_+14&#45;&gt;t_Payment_16 -->
<g id="edge43" class="edge">
<title>p_r1_q1_q10_q11_+14&#45;&gt;t_Payment_16</title>
<path fill="none" stroke="#424242" d="M426.91,-684.03C439.08,-686.7 451.61,-689.1 463.59,-690.62 619.21,-710.4 799.07,-699.93 921.81,-689.57"/>
<polygon fill="#424242" stroke="#424242" points="921.97,-693.07 931.63,-688.74 921.37,-686.1 921.97,-693.07"/>
</g>
<!-- t_Payment_17 -->
<g id="node18" class="node">
<title>t_Payment_17</title>
<path fill="#e3f2fd" stroke="#1565c0" stroke-width="1.2" d="M1192.05,-584.5C1192.05,-584.5 945.55,-584.5 945.55,-584.5 939.55,-584.5 933.55,-578.5 933.55,-572.5 933.55,-572.5 933.55,-530.75 933.55,-530.75 933.55,-524.75 939.55,-518.75 945.55,-518.75 945.55,-518.75 1192.05,-518.75 1192.05,-518.75 1198.05,-518.75 1204.05,-524.75 1204.05,-530.75 1204.05,-530.75 1204.05,-572.5 1204.05,-572.5 1204.05,-578.5 1198.05,-584.5 1192.05,-584.5"/>
<text xml:space="preserve" text-anchor="start" x="1045.92" y="-569.05" font-family="Helvetica,sans-Serif" font-weight="bold" font-size="11.00">Payment</text>
<text xml:space="preserve" text-anchor="start" x="1057.55" y="-553" font-family="Helvetica,sans-Serif" font-size="10.00" fill="#c62828">[true]</text>
<text xml:space="preserve" text-anchor="start" x="963.8" y="-537.75" font-family="Helvetica,sans-Serif" font-size="10.00" fill="#1565c0">paymentAmount&#39; := (+ amount paymentAmount)</text>
<text xml:space="preserve" text-anchor="start" x="943.55" y="-526.5" font-family="Helvetica,sans-Serif" font-size="10.00" fill="#1565c0">totalPaymentAmount&#39; := (+ amount totalPaymentAmount)</text>
<polygon fill="#1565c0" stroke="#1565c0" points="941.55,-564.5 941.55,-564.5 1196.05,-564.5 1196.05,-564.5 941.55,-564.5"/>
</g>
<!-- p_r1_q1_q10_q11_+14&#45;&gt;t_Payment_17 -->
<g id="edge46" class="edge">
<title>p_r1_q1_q10_q11_+14&#45;&gt;t_Payment_17</title>
<path fill="none" stroke="#424242" d="M422.6,-642.03C436.15,-638.49 450.26,-635.24 463.59,-632.62 580.81,-609.65 614.63,-627.86 729.92,-596.62 746.65,-592.09 749.18,-586.11 765.92,-581.62 815.99,-568.22 872,-559.36 922.06,-554.04"/>
<polygon fill="#424242" stroke="#424242" points="922.21,-557.54 931.8,-553.05 921.5,-550.58 922.21,-557.54"/>
</g>
<!-- t_Payment_18 -->
<g id="node19" class="node">
<title>t_Payment_18</title>
<path fill="#e3f2fd" stroke="#1565c0" stroke-width="1.2" d="M1965.71,-237.5C1965.71,-237.5 1719.21,-237.5 1719.21,-237.5 1713.21,-237.5 1707.21,-231.5 1707.21,-225.5 1707.21,-225.5 1707.21,-183.75 1707.21,-183.75 1707.21,-177.75 1713.21,-171.75 1719.21,-171.75 1719.21,-171.75 1965.71,-171.75 1965.71,-171.75 1971.71,-171.75 1977.71,-177.75 1977.71,-183.75 1977.71,-183.75 1977.71,-225.5 1977.71,-225.5 1977.71,-231.5 1971.71,-237.5 1965.71,-237.5"/>
<text xml:space="preserve" text-anchor="start" x="1819.58" y="-222.05" font-family="Helvetica,sans-Serif" font-weight="bold" font-size="11.00">Payment</text>
<text xml:space="preserve" text-anchor="start" x="1831.21" y="-206" font-family="Helvetica,sans-Serif" font-size="10.00" fill="#c62828">[true]</text>
<text xml:space="preserve" text-anchor="start" x="1737.46" y="-190.75" font-family="Helvetica,sans-Serif" font-size="10.00" fill="#1565c0">paymentAmount&#39; := (+ amount paymentAmount)</text>
<text xml:space="preserve" text-anchor="start" x="1717.21" y="-179.5" font-family="Helvetica,sans-Serif" font-size="10.00" fill="#1565c0">totalPaymentAmount&#39; := (+ amount totalPaymentAmount)</text>
<polygon fill="#1565c0" stroke="#1565c0" points="1715.21,-217.5 1715.21,-217.5 1969.71,-217.5 1969.71,-217.5 1715.21,-217.5"/>
</g>
<!-- p_r1_q1_q10_q11_+14&#45;&gt;t_Payment_18 -->
<g id="edge50" class="edge">
<title>p_r1_q1_q10_q11_+14&#45;&gt;t_Payment_18</title>
<path fill="none" stroke="#424242" d="M358.51,-593.44C372.46,-463.63 406.89,-209.52 463.59,-142.62 522.85,-72.72 563.62,-66.62 655.26,-66.62 655.26,-66.62 655.26,-66.62 1069.8,-66.62 1307.99,-66.62 1581.94,-127.16 1730.9,-168.18"/>
<polygon fill="#424242" stroke="#424242" points="1729.81,-171.51 1740.39,-170.82 1731.69,-164.77 1729.81,-171.51"/>
</g>
<!-- t_Payment_20 -->
<g id="node20" class="node">
<title>t_Payment_20</title>
<path fill="#e3f2fd" stroke="#1565c0" stroke-width="1.2" d="M1192.05,-234.5C1192.05,-234.5 945.55,-234.5 945.55,-234.5 939.55,-234.5 933.55,-228.5 933.55,-222.5 933.55,-222.5 933.55,-180.75 933.55,-180.75 933.55,-174.75 939.55,-168.75 945.55,-168.75 945.55,-168.75 1192.05,-168.75 1192.05,-168.75 1198.05,-168.75 1204.05,-174.75 1204.05,-180.75 1204.05,-180.75 1204.05,-222.5 1204.05,-222.5 1204.05,-228.5 1198.05,-234.5 1192.05,-234.5"/>
<text xml:space="preserve" text-anchor="start" x="1045.92" y="-219.05" font-family="Helvetica,sans-Serif" font-weight="bold" font-size="11.00">Payment</text>
<text xml:space="preserve" text-anchor="start" x="1057.55" y="-203" font-family="Helvetica,sans-Serif" font-size="10.00" fill="#c62828">[true]</text>
<text xml:space="preserve" text-anchor="start" x="963.8" y="-187.75" font-family="Helvetica,sans-Serif" font-size="10.00" fill="#1565c0">paymentAmount&#39; := (+ amount paymentAmount)</text>
<text xml:space="preserve" text-anchor="start" x="943.55" y="-176.5" font-family="Helvetica,sans-Serif" font-size="10.00" fill="#1565c0">totalPaymentAmount&#39; := (+ amount totalPaymentAmount)</text>
<polygon fill="#1565c0" stroke="#1565c0" points="941.55,-214.5 941.55,-214.5 1196.05,-214.5 1196.05,-214.5 941.55,-214.5"/>
</g>
<!-- p_r1_q1_q10_q11_+14&#45;&gt;t_Payment_20 -->
<g id="edge54" class="edge">
<title>p_r1_q1_q10_q11_+14&#45;&gt;t_Payment_20</title>
<path fill="none" stroke="#424242" d="M356.09,-593.15C364.99,-510.55 390.5,-380.63 463.59,-297.62 575.6,-170.43 781.94,-160.82 921.98,-173.91"/>
<polygon fill="#424242" stroke="#424242" points="921.41,-177.37 931.7,-174.87 922.1,-170.4 921.41,-177.37"/>
</g>
<!-- t_Send Appeal to Prefecture_21 -->
<g id="node21" class="node">
<title>t_Send Appeal to Prefecture_21</title>
<path fill="#e3f2fd" stroke="#1565c0" stroke-width="1.2" d="M1909.08,-39.25C1909.08,-39.25 1775.83,-39.25 1775.83,-39.25 1769.83,-39.25 1763.83,-33.25 1763.83,-27.25 1763.83,-27.25 1763.83,-12 1763.83,-12 1763.83,-6 1769.83,0 1775.83,0 1775.83,0 1909.08,0 1909.08,0 1915.08,0 1921.08,-6 1921.08,-12 1921.08,-12 1921.08,-27.25 1921.08,-27.25 1921.08,-33.25 1915.08,-39.25 1909.08,-39.25"/>
<text xml:space="preserve" text-anchor="start" x="1773.83" y="-23.8" font-family="Helvetica,sans-Serif" font-weight="bold" font-size="11.00">Send Appeal to Prefecture</text>
<text xml:space="preserve" text-anchor="start" x="1831.21" y="-7.75" font-family="Helvetica,sans-Serif" font-size="10.00" fill="#c62828">[true]</text>
<polygon fill="#1565c0" stroke="#1565c0" points="1771.83,-19.25 1771.83,-19.25 1913.08,-19.25 1913.08,-19.25 1771.83,-19.25"/>
</g>
<!-- p_r1_q1_q10_q11_+14&#45;&gt;t_Send Appeal to Prefecture_21 -->
<g id="edge58" class="edge">
<title>p_r1_q1_q10_q11_+14&#45;&gt;t_Send Appeal to Prefecture_21</title>
<path fill="none" stroke="#424242" d="M356.21,-593.24C367.03,-450 397.47,-151.54 463.59,-75.62 522.67,-7.8 565.31,-10.62 655.26,-10.62 655.26,-10.62 655.26,-10.62 1069.8,-10.62 1316.81,-10.62 1608.3,-10.62 1752.07,-13.99"/>
<polygon fill="#424242" stroke="#424242" points="1751.82,-17.48 1761.9,-14.23 1751.99,-10.48 1751.82,-17.48"/>
</g>
<!-- t_Send Fine_22 -->
<g id="node22" class="node">
<title>t_Send Fine_22</title>
<path fill="#e3f2fd" stroke="#1565c0" stroke-width="1.2" d="M1112.17,-494.88C1112.17,-494.88 1025.42,-494.88 1025.42,-494.88 1019.42,-494.88 1013.42,-488.88 1013.42,-482.88 1013.42,-482.88 1013.42,-452.38 1013.42,-452.38 1013.42,-446.38 1019.42,-440.38 1025.42,-440.38 1025.42,-440.38 1112.17,-440.38 1112.17,-440.38 1118.17,-440.38 1124.17,-446.38 1124.17,-452.38 1124.17,-452.38 1124.17,-482.88 1124.17,-482.88 1124.17,-488.88 1118.17,-494.88 1112.17,-494.88"/>
<text xml:space="preserve" text-anchor="start" x="1042.55" y="-479.43" font-family="Helvetica,sans-Serif" font-weight="bold" font-size="11.00">Send Fine</text>
<text xml:space="preserve" text-anchor="start" x="1057.55" y="-463.38" font-family="Helvetica,sans-Serif" font-size="10.00" fill="#c62828">[true]</text>
<text xml:space="preserve" text-anchor="start" x="1023.42" y="-448.12" font-family="Helvetica,sans-Serif" font-size="10.00" fill="#1565c0">expense&#39; := expense</text>
<polygon fill="#1565c0" stroke="#1565c0" points="1021.42,-474.88 1021.42,-474.88 1116.17,-474.88 1116.17,-474.88 1021.42,-474.88"/>
</g>
<!-- p_r1_q1_q10_q11_+14&#45;&gt;t_Send Fine_22 -->
<g id="edge61" class="edge">
<title>p_r1_q1_q10_q11_+14&#45;&gt;t_Send Fine_22</title>
<path fill="none" stroke="#424242" d="M390.05,-604.01C430.41,-545.63 499.35,-465.08 582.59,-430.62 620.3,-415.02 878.11,-438.99 1001.82,-455.52"/>
<polygon fill="#424242" stroke="#424242" points="1001.13,-458.96 1011.51,-456.84 1002.07,-452.02 1001.13,-458.96"/>
</g>
<!-- t_Send Fine_23 -->
<g id="node23" class="node">
<title>t_Send Fine_23</title>
<path fill="#e3f2fd" stroke="#1565c0" stroke-width="1.2" d="M1112.17,-856.88C1112.17,-856.88 1025.42,-856.88 1025.42,-856.88 1019.42,-856.88 1013.42,-850.88 1013.42,-844.88 1013.42,-844.88 1013.42,-814.38 1013.42,-814.38 1013.42,-808.38 1019.42,-802.38 1025.42,-802.38 1025.42,-802.38 1112.17,-802.38 1112.17,-802.38 1118.17,-802.38 1124.17,-808.38 1124.17,-814.38 1124.17,-814.38 1124.17,-844.88 1124.17,-844.88 1124.17,-850.88 1118.17,-856.88 1112.17,-856.88"/>
<text xml:space="preserve" text-anchor="start" x="1042.55" y="-841.42" font-family="Helvetica,sans-Serif" font-weight="bold" font-size="11.00">Send Fine</text>
<text xml:space="preserve" text-anchor="start" x="1057.55" y="-825.38" font-family="Helvetica,sans-Serif" font-size="10.00" fill="#c62828">[true]</text>
<text xml:space="preserve" text-anchor="start" x="1023.42" y="-810.12" font-family="Helvetica,sans-Serif" font-size="10.00" fill="#1565c0">expense&#39; := expense</text>
<polygon fill="#1565c0" stroke="#1565c0" points="1021.42,-836.88 1021.42,-836.88 1116.17,-836.88 1116.17,-836.88 1021.42,-836.88"/>
</g>
<!-- p_r1_q1_q10_q11_+14&#45;&gt;t_Send Fine_23 -->
<g id="edge64" class="edge">
<title>p_r1_q1_q10_q11_+14&#45;&gt;t_Send Fine_23</title>
<path fill="none" stroke="#424242" d="M411.95,-717.94C427.8,-729.83 445.53,-741.48 463.59,-749.62 645.09,-831.51 886.95,-831.29 1001.83,-829.09"/>
<polygon fill="#424242" stroke="#424242" points="1001.77,-832.59 1011.69,-828.89 1001.62,-825.59 1001.77,-832.59"/>
</g>
<!-- t_Send Fine_24 -->
<g id="node24" class="node">
<title>t_Send Fine_24</title>
<path fill="#e3f2fd" stroke="#1565c0" stroke-width="1.2" d="M1112.17,-421.88C1112.17,-421.88 1025.42,-421.88 1025.42,-421.88 1019.42,-421.88 1013.42,-415.88 1013.42,-409.88 1013.42,-409.88 1013.42,-379.38 1013.42,-379.38 1013.42,-373.38 1019.42,-367.38 1025.42,-367.38 1025.42,-367.38 1112.17,-367.38 1112.17,-367.38 1118.17,-367.38 1124.17,-373.38 1124.17,-379.38 1124.17,-379.38 1124.17,-409.88 1124.17,-409.88 1124.17,-415.88 1118.17,-421.88 1112.17,-421.88"/>
<text xml:space="preserve" text-anchor="start" x="1042.55" y="-406.43" font-family="Helvetica,sans-Serif" font-weight="bold" font-size="11.00">Send Fine</text>
<text xml:space="preserve" text-anchor="start" x="1057.55" y="-390.38" font-family="Helvetica,sans-Serif" font-size="10.00" fill="#c62828">[true]</text>
<text xml:space="preserve" text-anchor="start" x="1023.42" y="-375.12" font-family="Helvetica,sans-Serif" font-size="10.00" fill="#1565c0">expense&#39; := expense</text>
<polygon fill="#1565c0" stroke="#1565c0" points="1021.42,-401.88 1021.42,-401.88 1116.17,-401.88 1116.17,-401.88 1021.42,-401.88"/>
</g>
<!-- p_r1_q1_q10_q11_+14&#45;&gt;t_Send Fine_24 -->
<g id="edge68" class="edge">
<title>p_r1_q1_q10_q11_+14&#45;&gt;t_Send Fine_24</title>
<path fill="none" stroke="#424242" d="M369.67,-595.5C386.29,-545.59 415.68,-482.92 463.59,-446.62 624.18,-324.97 881.67,-350.94 1001.93,-375.68"/>
<polygon fill="#424242" stroke="#424242" points="1001.14,-379.09 1011.65,-377.75 1002.6,-372.24 1001.14,-379.09"/>
</g>
<!-- t_Send for Credit Collection_26 -->
<g id="node25" class="node">
<title>t_Send for Credit Collection_26</title>
<path fill="#e3f2fd" stroke="#1565c0" stroke-width="1.2" d="M2436.1,-1279.25C2436.1,-1279.25 2303.6,-1279.25 2303.6,-1279.25 2297.6,-1279.25 2291.6,-1273.25 2291.6,-1267.25 2291.6,-1267.25 2291.6,-1252 2291.6,-1252 2291.6,-1246 2297.6,-1240 2303.6,-1240 2303.6,-1240 2436.1,-1240 2436.1,-1240 2442.1,-1240 2448.1,-1246 2448.1,-1252 2448.1,-1252 2448.1,-1267.25 2448.1,-1267.25 2448.1,-1273.25 2442.1,-1279.25 2436.1,-1279.25"/>
<text xml:space="preserve" text-anchor="start" x="2301.6" y="-1263.8" font-family="Helvetica,sans-Serif" font-weight="bold" font-size="11.00">Send for Credit Collection</text>
<text xml:space="preserve" text-anchor="start" x="2358.6" y="-1247.75" font-family="Helvetica,sans-Serif" font-size="10.00" fill="#c62828">[true]</text>
<polygon fill="#1565c0" stroke="#1565c0" points="2299.6,-1259.25 2299.6,-1259.25 2440.1,-1259.25 2440.1,-1259.25 2299.6,-1259.25"/>
</g>
<!-- p_r1_q1_q10_q11_+14&#45;&gt;t_Send for Credit Collection_26 -->
<g id="edge72" class="edge">
<title>p_r1_q1_q10_q11_+14&#45;&gt;t_Send for Credit Collection_26</title>
<path fill="none" stroke="#424242" d="M359.73,-747.75C374.37,-873.15 408.35,-1113.43 463.59,-1177.62 523.05,-1246.72 564.1,-1250.62 655.26,-1250.62 655.26,-1250.62 655.26,-1250.62 1843.46,-1250.62 1996.88,-1250.62 2175.49,-1250.62 2279.97,-1253.18"/>
<polygon fill="#424242" stroke="#424242" points="2279.8,-1256.67 2289.89,-1253.44 2279.98,-1249.68 2279.8,-1256.67"/>
</g>
<!-- t_Send for Credit Collection_27 -->
<g id="node26" class="node">
<title>t_Send for Credit Collection_27</title>
<path fill="#e3f2fd" stroke="#1565c0" stroke-width="1.2" d="M1135.05,-914.25C1135.05,-914.25 1002.55,-914.25 1002.55,-914.25 996.55,-914.25 990.55,-908.25 990.55,-902.25 990.55,-902.25 990.55,-887 990.55,-887 990.55,-881 996.55,-875 1002.55,-875 1002.55,-875 1135.05,-875 1135.05,-875 1141.05,-875 1147.05,-881 1147.05,-887 1147.05,-887 1147.05,-902.25 1147.05,-902.25 1147.05,-908.25 1141.05,-914.25 1135.05,-914.25"/>
<text xml:space="preserve" text-anchor="start" x="1000.55" y="-898.8" font-family="Helvetica,sans-Serif" font-weight="bold" font-size="11.00">Send for Credit Collection</text>
<text xml:space="preserve" text-anchor="start" x="1057.55" y="-882.75" font-family="Helvetica,sans-Serif" font-size="10.00" fill="#c62828">[true]</text>
<polygon fill="#1565c0" stroke="#1565c0" points="998.55,-894.25 998.55,-894.25 1139.05,-894.25 1139.05,-894.25 998.55,-894.25"/>
</g>
<!-- p_r1_q1_q10_q11_+14&#45;&gt;t_Send for Credit Collection_27 -->
<g id="edge75" class="edge">
<title>p_r1_q1_q10_q11_+14&#45;&gt;t_Send for Credit Collection_27</title>
<path fill="none" stroke="#424242" d="M400.28,-729.75C418.24,-750.31 440,-772.05 463.59,-787.62 621.82,-892.11 853,-898.55 978.57,-895.91"/>
<polygon fill="#424242" stroke="#424242" points="978.59,-899.41 988.51,-895.68 978.43,-892.41 978.59,-899.41"/>
</g>
<!-- p_r2_q1_q13_q19_+6 -->
<g id="node3" class="node">
<title>p_r2_q1_q13_q19_+6</title>
<ellipse fill="#e8f5e9" stroke="#616161" cx="656.26" cy="-522.62" rx="73.66" ry="73.66"/>
<text xml:space="preserve" text-anchor="middle" x="656.26" y="-518.17" font-family="Helvetica,sans-Serif" font-size="11.00">p_r2_q1_q13_q19_+6</text>
</g>
<!-- p_r2_q1_q13_q19_+6&#45;&gt;t_Appeal to Judge_7 -->
<g id="edge14" class="edge">
<title>p_r2_q1_q13_q19_+6&#45;&gt;t_Appeal to Judge_7</title>
<path fill="none" stroke="#424242" d="M677.55,-593.17C694.02,-637.17 721.88,-690.9 765.92,-720.62 836.8,-768.47 938.88,-770.17 1004.27,-764.98"/>
<polygon fill="#424242" stroke="#424242" points="1004.48,-768.47 1014.13,-764.11 1003.87,-761.5 1004.48,-768.47"/>
</g>
<!-- p_r2_q1_q13_q19_+6&#45;&gt;t_Insert Date Appeal to Prefecture_11 -->
<g id="edge28" class="edge">
<title>p_r2_q1_q13_q19_+6&#45;&gt;t_Insert Date Appeal to Prefecture_11</title>
<path fill="none" stroke="#424242" d="M684.96,-454.59C702.77,-419.9 729.46,-380.51 765.92,-358.62 767.99,-357.38 770.09,-356.17 772.2,-355"/>
<polygon fill="#424242" stroke="#424242" points="773.67,-358.18 780.91,-350.45 770.43,-351.98 773.67,-358.18"/>
</g>
<!-- p_r2_q1_q13_q19_+6&#45;&gt;t_Insert Fine Notification_12 -->
<g id="edge32" class="edge">
<title>p_r2_q1_q13_q19_+6&#45;&gt;t_Insert Fine Notification_12</title>
<path fill="none" stroke="#424242" d="M672.88,-450.35C687.82,-399.75 715.77,-335.23 765.92,-300.62 830.52,-256.04 922.29,-253.9 987.66,-259.88"/>
<polygon fill="#424242" stroke="#424242" points="986.92,-263.32 997.22,-260.84 987.62,-256.36 986.92,-263.32"/>
</g>
<!-- p_r2_q1_q13_q19_+6&#45;&gt;t_Payment_15 -->
<g id="edge40" class="edge">
<title>p_r2_q1_q13_q19_+6&#45;&gt;t_Payment_15</title>
<path fill="none" stroke="#424242" d="M662.13,-596.32C670.99,-681.98 695.92,-824.27 765.92,-923.62 820.86,-1001.6 914.49,-1060.08 982.94,-1095.27"/>
<polygon fill="#424242" stroke="#424242" points="981,-1098.21 991.5,-1099.61 984.16,-1091.97 981,-1098.21"/>
</g>
<!-- p_r2_q1_q13_q19_+6&#45;&gt;t_Payment_16 -->
<g id="edge44" class="edge">
<title>p_r2_q1_q13_q19_+6&#45;&gt;t_Payment_16</title>
<path fill="none" stroke="#424242" d="M716.3,-565.84C731.9,-575.95 749.1,-585.98 765.92,-593.62 815.1,-615.98 871.51,-633.77 922.15,-647.18"/>
<polygon fill="#424242" stroke="#424242" points="921.17,-650.55 931.73,-649.68 922.94,-643.77 921.17,-650.55"/>
</g>
<!-- p_r2_q1_q13_q19_+6&#45;&gt;t_Payment_17 -->
<g id="edge47" class="edge">
<title>p_r2_q1_q13_q19_+6&#45;&gt;t_Payment_17</title>
<path fill="none" stroke="#424242" d="M730.18,-522.47C783.33,-524.85 857.11,-529.67 922.14,-534.85"/>
<polygon fill="#424242" stroke="#424242" points="921.58,-538.31 931.83,-535.63 922.14,-531.33 921.58,-538.31"/>
</g>
<!-- p_r2_q1_q13_q19_+6&#45;&gt;t_Payment_20 -->
<g id="edge55" class="edge">
<title>p_r2_q1_q13_q19_+6&#45;&gt;t_Payment_20</title>
<path fill="none" stroke="#424242" d="M665.24,-449.31C676.38,-384.73 702.91,-293.42 765.92,-243.62 809.43,-209.24 867.9,-195.97 921.8,-192.29"/>
<polygon fill="#424242" stroke="#424242" points="921.92,-195.79 931.71,-191.73 921.53,-188.8 921.92,-195.79"/>
</g>
<!-- p_r2_q1_q13_q19_+6&#45;&gt;t_Send Fine_22 -->
<g id="edge62" class="edge">
<title>p_r2_q1_q13_q19_+6&#45;&gt;t_Send Fine_22</title>
<path fill="none" stroke="#424242" d="M729.71,-512.92C806.78,-502.59 927.63,-486.4 1002.04,-476.43"/>
<polygon fill="#424242" stroke="#424242" points="1002.17,-479.95 1011.62,-475.15 1001.24,-473.01 1002.17,-479.95"/>
</g>
<!-- p_r2_q1_q13_q19_+6&#45;&gt;t_Send Fine_23 -->
<g id="edge65" class="edge">
<title>p_r2_q1_q13_q19_+6&#45;&gt;t_Send Fine_23</title>
<path fill="none" stroke="#424242" d="M666.16,-596.01C677.86,-658.57 704.71,-745.6 765.92,-792.62 833.31,-844.39 935.28,-845.7 1001.71,-839.52"/>
<polygon fill="#424242" stroke="#424242" points="1001.77,-843.04 1011.36,-838.54 1001.06,-836.07 1001.77,-843.04"/>
</g>
<!-- p_r2_q1_q13_q19_+6&#45;&gt;t_Send Fine_24 -->
<g id="edge69" class="edge">
<title>p_r2_q1_q13_q19_+6&#45;&gt;t_Send Fine_24</title>
<path fill="none" stroke="#424242" d="M703.19,-465.63C721.19,-448.93 743.01,-432.57 765.92,-422.62 842.07,-389.57 938.54,-383.16 1001.65,-385.22"/>
<polygon fill="#424242" stroke="#424242" points="1001.38,-388.71 1011.52,-385.63 1001.68,-381.72 1001.38,-388.71"/>
</g>
<!-- p_r2_q1_q13_q19_+6&#45;&gt;t_Send for Credit Collection_27 -->
<g id="edge76" class="edge">
<title>p_r2_q1_q13_q19_+6&#45;&gt;t_Send for Credit Collection_27</title>
<path fill="none" stroke="#424242" d="M658.25,-596.55C663.66,-676.32 685.53,-800.63 765.92,-865.62 824.85,-913.27 912.93,-916.5 978.76,-910.21"/>
<polygon fill="#424242" stroke="#424242" points="978.87,-913.72 988.45,-909.19 978.14,-906.76 978.87,-913.72"/>
</g>
<!-- p_r3_q10_q6 -->
<g id="node4" class="node">
<title>p_r3_q10_q6</title>
<ellipse fill="#e8f5e9" stroke="#616161" cx="1455.63" cy="-617.62" rx="47.96" ry="47.96"/>
<text xml:space="preserve" text-anchor="middle" x="1455.63" y="-613.17" font-family="Helvetica,sans-Serif" font-size="11.00">p_r3_q10_q6</text>
</g>
<!-- p_r3_q10_q6&#45;&gt;t_Add penalty_1 -->
<g id="edge2" class="edge">
<title>p_r3_q10_q6&#45;&gt;t_Add penalty_1</title>
<path fill="none" stroke="#424242" d="M1460.33,-665.7C1468.91,-766.01 1493.06,-993.29 1539.58,-1053.62 1601.97,-1134.53 1721.21,-1172.25 1789.67,-1187.92"/>
<polygon fill="#424242" stroke="#424242" points="1788.62,-1191.28 1799.14,-1190.01 1790.13,-1184.44 1788.62,-1191.28"/>
</g>
<!-- p_r3_q10_q6&#45;&gt;t_Add penalty_2 -->
<g id="edge6" class="edge">
<title>p_r3_q10_q6&#45;&gt;t_Add penalty_2</title>
<path fill="none" stroke="#424242" d="M1407.99,-611.43C1295.22,-598.06 999.82,-572.56 765.92,-636.62 748.27,-641.46 747.49,-651.48 729.92,-656.62 672.91,-673.31 604.35,-675.08 558.26,-673.79"/>
<polygon fill="#424242" stroke="#424242" points="558.67,-670.3 548.56,-673.45 558.43,-677.3 558.67,-670.3"/>
</g>
<!-- p_r3_q10_q6&#45;&gt;t_Add penalty_3 -->
<g id="edge10" class="edge">
<title>p_r3_q10_q6&#45;&gt;t_Add penalty_3</title>
<path fill="none" stroke="#424242" d="M1457.25,-665.99C1460.92,-729.41 1476.86,-840.16 1539.58,-907.62 1605.77,-978.82 1722.15,-1003.14 1789.43,-1014.27"/>
<polygon fill="#424242" stroke="#424242" points="1788.67,-1017.69 1799.1,-1015.83 1789.79,-1010.78 1788.67,-1017.69"/>
</g>
<!-- p_r3_q10_q6&#45;&gt;t_Appeal to Judge_8 -->
<g id="edge17" class="edge">
<title>p_r3_q10_q6&#45;&gt;t_Appeal to Judge_8</title>
<path fill="none" stroke="#424242" d="M1496.34,-643.81C1509.79,-654.63 1525.08,-666.99 1539.58,-677.62 1626.69,-741.47 1734.24,-807.8 1794.62,-846.78"/>
<polygon fill="#424242" stroke="#424242" points="1792.69,-849.69 1802.98,-852.2 1796.5,-843.82 1792.69,-849.69"/>
</g>
<!-- p_r3_q10_q6&#45;&gt;t_Insert Date Appeal to Prefecture_10 -->
<g id="edge24" class="edge">
<title>p_r3_q10_q6&#45;&gt;t_Insert Date Appeal to Prefecture_10</title>
<path fill="none" stroke="#424242" d="M1503.82,-617.92C1552.01,-621.07 1629.27,-628.45 1697.73,-636.13"/>
<polygon fill="#424242" stroke="#424242" points="1697.24,-639.6 1707.57,-637.25 1698.03,-632.64 1697.24,-639.6"/>
</g>
<!-- p_r3_q10_q6&#45;&gt;t_Insert Fine Notification_13 -->
<g id="edge36" class="edge">
<title>p_r3_q10_q6&#45;&gt;t_Insert Fine Notification_13</title>
<path fill="none" stroke="#424242" d="M1495.29,-590.46C1565.11,-545.95 1712.23,-458.62 1790.3,-415.17"/>
<polygon fill="#424242" stroke="#424242" points="1791.54,-418.49 1798.6,-410.58 1788.15,-412.36 1791.54,-418.49"/>
</g>
<!-- p_r3_q10_q6&#45;&gt;t_Payment_18 -->
<g id="edge51" class="edge">
<title>p_r3_q10_q6&#45;&gt;t_Payment_18</title>
<path fill="none" stroke="#424242" d="M1460.3,-569.89C1467.14,-511.89 1486.39,-414.4 1539.58,-351.62 1581.5,-302.16 1643.07,-266.41 1699.69,-242.44"/>
<polygon fill="#424242" stroke="#424242" points="1700.89,-245.73 1708.8,-238.67 1698.22,-239.26 1700.89,-245.73"/>
</g>
<!-- p_r3_q10_q6&#45;&gt;t_Send Appeal to Prefecture_21 -->
<g id="edge59" class="edge">
<title>p_r3_q10_q6&#45;&gt;t_Send Appeal to Prefecture_21</title>
<path fill="none" stroke="#424242" d="M1459.9,-569.43C1467.8,-465.79 1490.96,-226.02 1539.58,-162.62 1591.6,-94.82 1683.76,-57.69 1752.62,-38.39"/>
<polygon fill="#424242" stroke="#424242" points="1753.26,-41.84 1762,-35.84 1751.43,-35.09 1753.26,-41.84"/>
</g>
<!-- p_r4_q11 -->
<g id="node5" class="node">
<title>p_r4_q11</title>
<ellipse fill="#e8f5e9" stroke="#616161" cx="2218.47" cy="-1185.62" rx="37.13" ry="37.13"/>
<text xml:space="preserve" text-anchor="middle" x="2218.47" y="-1181.17" font-family="Helvetica,sans-Serif" font-size="11.00">p_r4_q11</text>
</g>
<!-- p_r4_q11&#45;&gt;t_Send for Credit Collection_26 -->
<g id="edge73" class="edge">
<title>p_r4_q11&#45;&gt;t_Send for Credit Collection_26</title>
<path fill="none" stroke="#424242" d="M2252.25,-1201.86C2271.53,-1211.41 2296.31,-1223.69 2318.07,-1234.47"/>
<polygon fill="#424242" stroke="#424242" points="2316.27,-1237.49 2326.79,-1238.79 2319.38,-1231.21 2316.27,-1237.49"/>
</g>
<!-- t_Add penalty_1&#45;&gt;p_r1_q1_q10_q11_+14 -->
<g id="edge3" class="edge">
<title>t_Add penalty_1&#45;&gt;p_r1_q1_q10_q11_+14</title>
<path fill="none" stroke="#424242" d="M1800.47,-1202.31C1685.33,-1208.64 1349.13,-1212.62 1069.8,-1212.62 655.26,-1212.62 655.26,-1212.62 655.26,-1212.62 564.57,-1212.62 523.14,-1211.03 463.59,-1142.62 414.6,-1086.34 378.9,-879.4 362.09,-758.98"/>
<polygon fill="#424242" stroke="#424242" points="365.56,-758.53 360.73,-749.1 358.62,-759.49 365.56,-758.53"/>
</g>
<!-- t_Add penalty_1&#45;&gt;p_r4_q11 -->
<g id="edge4" class="edge">
<title>t_Add penalty_1&#45;&gt;p_r4_q11</title>
<path fill="none" stroke="#424242" d="M1884.55,-1196.31C1954.35,-1194.07 2095.68,-1189.53 2169.74,-1187.16"/>
<polygon fill="#424242" stroke="#424242" points="2169.63,-1190.66 2179.52,-1186.84 2169.41,-1183.67 2169.63,-1190.66"/>
</g>
<!-- t_Add penalty_2&#45;&gt;p_r1_q1_q10_q11_+14 -->
<g id="edge7" class="edge">
<title>t_Add penalty_2&#45;&gt;p_r1_q1_q10_q11_+14</title>
<path fill="none" stroke="#424242" d="M463.15,-676.68C455.61,-677 447.46,-677.21 439.14,-677.31"/>
<polygon fill="#424242" stroke="#424242" points="439.2,-673.81 429.22,-677.37 439.24,-680.81 439.2,-673.81"/>
</g>
<!-- t_Add penalty_2&#45;&gt;p_r2_q1_q13_q19_+6 -->
<g id="edge8" class="edge">
<title>t_Add penalty_2&#45;&gt;p_r2_q1_q13_q19_+6</title>
<path fill="none" stroke="#424242" d="M526.21,-650.67C543.93,-633.08 570.68,-606.54 595.24,-582.18"/>
<polygon fill="#424242" stroke="#424242" points="597.41,-584.95 602.04,-575.42 592.48,-579.98 597.41,-584.95"/>
</g>
<!-- t_Add penalty_3&#45;&gt;p_r1_q1_q10_q11_+14 -->
<g id="edge11" class="edge">
<title>t_Add penalty_3&#45;&gt;p_r1_q1_q10_q11_+14</title>
<path fill="none" stroke="#424242" d="M1800.5,-1032.29C1685.45,-1046.75 1349.48,-1072.62 1069.8,-1072.62 655.26,-1072.62 655.26,-1072.62 655.26,-1072.62 559.98,-1072.62 527.41,-1047.37 463.59,-976.62 408.6,-915.65 379.59,-825.08 364.95,-758.23"/>
<polygon fill="#424242" stroke="#424242" points="368.44,-757.83 362.95,-748.77 361.59,-759.28 368.44,-757.83"/>
</g>
<!-- t_Add penalty_3&#45;&gt;p_r3_q10_q6 -->
<g id="edge12" class="edge">
<title>t_Add penalty_3&#45;&gt;p_r3_q10_q6</title>
<path fill="none" stroke="#424242" d="M1800.59,-1027.3C1735.78,-1023.8 1609.6,-1000.94 1539.58,-925.62 1476.48,-857.74 1460.73,-746.06 1457.18,-677.37"/>
<polygon fill="#424242" stroke="#424242" points="1460.68,-677.25 1456.75,-667.41 1453.69,-677.55 1460.68,-677.25"/>
</g>
<!-- t_Appeal to Judge_7&#45;&gt;p_r1_q1_q10_q11_+14 -->
<g id="edge15" class="edge">
<title>t_Appeal to Judge_7&#45;&gt;p_r1_q1_q10_q11_+14</title>
<path fill="none" stroke="#424242" d="M1015.79,-766.11C909.83,-777.74 662.2,-787.72 463.59,-735.62 450.21,-732.11 436.56,-726.9 423.59,-720.9"/>
<polygon fill="#424242" stroke="#424242" points="425.24,-717.81 414.72,-716.6 422.19,-724.11 425.24,-717.81"/>
</g>
<!-- t_Appeal to Judge_8&#45;&gt;p_r1_q1_q10_q11_+14 -->
<g id="edge18" class="edge">
<title>t_Appeal to Judge_8&#45;&gt;p_r1_q1_q10_q11_+14</title>
<path fill="none" stroke="#424242" d="M1789.55,-899.77C1665.95,-937.55 1344.05,-1016.62 1069.8,-1016.62 655.26,-1016.62 655.26,-1016.62 655.26,-1016.62 559.18,-1016.62 530.21,-985.86 463.59,-916.62 420.71,-872.06 391.73,-808.06 373.96,-756.45"/>
<polygon fill="#424242" stroke="#424242" points="377.32,-755.45 370.82,-747.08 370.68,-757.67 377.32,-755.45"/>
</g>
<!-- t_Appeal to Judge_8&#45;&gt;p_r3_q10_q6 -->
<g id="edge19" class="edge">
<title>t_Appeal to Judge_8&#45;&gt;p_r3_q10_q6</title>
<path fill="none" stroke="#424242" d="M1789.17,-856.16C1727.93,-821.9 1624.12,-757.59 1539.58,-695.62 1525.08,-685 1509.79,-672.64 1496.35,-660.87"/>
<polygon fill="#424242" stroke="#424242" points="1498.72,-658.3 1488.93,-654.25 1494.06,-663.52 1498.72,-658.3"/>
</g>
<!-- t_Create Fine_9&#45;&gt;p_r1_q1_q10_q11_+14 -->
<g id="edge21" class="edge">
<title>t_Create Fine_9&#45;&gt;p_r1_q1_q10_q11_+14</title>
<path fill="none" stroke="#424242" d="M196.97,-508.25C221.01,-533.87 257.68,-572.96 289.02,-606.36"/>
<polygon fill="#424242" stroke="#424242" points="286.43,-608.71 295.83,-613.61 291.54,-603.93 286.43,-608.71"/>
</g>
<!-- t_Create Fine_9&#45;&gt;p_r2_q1_q13_q19_+6 -->
<g id="edge22" class="edge">
<title>t_Create Fine_9&#45;&gt;p_r2_q1_q13_q19_+6</title>
<path fill="none" stroke="#424242" d="M237.61,-486.4C324.55,-493.94 476.78,-507.14 571.47,-515.36"/>
<polygon fill="#424242" stroke="#424242" points="570.96,-518.83 581.22,-516.2 571.56,-511.85 570.96,-518.83"/>
</g>
<!-- t_Insert Date Appeal to Prefecture_10&#45;&gt;p_r1_q1_q10_q11_+14 -->
<g id="edge25" class="edge">
<title>t_Insert Date Appeal to Prefecture_10&#45;&gt;p_r1_q1_q10_q11_+14</title>
<path fill="none" stroke="#424242" d="M1815.99,-677.66C1732.59,-736.13 1467.59,-902.55 1371.67,-932.62 1243.1,-972.94 1204.54,-960.62 1069.8,-960.62 655.26,-960.62 655.26,-960.62 655.26,-960.62 532.9,-960.62 438.86,-836.33 389.59,-750.43"/>
<polygon fill="#424242" stroke="#424242" points="392.65,-748.73 384.69,-741.73 386.55,-752.16 392.65,-748.73"/>
</g>
<!-- t_Insert Date Appeal to Prefecture_10&#45;&gt;p_r3_q10_q6 -->
<g id="edge26" class="edge">
<title>t_Insert Date Appeal to Prefecture_10&#45;&gt;p_r3_q10_q6</title>
<path fill="none" stroke="#424242" d="M1585.54,-637.44C1559.24,-634.41 1534.72,-631.39 1514.28,-628.6"/>
<polygon fill="#424242" stroke="#424242" points="1514.93,-625.16 1504.55,-627.24 1513.97,-632.09 1514.93,-625.16"/>
</g>
<!-- t_Insert Date Appeal to Prefecture_11&#45;&gt;p_r1_q1_q10_q11_+14 -->
<g id="edge29" class="edge">
<title>t_Insert Date Appeal to Prefecture_11&#45;&gt;p_r1_q1_q10_q11_+14</title>
<path fill="none" stroke="#424242" d="M765.33,-343.12C637.72,-352.68 508.35,-372.22 463.59,-414.62 415.65,-460.05 387.28,-529.22 371.06,-584.26"/>
<polygon fill="#424242" stroke="#424242" points="367.77,-583.04 368.39,-593.62 374.5,-584.96 367.77,-583.04"/>
</g>
<!-- t_Insert Date Appeal to Prefecture_11&#45;&gt;p_r3_q10_q6 -->
<g id="edge30" class="edge">
<title>t_Insert Date Appeal to Prefecture_11&#45;&gt;p_r3_q10_q6</title>
<path fill="none" stroke="#424242" d="M1359.62,-349.78C1363.75,-352.54 1367.78,-355.49 1371.67,-358.62 1431.25,-406.64 1448.64,-497.65 1453.38,-557.98"/>
<polygon fill="#424242" stroke="#424242" points="1449.87,-558 1454.05,-567.74 1456.86,-557.52 1449.87,-558"/>
</g>
<!-- t_Insert Fine Notification_12&#45;&gt;p_r1_q1_q10_q11_+14 -->
<g id="edge33" class="edge">
<title>t_Insert Fine Notification_12&#45;&gt;p_r1_q1_q10_q11_+14</title>
<path fill="none" stroke="#424242" d="M999.04,-266.23C875.47,-253.14 614.66,-237.47 463.59,-371.62 402.72,-425.68 374.82,-515.48 362.05,-582.64"/>
<polygon fill="#424242" stroke="#424242" points="358.67,-581.69 360.33,-592.15 365.56,-582.94 358.67,-581.69"/>
</g>
<!-- t_Insert Fine Notification_12&#45;&gt;p_r3_q10_q6 -->
<g id="edge34" class="edge">
<title>t_Insert Fine Notification_12&#45;&gt;p_r3_q10_q6</title>
<path fill="none" stroke="#424242" d="M1138.85,-258.41C1206.23,-248.81 1307.66,-246.31 1371.67,-300.62 1410.61,-333.67 1435.74,-476.31 1447.27,-558.55"/>
<polygon fill="#424242" stroke="#424242" points="1443.77,-558.8 1448.6,-568.23 1450.71,-557.85 1443.77,-558.8"/>
</g>
<!-- t_Insert Fine Notification_13&#45;&gt;p_r1_q1_q10_q11_+14 -->
<g id="edge37" class="edge">
<title>t_Insert Fine Notification_13&#45;&gt;p_r1_q1_q10_q11_+14</title>
<path fill="none" stroke="#424242" d="M1783.01,-369.42C1721.98,-343.39 1623.63,-297.29 1539.58,-255.62 1464.28,-218.29 1452.32,-192.28 1371.67,-168.62 1242.37,-130.71 1204.54,-140.62 1069.8,-140.62 655.26,-140.62 655.26,-140.62 655.26,-140.62 557.91,-140.62 523.25,-169.7 463.59,-246.62 387.41,-344.86 362.6,-489.54 354.71,-581.97"/>
<polygon fill="#424242" stroke="#424242" points="351.23,-581.5 353.93,-591.75 358.21,-582.06 351.23,-581.5"/>
</g>
<!-- t_Insert Fine Notification_13&#45;&gt;p_r3_q10_q6 -->
<g id="edge38" class="edge">
<title>t_Insert Fine Notification_13&#45;&gt;p_r3_q10_q6</title>
<path fill="none" stroke="#424242" d="M1813.75,-409.75C1750,-451.17 1592.07,-545.1 1509.24,-591.27"/>
<polygon fill="#424242" stroke="#424242" points="1507.66,-588.14 1500.61,-596.05 1511.05,-594.27 1507.66,-588.14"/>
</g>
<!-- t_Payment_15&#45;&gt;p_r1_q1_q10_q11_+14 -->
<g id="edge41" class="edge">
<title>t_Payment_15&#45;&gt;p_r1_q1_q10_q11_+14</title>
<path fill="none" stroke="#424242" d="M951.82,-1167.06C818.31,-1193.38 599.95,-1208.72 463.59,-1095.62 412.59,-1053.32 378.41,-870.33 362.19,-758.66"/>
<polygon fill="#424242" stroke="#424242" points="365.68,-758.32 360.8,-748.91 358.75,-759.31 365.68,-758.32"/>
</g>
<!-- t_Payment_15&#45;&gt;p_r4_q11 -->
<g id="edge42" class="edge">
<title>t_Payment_15&#45;&gt;p_r4_q11</title>
<path fill="none" stroke="#424242" d="M1204.64,-1129.45C1409.06,-1125.06 1809.2,-1124 2145.33,-1168.62 2153.76,-1169.74 2162.64,-1171.42 2171.18,-1173.28"/>
<polygon fill="#424242" stroke="#424242" points="2170.13,-1176.63 2180.66,-1175.48 2171.71,-1169.81 2170.13,-1176.63"/>
</g>
<!-- t_Payment_16&#45;&gt;p_r1_q1_q10_q11_+14 -->
<g id="edge45" class="edge">
<title>t_Payment_16&#45;&gt;p_r1_q1_q10_q11_+14</title>
<path fill="none" stroke="#424242" d="M933.14,-702.68C810.32,-717.24 624.07,-729.02 463.59,-708.62 453.62,-707.36 443.27,-705.48 433.06,-703.22"/>
<polygon fill="#424242" stroke="#424242" points="434.08,-699.86 423.54,-700.96 432.46,-706.67 434.08,-699.86"/>
</g>
<!-- t_Payment_17&#45;&gt;p_r1_q1_q10_q11_+14 -->
<g id="edge48" class="edge">
<title>t_Payment_17&#45;&gt;p_r1_q1_q10_q11_+14</title>
<path fill="none" stroke="#424242" d="M933.31,-569.63C880.51,-576.05 819.77,-585.2 765.92,-599.62 749.18,-604.11 746.65,-610.09 729.92,-614.62 614.63,-645.86 580.81,-627.65 463.59,-650.62 455.35,-652.24 446.81,-654.1 438.3,-656.04"/>
<polygon fill="#424242" stroke="#424242" points="437.56,-652.62 428.61,-658.29 439.14,-659.44 437.56,-652.62"/>
</g>
<!-- t_Payment_17&#45;&gt;p_r2_q1_q13_q19_+6 -->
<g id="edge49" class="edge">
<title>t_Payment_17&#45;&gt;p_r2_q1_q13_q19_+6</title>
<path fill="none" stroke="#424242" d="M933.16,-548.5C869.58,-544.69 795.69,-539.2 740.39,-534.05"/>
<polygon fill="#424242" stroke="#424242" points="741.03,-530.59 730.74,-533.13 740.37,-537.56 741.03,-530.59"/>
</g>
<!-- t_Payment_18&#45;&gt;p_r1_q1_q10_q11_+14 -->
<g id="edge52" class="edge">
<title>t_Payment_18&#45;&gt;p_r1_q1_q10_q11_+14</title>
<path fill="none" stroke="#424242" d="M1706.69,-174.71C1553.57,-139.03 1295.61,-84.62 1069.8,-84.62 655.26,-84.62 655.26,-84.62 655.26,-84.62 563.62,-84.62 522.85,-90.72 463.59,-160.62 410.07,-223.77 376.39,-453.71 361.05,-582.26"/>
<polygon fill="#424242" stroke="#424242" points="357.59,-581.77 359.89,-592.12 364.54,-582.59 357.59,-581.77"/>
</g>
<!-- t_Payment_18&#45;&gt;p_r3_q10_q6 -->
<g id="edge53" class="edge">
<title>t_Payment_18&#45;&gt;p_r3_q10_q6</title>
<path fill="none" stroke="#424242" d="M1750.91,-238C1683.77,-263.27 1594.7,-304.59 1539.58,-369.62 1493.6,-423.89 1472.98,-504.09 1463.82,-558.56"/>
<polygon fill="#424242" stroke="#424242" points="1460.39,-557.86 1462.27,-568.28 1467.3,-558.96 1460.39,-557.86"/>
</g>
<!-- t_Payment_20&#45;&gt;p_r1_q1_q10_q11_+14 -->
<g id="edge56" class="edge">
<title>t_Payment_20&#45;&gt;p_r1_q1_q10_q11_+14</title>
<path fill="none" stroke="#424242" d="M933.21,-188.33C793.19,-178.39 578.64,-184.98 463.59,-315.62 397.57,-390.6 370.37,-503.85 359.17,-582.24"/>
<polygon fill="#424242" stroke="#424242" points="355.71,-581.66 357.83,-592.04 362.65,-582.61 355.71,-581.66"/>
</g>
<!-- t_Payment_20&#45;&gt;p_r3_q10_q6 -->
<g id="edge57" class="edge">
<title>t_Payment_20&#45;&gt;p_r3_q10_q6</title>
<path fill="none" stroke="#424242" d="M1204.48,-188.29C1262.63,-189.91 1327.34,-202.71 1371.67,-243.62 1417.06,-285.52 1440.26,-463.52 1449.57,-558.06"/>
<polygon fill="#424242" stroke="#424242" points="1446.08,-558.31 1450.52,-567.93 1453.05,-557.64 1446.08,-558.31"/>
</g>
<!-- t_Send Appeal to Prefecture_21&#45;&gt;p_r1_q1_q10_q11_+14 -->
<g id="edge60" class="edge">
<title>t_Send Appeal to Prefecture_21&#45;&gt;p_r1_q1_q10_q11_+14</title>
<path fill="none" stroke="#424242" d="M1763.42,-24.98C1624.12,-28.62 1323.5,-28.62 1069.8,-28.62 655.26,-28.62 655.26,-28.62 655.26,-28.62 565.31,-28.62 522.67,-25.8 463.59,-93.62 400.79,-165.73 370.18,-438.62 357.99,-581.81"/>
<polygon fill="#424242" stroke="#424242" points="354.51,-581.38 357.17,-591.64 361.49,-581.97 354.51,-581.38"/>
</g>
<!-- t_Send Fine_22&#45;&gt;p_r1_q1_q10_q11_+14 -->
<g id="edge63" class="edge">
<title>t_Send Fine_22&#45;&gt;p_r1_q1_q10_q11_+14</title>
<path fill="none" stroke="#424242" d="M1013.01,-466.52C894.42,-458.53 621.48,-432.53 582.59,-448.62 508.24,-479.4 445.3,-546.95 403.94,-599.57"/>
<polygon fill="#424242" stroke="#424242" points="401.27,-597.3 397.91,-607.35 406.81,-601.59 401.27,-597.3"/>
</g>
<!-- t_Send Fine_23&#45;&gt;p_r1_q1_q10_q11_+14 -->
<g id="edge66" class="edge">
<title>t_Send Fine_23&#45;&gt;p_r1_q1_q10_q11_+14</title>
<path fill="none" stroke="#424242" d="M1013.21,-838.9C903.63,-849.18 651.33,-852.32 463.59,-767.62 445.31,-759.38 427.35,-747.54 411.35,-734.92"/>
<polygon fill="#424242" stroke="#424242" points="413.81,-732.41 403.85,-728.81 409.39,-737.84 413.81,-732.41"/>
</g>
<!-- t_Send Fine_23&#45;&gt;p_r3_q10_q6 -->
<g id="edge67" class="edge">
<title>t_Send Fine_23&#45;&gt;p_r3_q10_q6</title>
<path fill="none" stroke="#424242" d="M1124.75,-837.71C1189.96,-844.23 1298.99,-845.07 1371.67,-792.62 1409.85,-765.08 1431.08,-715.32 1442.48,-675.88"/>
<polygon fill="#424242" stroke="#424242" points="1445.85,-676.83 1445.11,-666.26 1439.1,-674.98 1445.85,-676.83"/>
</g>
<!-- t_Send Fine_24&#45;&gt;p_r1_q1_q10_q11_+14 -->
<g id="edge70" class="edge">
<title>t_Send Fine_24&#45;&gt;p_r1_q1_q10_q11_+14</title>
<path fill="none" stroke="#424242" d="M1013.13,-387.83C898.38,-370.77 629.36,-339.05 463.59,-464.62 423.52,-494.98 396.41,-543.78 378.88,-586.31"/>
<polygon fill="#424242" stroke="#424242" points="375.64,-584.98 375.19,-595.56 382.15,-587.57 375.64,-584.98"/>
</g>
<!-- t_Send Fine_24&#45;&gt;p_r2_q1_q13_q19_+6 -->
<g id="edge71" class="edge">
<title>t_Send Fine_24&#45;&gt;p_r2_q1_q13_q19_+6</title>
<path fill="none" stroke="#424242" d="M1013.04,-398.7C950.62,-400.47 846.81,-405.51 765.92,-440.62 750.27,-447.42 735.14,-457.2 721.37,-467.68"/>
<polygon fill="#424242" stroke="#424242" points="719.42,-464.77 713.73,-473.71 723.75,-470.27 719.42,-464.77"/>
</g>
<!-- t_Send for Credit Collection_26&#45;&gt;p_r1_q1_q10_q11_+14 -->
<g id="edge74" class="edge">
<title>t_Send for Credit Collection_26&#45;&gt;p_r1_q1_q10_q11_+14</title>
<path fill="none" stroke="#424242" d="M2291.4,-1265.77C2188.92,-1268.62 2002.63,-1268.62 1843.46,-1268.62 655.26,-1268.62 655.26,-1268.62 655.26,-1268.62 564.1,-1268.62 523.05,-1264.72 463.59,-1195.62 408.36,-1131.43 374.37,-891.17 359.74,-759.01"/>
<polygon fill="#424242" stroke="#424242" points="363.23,-758.8 358.67,-749.24 356.28,-759.56 363.23,-758.8"/>
</g>
<!-- t_Send for Credit Collection_27&#45;&gt;p_r1_q1_q10_q11_+14 -->
<g id="edge77" class="edge">
<title>t_Send for Credit Collection_27&#45;&gt;p_r1_q1_q10_q11_+14</title>
<path fill="none" stroke="#424242" d="M990.02,-906.96C867.51,-916.86 626.76,-913.37 463.59,-805.62 439.31,-789.59 416.97,-767.03 398.72,-744.9"/>
<polygon fill="#424242" stroke="#424242" points="401.61,-742.91 392.62,-737.31 396.16,-747.3 401.61,-742.91"/>
</g>
</g>
</svg>
