<?xml version="1.0" encoding="UTF-8" standalone="no"?>
<!DOCTYPE svg PUBLIC "-//W3C//DTD SVG 1.1//EN"
 "http://www.w3.org/Graphics/SVG/1.1/DTD/svg11.dtd">
<!-- Generated by graphviz version 14.1.2 (20260124.0452)
 -->
<!-- Title: efsm Pages: 1 -->
<svg width="5449pt" height="1878pt"
 viewBox="0.00 0.00 5449.00 1878.00" xmlns="http://www.w3.org/2000/svg" xmlns:xlink="http://www.w3.org/1999/xlink">
<g id="graph0" class="graph" transform="scale(2.08333 2.08333) rotate(0) translate(4 897.37)">
<title>efsm</title>
<polygon fill="white" stroke="none" points="-4,4 -4,-897.37 2611.39,-897.37 2611.39,4 -4,4"/>
<text xml:space="preserve" text-anchor="middle" x="1303.7" y="-877.02" font-family="Helvetica,sans-Serif" font-size="13.00">Road Fine — EFSM</text>
<!-- q0 -->
<g id="node1" class="node">
<title>q0</title>
<ellipse fill="#f3e5f5" stroke="#2e7d32" stroke-width="2.5" cx="55.72" cy="-305.87" rx="18" ry="18"/>
<text xml:space="preserve" text-anchor="middle" x="55.72" y="-301.42" font-family="Helvetica,sans-Serif" font-size="11.00">q0</text>
</g>
<!-- q1 -->
<g id="node2" class="node">
<title>q1</title>
<ellipse fill="#f3e5f5" stroke="#616161" cx="274.72" cy="-412.87" rx="18" ry="18"/>
<text xml:space="preserve" text-anchor="middle" x="274.72" y="-408.42" font-family="Helvetica,sans-Serif" font-size="11.00">q1</text>
</g>
<!-- q0&#45;&gt;q1 -->
<g id="edge2" class="edge">
<title>q0&#45;&gt;q1</title>
<path fill="none" stroke="#424242" d="M72.27,-315.08C78.29,-318.56 85.27,-322.49 91.72,-325.87 146.31,-354.46 211.84,-384.85 247.48,-401.06"/>
<polygon fill="#424242" stroke="#424242" points="246.02,-404.24 256.57,-405.18 248.91,-397.86 246.02,-404.24"/>
<text xml:space="preserve" text-anchor="start" x="138.6" y="-415.4" font-family="Helvetica,sans-Serif" font-weight="bold" font-size="10.00">Create Fine</text>
<text xml:space="preserve" text-anchor="start" x="155.1" y="-406.35" font-family="Helvetica,sans-Serif" font-size="9.00" fill="#c62828">[true]</text>
<text xml:space="preserve" text-anchor="start" x="113.47" y="-397.35" font-family="Helvetica,sans-Serif" font-size="9.00" fill="#1565c0">totalPaymentAmount&#39; := 0</text>
</g>
<!-- q3 -->
<g id="node13" class="node">
<title>q3</title>
<ellipse fill="#f3e5f5" stroke="#616161" cx="274.72" cy="-235.87" rx="18" ry="18"/>
<text xml:space="preserve" text-anchor="middle" x="274.72" y="-231.42" font-family="Helvetica,sans-Serif" font-size="11.00">q3</text>
</g>
<!-- q0&#45;&gt;q3 -->
<g id="edge4" class="edge">
<title>q0&#45;&gt;q3</title>
<path fill="none" stroke="#424242" d="M74.11,-300.26C111.77,-288.11 201.09,-259.3 246.38,-244.69"/>
<polygon fill="#424242" stroke="#424242" points="247.26,-248.08 255.7,-241.68 245.11,-241.42 247.26,-248.08"/>
<text xml:space="preserve" text-anchor="start" x="138.6" y="-313.63" font-family="Helvetica,sans-Serif" font-weight="bold" font-size="10.00">Create Fine</text>
<text xml:space="preserve" text-anchor="start" x="155.1" y="-304.58" font-family="Helvetica,sans-Serif" font-size="9.00" fill="#c62828">[true]</text>
<text xml:space="preserve" text-anchor="start" x="91.72" y="-295.58" font-family="Helvetica,sans-Serif" font-size="9.00" fill="#1565c0">points&#39; := 0totalPaymentAmount&#39; := 0</text>
</g>
<!-- q12 -->
<g id="node5" class="node">
<title>q12</title>
<ellipse fill="#fff9c4" stroke="#616161" cx="2582.95" cy="-406.87" rx="20.45" ry="20.45"/>
<ellipse fill="none" stroke="#616161" cx="2582.95" cy="-406.87" rx="24.45" ry="24.45"/>
<text xml:space="preserve" text-anchor="middle" x="2582.95" y="-402.42" font-family="Helvetica,sans-Serif" font-size="11.00">q12</text>
</g>
<!-- q1&#45;&gt;q12 -->
<g id="edge3" class="edge">
<title>q1&#45;&gt;q12</title>
<path fill="none" stroke="#424242" d="M292.8,-410.73C356.07,-402.98 583.16,-376.87 771.17,-376.87 771.17,-376.87 771.17,-376.87 1355.75,-376.87 1819.97,-376.87 1937.5,-340.95 2400.25,-377.87 2451.97,-382 2511.2,-392.56 2547.59,-399.73"/>
<polygon fill="#424242" stroke="#424242" points="2546.59,-403.1 2557.09,-401.63 2547.97,-396.24 2546.59,-403.1"/>
<text xml:space="preserve" text-anchor="start" x="1331.13" y="-387.37" font-family="Helvetica,sans-Serif" font-weight="bold" font-size="10.00">Send Fine</text>
<text xml:space="preserve" text-anchor="start" x="1344.63" y="-378.32" font-family="Helvetica,sans-Serif" font-size="9.00" fill="#c62828">[true]</text>
</g>
<!-- q1&#45;&gt;q12 -->
<g id="edge19" class="edge">
<title>q1&#45;&gt;q12</title>
<path fill="none" stroke="#424242" d="M279.11,-430.64C283.63,-450.74 293.17,-483.68 310.72,-506.87 463.73,-709.11 517.57,-843.87 771.17,-843.87 771.17,-843.87 771.17,-843.87 2273.38,-843.87 2394.5,-843.87 2458.87,-879.35 2540.5,-789.87 2563.64,-764.51 2576.32,-533.54 2580.44,-443.02"/>
<polygon fill="#424242" stroke="#424242" points="2583.92,-443.37 2580.87,-433.22 2576.93,-443.06 2583.92,-443.37"/>
<text xml:space="preserve" text-anchor="start" x="1334.5" y="-863.37" font-family="Helvetica,sans-Serif" font-weight="bold" font-size="10.00">Payment</text>
<text xml:space="preserve" text-anchor="start" x="1344.63" y="-854.32" font-family="Helvetica,sans-Serif" font-size="9.00" fill="#c62828">[true]</text>
<text xml:space="preserve" text-anchor="start" x="1143.25" y="-845.32" font-family="Helvetica,sans-Serif" font-size="9.00" fill="#1565c0">paymentAmount&#39; := (+ amount paymentAmount)totalPaymentAmount&#39; := (+ amount totalPaymentAmount)</text>
</g>
<!-- q5 -->
<g id="node15" class="node">
<title>q5</title>
<ellipse fill="#f3e5f5" stroke="#616161" cx="772.17" cy="-490.87" rx="18" ry="18"/>
<text xml:space="preserve" text-anchor="middle" x="772.17" y="-486.42" font-family="Helvetica,sans-Serif" font-size="11.00">q5</text>
</g>
<!-- q1&#45;&gt;q5 -->
<g id="edge6" class="edge">
<title>q1&#45;&gt;q5</title>
<path fill="none" stroke="#424242" d="M292.77,-415.55C365.65,-427.03 651.33,-472 742.82,-486.41"/>
<polygon fill="#424242" stroke="#424242" points="742.01,-489.82 752.43,-487.92 743.1,-482.91 742.01,-489.82"/>
<text xml:space="preserve" text-anchor="start" x="498.6" y="-494.7" font-family="Helvetica,sans-Serif" font-weight="bold" font-size="10.00">Send Fine</text>
<text xml:space="preserve" text-anchor="start" x="512.1" y="-485.65" font-family="Helvetica,sans-Serif" font-size="9.00" fill="#c62828">[true]</text>
</g>
<!-- q10 -->
<g id="node3" class="node">
<title>q10</title>
<ellipse fill="#f3e5f5" stroke="#616161" cx="1104.81" cy="-187.87" rx="20.45" ry="20.45"/>
<text xml:space="preserve" text-anchor="middle" x="1104.81" y="-183.42" font-family="Helvetica,sans-Serif" font-size="11.00">q10</text>
</g>
<!-- q11 -->
<g id="node4" class="node">
<title>q11</title>
<ellipse fill="#f3e5f5" stroke="#616161" cx="2272.38" cy="-115.87" rx="20.45" ry="20.45"/>
<text xml:space="preserve" text-anchor="middle" x="2272.38" y="-111.42" font-family="Helvetica,sans-Serif" font-size="11.00">q11</text>
</g>
<!-- q10&#45;&gt;q11 -->
<g id="edge12" class="edge">
<title>q10&#45;&gt;q11</title>
<path fill="none" stroke="#424242" d="M1125.62,-185.7C1131.31,-185.09 1137.53,-184.44 1143.25,-183.87 1339.12,-164.3 1387.89,-156.65 1584.25,-142.87 1705.76,-134.34 1736.3,-134.82 1858,-129.87 2000.82,-124.06 2171.45,-118.82 2240.31,-116.78"/>
<polygon fill="#424242" stroke="#424242" points="2240.18,-120.28 2250.07,-116.49 2239.97,-113.29 2240.18,-120.28"/>
<text xml:space="preserve" text-anchor="start" x="1684" y="-153.37" font-family="Helvetica,sans-Serif" font-weight="bold" font-size="10.00">Add penalty</text>
<text xml:space="preserve" text-anchor="start" x="1589.88" y="-144.32" font-family="Helvetica,sans-Serif" font-size="9.00" fill="#c62828">[(and (&lt; (+ 24 (* &#45;1 amount)) 0) (&gt;= (+ 73/2 (* &#45;1 amount)) 0))]</text>
</g>
<!-- q13 -->
<g id="node6" class="node">
<title>q13</title>
<ellipse fill="#f3e5f5" stroke="#616161" cx="1712.13" cy="-190.87" rx="20.45" ry="20.45"/>
<text xml:space="preserve" text-anchor="middle" x="1712.13" y="-186.42" font-family="Helvetica,sans-Serif" font-size="11.00">q13</text>
</g>
<!-- q10&#45;&gt;q13 -->
<g id="edge14" class="edge">
<title>q10&#45;&gt;q13</title>
<path fill="none" stroke="#424242" d="M1125.6,-187.97C1213.89,-188.41 1572.1,-190.18 1680.14,-190.72"/>
<polygon fill="#424242" stroke="#424242" points="1679.95,-194.21 1689.97,-190.76 1679.99,-187.21 1679.95,-194.21"/>
<text xml:space="preserve" text-anchor="start" x="1326.63" y="-200.64" font-family="Helvetica,sans-Serif" font-weight="bold" font-size="10.00">Add penalty</text>
<text xml:space="preserve" text-anchor="start" x="1232.5" y="-191.59" font-family="Helvetica,sans-Serif" font-size="9.00" fill="#c62828">[(=&gt; (&gt;= (+ 73/2 (* &#45;1 amount)) 0) (&gt;= (+ 24 (* &#45;1 amount)) 0))]</text>
</g>
<!-- q21 -->
<g id="node10" class="node">
<title>q21</title>
<ellipse fill="#f3e5f5" stroke="#616161" cx="1712.13" cy="-424.87" rx="20.45" ry="20.45"/>
<text xml:space="preserve" text-anchor="middle" x="1712.13" y="-420.42" font-family="Helvetica,sans-Serif" font-size="11.00">q21</text>
</g>
<!-- q10&#45;&gt;q21 -->
<g id="edge39" class="edge">
<title>q10&#45;&gt;q21</title>
<path fill="none" stroke="#424242" d="M1110.01,-208.01C1114.85,-225.9 1124.66,-251.26 1143.25,-264.87 1296.58,-377.1 1404.8,-226.68 1566.25,-326.87 1578.19,-334.28 1573.88,-343.39 1584.25,-352.87 1613.66,-379.76 1654.84,-400.79 1682.21,-413.01"/>
<polygon fill="#424242" stroke="#424242" points="1680.72,-416.18 1691.29,-416.95 1683.51,-409.75 1680.72,-416.18"/>
<text xml:space="preserve" text-anchor="start" x="1334.5" y="-346.37" font-family="Helvetica,sans-Serif" font-weight="bold" font-size="10.00">Payment</text>
<text xml:space="preserve" text-anchor="start" x="1344.63" y="-337.32" font-family="Helvetica,sans-Serif" font-size="9.00" fill="#c62828">[true]</text>
<text xml:space="preserve" text-anchor="start" x="1226.88" y="-328.32" font-family="Helvetica,sans-Serif" font-size="9.00" fill="#1565c0">paymentAmount&#39; := paymentAmounttotalPaymentAmount&#39; := 46</text>
</g>
<!-- q11&#45;&gt;q12 -->
<g id="edge13" class="edge">
<title>q11&#45;&gt;q12</title>
<path fill="none" stroke="#424242" d="M2292.3,-110.58C2340.8,-98.28 2470.62,-73.55 2540.5,-138.87 2573.53,-169.74 2580.33,-305.12 2581.66,-370.83"/>
<polygon fill="#424242" stroke="#424242" points="2578.16,-370.79 2581.83,-380.73 2585.16,-370.68 2578.16,-370.79"/>
<text xml:space="preserve" text-anchor="start" x="2418.25" y="-149.37" font-family="Helvetica,sans-Serif" font-weight="bold" font-size="10.00">Send for Credit Collection</text>
<text xml:space="preserve" text-anchor="start" x="2469.25" y="-140.32" font-family="Helvetica,sans-Serif" font-size="9.00" fill="#c62828">[true]</text>
</g>
<!-- q13&#45;&gt;q11 -->
<g id="edge38" class="edge">
<title>q13&#45;&gt;q11</title>
<path fill="none" stroke="#424242" d="M1732.12,-185.47C1771.05,-174.4 1856.41,-150.16 1858,-149.87 1876.76,-146.48 2147.29,-125.44 2240.27,-118.26"/>
<polygon fill="#424242" stroke="#424242" points="2240.47,-121.76 2250.17,-117.5 2239.93,-114.78 2240.47,-121.76"/>
<text xml:space="preserve" text-anchor="start" x="1972" y="-169.37" font-family="Helvetica,sans-Serif" font-weight="bold" font-size="10.00">Payment</text>
<text xml:space="preserve" text-anchor="start" x="1939.75" y="-160.32" font-family="Helvetica,sans-Serif" font-size="9.00" fill="#c62828">[(&lt; (+ 47 (* &#45;1 amount)) 0)]</text>
<text xml:space="preserve" text-anchor="start" x="1858" y="-151.32" font-family="Helvetica,sans-Serif" font-size="9.00" fill="#1565c0">paymentAmount&#39; := paymentAmounttotalPaymentAmount&#39; := 103/2</text>
</g>
<!-- q13&#45;&gt;q12 -->
<g id="edge15" class="edge">
<title>q13&#45;&gt;q12</title>
<path fill="none" stroke="#424242" d="M1733.04,-190.17C1831.37,-186.83 2265.76,-173.04 2400.25,-185.87 2463.44,-191.9 2495.16,-168.44 2540.5,-212.87 2562.59,-234.52 2574.09,-321.28 2578.98,-371.13"/>
<polygon fill="#424242" stroke="#424242" points="2575.47,-371.22 2579.89,-380.85 2582.44,-370.57 2575.47,-371.22"/>
<text xml:space="preserve" text-anchor="start" x="2211.25" y="-196.37" font-family="Helvetica,sans-Serif" font-weight="bold" font-size="10.00">Send for Credit Collection</text>
<text xml:space="preserve" text-anchor="start" x="2262.25" y="-187.32" font-family="Helvetica,sans-Serif" font-size="9.00" fill="#c62828">[true]</text>
</g>
<!-- q13&#45;&gt;q12 -->
<g id="edge32" class="edge">
<title>q13&#45;&gt;q12</title>
<path fill="none" stroke="#424242" d="M1732.73,-191.96C1830.47,-197.48 2265.88,-222.64 2400.25,-240.87 2463.24,-249.41 2493.48,-226.1 2540.5,-268.87 2568.97,-294.76 2578.19,-339.37 2581.02,-370.85"/>
<polygon fill="#424242" stroke="#424242" points="2577.52,-370.97 2581.71,-380.7 2584.5,-370.48 2577.52,-370.97"/>
<text xml:space="preserve" text-anchor="start" x="2252.13" y="-260.37" font-family="Helvetica,sans-Serif" font-weight="bold" font-size="10.00">Payment</text>
<text xml:space="preserve" text-anchor="start" x="2217.25" y="-251.32" font-family="Helvetica,sans-Serif" font-size="9.00" fill="#c62828">[(&gt;= (+ 47 (* &#45;1 amount)) 0)]</text>
<text xml:space="preserve" text-anchor="start" x="2144.5" y="-242.32" font-family="Helvetica,sans-Serif" font-size="9.00" fill="#1565c0">paymentAmount&#39; := paymentAmounttotalPaymentAmount&#39; := 62</text>
</g>
<!-- q15 -->
<g id="node7" class="node">
<title>q15</title>
<ellipse fill="#f3e5f5" stroke="#616161" cx="1712.13" cy="-595.87" rx="20.45" ry="20.45"/>
<text xml:space="preserve" text-anchor="middle" x="1712.13" y="-591.42" font-family="Helvetica,sans-Serif" font-size="11.00">q15</text>
</g>
<!-- q16 -->
<g id="node8" class="node">
<title>q16</title>
<ellipse fill="#f3e5f5" stroke="#616161" cx="2272.38" cy="-638.87" rx="20.45" ry="20.45"/>
<text xml:space="preserve" text-anchor="middle" x="2272.38" y="-634.42" font-family="Helvetica,sans-Serif" font-size="11.00">q16</text>
</g>
<!-- q15&#45;&gt;q16 -->
<g id="edge17" class="edge">
<title>q15&#45;&gt;q16</title>
<path fill="none" stroke="#424242" d="M1732.96,-596.4C1792.61,-598.11 1975.54,-604.27 2126.5,-618.87 2166.04,-622.69 2211.36,-629.31 2240.63,-633.88"/>
<polygon fill="#424242" stroke="#424242" points="2239.83,-637.3 2250.26,-635.41 2240.93,-630.39 2239.83,-637.3"/>
<text xml:space="preserve" text-anchor="start" x="1964.13" y="-629.37" font-family="Helvetica,sans-Serif" font-weight="bold" font-size="10.00">Add penalty</text>
<text xml:space="preserve" text-anchor="start" x="1982.13" y="-620.32" font-family="Helvetica,sans-Serif" font-size="9.00" fill="#c62828">[true]</text>
</g>
<!-- q16&#45;&gt;q12 -->
<g id="edge18" class="edge">
<title>q16&#45;&gt;q12</title>
<path fill="none" stroke="#424242" d="M2293.02,-641.56C2342.09,-647.07 2471.03,-654.02 2540.5,-586.87 2560.81,-567.24 2572.8,-489.39 2578.29,-442.74"/>
<polygon fill="#424242" stroke="#424242" points="2581.77,-443.16 2579.41,-432.83 2574.81,-442.37 2581.77,-443.16"/>
<text xml:space="preserve" text-anchor="start" x="2419" y="-649.92" font-family="Helvetica,sans-Serif" font-weight="bold" font-size="10.00">Send Appeal to Prefecture</text>
<text xml:space="preserve" text-anchor="start" x="2469.25" y="-640.87" font-family="Helvetica,sans-Serif" font-size="9.00" fill="#c62828">[true]</text>
</g>
<!-- q19 -->
<g id="node9" class="node">
<title>q19</title>
<ellipse fill="#f3e5f5" stroke="#616161" cx="772.17" cy="-328.87" rx="20.45" ry="20.45"/>
<text xml:space="preserve" text-anchor="middle" x="772.17" y="-324.42" font-family="Helvetica,sans-Serif" font-size="11.00">q19</text>
</g>
<!-- q19&#45;&gt;q12 -->
<g id="edge21" class="edge">
<title>q19&#45;&gt;q12</title>
<path fill="none" stroke="#424242" d="M792.94,-328.52C981.7,-325.24 2459.75,-300.97 2540.5,-344.87 2552.26,-351.26 2561.28,-362.6 2567.85,-373.85"/>
<polygon fill="#424242" stroke="#424242" points="2564.75,-375.45 2572.51,-382.67 2570.94,-372.19 2564.75,-375.45"/>
<text xml:space="preserve" text-anchor="start" x="1688.5" y="-338.93" font-family="Helvetica,sans-Serif" font-weight="bold" font-size="10.00">Send Fine</text>
<text xml:space="preserve" text-anchor="start" x="1650.63" y="-329.88" font-family="Helvetica,sans-Serif" font-size="9.00" fill="#c62828">[(&gt;= (+ 164/5 (* &#45;1 amount)) 0)]</text>
<text xml:space="preserve" text-anchor="start" x="1670.13" y="-320.88" font-family="Helvetica,sans-Serif" font-size="9.00" fill="#1565c0">expense&#39; := expense</text>
</g>
<!-- q40 -->
<g id="node14" class="node">
<title>q40</title>
<ellipse fill="#f3e5f5" stroke="#616161" cx="1104.81" cy="-424.87" rx="20.45" ry="20.45"/>
<text xml:space="preserve" text-anchor="middle" x="1104.81" y="-420.42" font-family="Helvetica,sans-Serif" font-size="11.00">q40</text>
</g>
<!-- q19&#45;&gt;q40 -->
<g id="edge41" class="edge">
<title>q19&#45;&gt;q40</title>
<path fill="none" stroke="#424242" d="M791.28,-336.66C797.36,-339.13 804.23,-341.76 810.61,-343.87 922.2,-380.68 954.35,-375.36 1066.36,-410.87 1069.08,-411.73 1071.89,-412.68 1074.7,-413.66"/>
<polygon fill="#424242" stroke="#424242" points="1073.25,-416.86 1083.85,-417 1075.65,-410.28 1073.25,-416.86"/>
<text xml:space="preserve" text-anchor="start" x="914.86" y="-430.37" font-family="Helvetica,sans-Serif" font-weight="bold" font-size="10.00">Send Fine</text>
<text xml:space="preserve" text-anchor="start" x="879.61" y="-421.32" font-family="Helvetica,sans-Serif" font-size="9.00" fill="#c62828">[(&lt; (+ 164/5 (* &#45;1 amount)) 0)]</text>
<text xml:space="preserve" text-anchor="start" x="896.49" y="-412.32" font-family="Helvetica,sans-Serif" font-size="9.00" fill="#1565c0">expense&#39; := expense</text>
</g>
<!-- q22 -->
<g id="node11" class="node">
<title>q22</title>
<ellipse fill="#f3e5f5" stroke="#616161" cx="2272.38" cy="-406.87" rx="20.45" ry="20.45"/>
<text xml:space="preserve" text-anchor="middle" x="2272.38" y="-402.42" font-family="Helvetica,sans-Serif" font-size="11.00">q22</text>
</g>
<!-- q21&#45;&gt;q22 -->
<g id="edge23" class="edge">
<title>q21&#45;&gt;q22</title>
<path fill="none" stroke="#424242" d="M1732.12,-419.28C1759.6,-411.52 1812.17,-397.87 1858,-392.87 2000.43,-377.33 2171.94,-394.52 2240.69,-402.86"/>
<polygon fill="#424242" stroke="#424242" points="2240.08,-406.31 2250.43,-404.07 2240.94,-399.36 2240.08,-406.31"/>
<text xml:space="preserve" text-anchor="start" x="1964.13" y="-403.37" font-family="Helvetica,sans-Serif" font-weight="bold" font-size="10.00">Add penalty</text>
<text xml:space="preserve" text-anchor="start" x="1982.13" y="-394.32" font-family="Helvetica,sans-Serif" font-size="9.00" fill="#c62828">[true]</text>
</g>
<!-- q22&#45;&gt;q12 -->
<g id="edge24" class="edge">
<title>q22&#45;&gt;q12</title>
<path fill="none" stroke="#424242" d="M2293.15,-406.87C2344.37,-406.87 2481.88,-406.87 2546.93,-406.87"/>
<polygon fill="#424242" stroke="#424242" points="2546.68,-410.37 2556.68,-406.87 2546.68,-403.37 2546.68,-410.37"/>
<text xml:space="preserve" text-anchor="start" x="2459.13" y="-417.37" font-family="Helvetica,sans-Serif" font-weight="bold" font-size="10.00">Payment</text>
<text xml:space="preserve" text-anchor="start" x="2469.25" y="-408.32" font-family="Helvetica,sans-Serif" font-size="9.00" fill="#c62828">[true]</text>
</g>
<!-- q24 -->
<g id="node12" class="node">
<title>q24</title>
<ellipse fill="#f3e5f5" stroke="#616161" cx="1712.13" cy="-500.87" rx="20.45" ry="20.45"/>
<text xml:space="preserve" text-anchor="middle" x="1712.13" y="-496.42" font-family="Helvetica,sans-Serif" font-size="11.00">q24</text>
</g>
<!-- q24&#45;&gt;q12 -->
<g id="edge26" class="edge">
<title>q24&#45;&gt;q12</title>
<path fill="none" stroke="#424242" d="M1732.81,-500.74C1814.68,-500.16 2136.2,-497.22 2400.25,-485.87 2462.66,-483.19 2487.26,-509.53 2540.5,-476.87 2554.03,-468.57 2563.67,-454.07 2570.22,-440.42"/>
<polygon fill="#424242" stroke="#424242" points="2573.26,-442.21 2574.04,-431.64 2566.84,-439.41 2573.26,-442.21"/>
<text xml:space="preserve" text-anchor="start" x="2252.13" y="-504.64" font-family="Helvetica,sans-Serif" font-weight="bold" font-size="10.00">Payment</text>
<text xml:space="preserve" text-anchor="start" x="2214.63" y="-495.59" font-family="Helvetica,sans-Serif" font-size="9.00" fill="#c62828">[(&gt;= (+ 397 (* &#45;1 amount)) 0)]</text>
</g>
<!-- q24&#45;&gt;q12 -->
<g id="edge29" class="edge">
<title>q24&#45;&gt;q12</title>
<path fill="none" stroke="#424242" d="M1732.9,-499.09C1794.08,-493.61 1985.7,-476.48 2144.5,-462.87 2320.47,-447.79 2371.52,-481.2 2540.5,-429.87 2544.32,-428.71 2548.18,-427.17 2551.92,-425.42"/>
<polygon fill="#424242" stroke="#424242" points="2553.46,-428.57 2560.71,-420.84 2550.23,-422.36 2553.46,-428.57"/>
<text xml:space="preserve" text-anchor="start" x="2211.25" y="-473.37" font-family="Helvetica,sans-Serif" font-weight="bold" font-size="10.00">Send for Credit Collection</text>
<text xml:space="preserve" text-anchor="start" x="2262.25" y="-464.32" font-family="Helvetica,sans-Serif" font-size="9.00" fill="#c62828">[true]</text>
</g>
<!-- q24&#45;&gt;q22 -->
<g id="edge31" class="edge">
<title>q24&#45;&gt;q22</title>
<path fill="none" stroke="#424242" d="M1732.45,-496.64C1758.47,-490.32 1805.5,-476.65 1840,-453.87 1849.71,-447.46 1847.48,-439.82 1858,-434.87 1875.23,-426.76 2146.76,-412.91 2240.13,-408.36"/>
<polygon fill="#424242" stroke="#424242" points="2240.26,-411.86 2250.08,-407.88 2239.92,-404.87 2240.26,-411.86"/>
<text xml:space="preserve" text-anchor="start" x="1972" y="-454.37" font-family="Helvetica,sans-Serif" font-weight="bold" font-size="10.00">Payment</text>
<text xml:space="preserve" text-anchor="start" x="1937.13" y="-445.32" font-family="Helvetica,sans-Serif" font-size="9.00" fill="#c62828">[(&lt; (+ 397 (* &#45;1 amount)) 0)]</text>
<text xml:space="preserve" text-anchor="start" x="1861.75" y="-436.32" font-family="Helvetica,sans-Serif" font-size="9.00" fill="#1565c0">paymentAmount&#39; := paymentAmounttotalPaymentAmount&#39; := 357</text>
</g>
<!-- q3&#45;&gt;q12 -->
<g id="edge5" class="edge">
<title>q3&#45;&gt;q12</title>
<path fill="none" stroke="#424242" d="M293.14,-235.79C382.76,-235.37 800.98,-233.46 1143.25,-232.87 1331.25,-232.54 1378.46,-223.93 1566.25,-232.87 1620.56,-235.46 2495.52,-295.33 2540.5,-325.87 2556.47,-336.72 2566.64,-355.67 2572.91,-372.52"/>
<polygon fill="#424242" stroke="#424242" points="2569.5,-373.37 2576,-381.74 2576.14,-371.15 2569.5,-373.37"/>
<text xml:space="preserve" text-anchor="start" x="1334.5" y="-252.37" font-family="Helvetica,sans-Serif" font-weight="bold" font-size="10.00">Payment</text>
<text xml:space="preserve" text-anchor="start" x="1344.63" y="-243.32" font-family="Helvetica,sans-Serif" font-size="9.00" fill="#c62828">[true]</text>
<text xml:space="preserve" text-anchor="start" x="1143.25" y="-234.32" font-family="Helvetica,sans-Serif" font-size="9.00" fill="#1565c0">paymentAmount&#39; := (+ amount paymentAmount)totalPaymentAmount&#39; := (+ amount totalPaymentAmount)</text>
</g>
<!-- q3&#45;&gt;q12 -->
<g id="edge27" class="edge">
<title>q3&#45;&gt;q12</title>
<path fill="none" stroke="#424242" d="M279.39,-218.25C283.89,-200.99 293.17,-175.11 310.72,-159.87 472.01,-19.77 557.53,-21.87 771.17,-21.87 771.17,-21.87 771.17,-21.87 2273.38,-21.87 2392.5,-21.87 2454.95,39.03 2540.5,-43.87 2563.72,-66.37 2576.25,-283.33 2580.38,-370.69"/>
<polygon fill="#424242" stroke="#424242" points="2576.88,-370.79 2580.84,-380.61 2583.88,-370.46 2576.88,-370.79"/>
<text xml:space="preserve" text-anchor="start" x="1331.13" y="-32.37" font-family="Helvetica,sans-Serif" font-weight="bold" font-size="10.00">Send Fine</text>
<text xml:space="preserve" text-anchor="start" x="1344.63" y="-23.32" font-family="Helvetica,sans-Serif" font-size="9.00" fill="#c62828">[true]</text>
</g>
<!-- q3&#45;&gt;q19 -->
<g id="edge20" class="edge">
<title>q3&#45;&gt;q19</title>
<path fill="none" stroke="#424242" d="M291.5,-243C297.43,-245.46 304.3,-248.06 310.72,-249.87 468.95,-294.55 665.3,-318 740.19,-325.83"/>
<polygon fill="#424242" stroke="#424242" points="739.73,-329.3 750.03,-326.84 740.44,-322.34 739.73,-329.3"/>
<text xml:space="preserve" text-anchor="start" x="501.97" y="-344.31" font-family="Helvetica,sans-Serif" font-weight="bold" font-size="10.00">Payment</text>
<text xml:space="preserve" text-anchor="start" x="512.1" y="-335.26" font-family="Helvetica,sans-Serif" font-size="9.00" fill="#c62828">[true]</text>
<text xml:space="preserve" text-anchor="start" x="310.72" y="-326.26" font-family="Helvetica,sans-Serif" font-size="9.00" fill="#1565c0">paymentAmount&#39; := (+ amount paymentAmount)totalPaymentAmount&#39; := (+ amount totalPaymentAmount)</text>
</g>
<!-- q9 -->
<g id="node18" class="node">
<title>q9</title>
<ellipse fill="#f3e5f5" stroke="#616161" cx="772.17" cy="-187.87" rx="18" ry="18"/>
<text xml:space="preserve" text-anchor="middle" x="772.17" y="-183.42" font-family="Helvetica,sans-Serif" font-size="11.00">q9</text>
</g>
<!-- q3&#45;&gt;q9 -->
<g id="edge10" class="edge">
<title>q3&#45;&gt;q9</title>
<path fill="none" stroke="#424242" d="M286.41,-221.77C292.65,-214.71 301.16,-206.85 310.72,-202.87 463.21,-139.42 669.3,-168.57 743.29,-182.22"/>
<polygon fill="#424242" stroke="#424242" points="742.42,-185.62 752.9,-184.05 743.73,-178.74 742.42,-185.62"/>
<text xml:space="preserve" text-anchor="start" x="498.6" y="-213.37" font-family="Helvetica,sans-Serif" font-weight="bold" font-size="10.00">Send Fine</text>
<text xml:space="preserve" text-anchor="start" x="512.1" y="-204.32" font-family="Helvetica,sans-Serif" font-size="9.00" fill="#c62828">[true]</text>
</g>
<!-- q40&#45;&gt;q21 -->
<g id="edge37" class="edge">
<title>q40&#45;&gt;q21</title>
<path fill="none" stroke="#424242" d="M1125.19,-421.78C1130.99,-421 1137.36,-420.26 1143.25,-419.87 1330.84,-407.4 1378.28,-416.63 1566.25,-419.87 1605.62,-420.55 1650.98,-422.26 1680.3,-423.5"/>
<polygon fill="#424242" stroke="#424242" points="1679.8,-426.98 1689.94,-423.91 1680.1,-419.99 1679.8,-426.98"/>
<text xml:space="preserve" text-anchor="start" x="1301.5" y="-430.37" font-family="Helvetica,sans-Serif" font-weight="bold" font-size="10.00">Insert Fine Notification</text>
<text xml:space="preserve" text-anchor="start" x="1344.63" y="-421.32" font-family="Helvetica,sans-Serif" font-size="9.00" fill="#c62828">[true]</text>
</g>
<!-- q5&#45;&gt;q12 -->
<g id="edge34" class="edge">
<title>q5&#45;&gt;q12</title>
<path fill="none" stroke="#424242" d="M780.53,-506.89C810.68,-569.85 931.35,-796.87 1103.81,-796.87 1103.81,-796.87 1103.81,-796.87 2273.38,-796.87 2394.24,-796.87 2461.05,-836.96 2540.5,-745.87 2579.33,-701.35 2582.82,-520.74 2582.46,-442.87"/>
<polygon fill="#424242" stroke="#424242" points="2585.97,-443.22 2582.39,-433.24 2578.97,-443.27 2585.97,-443.22"/>
<text xml:space="preserve" text-anchor="start" x="1691.88" y="-807.37" font-family="Helvetica,sans-Serif" font-weight="bold" font-size="10.00">Payment</text>
<text xml:space="preserve" text-anchor="start" x="1653.63" y="-798.32" font-family="Helvetica,sans-Serif" font-size="9.00" fill="#c62828">[(&gt;= (+ 201/2 (* &#45;1 article)) 0)]</text>
</g>
<!-- q5&#45;&gt;q40 -->
<g id="edge36" class="edge">
<title>q5&#45;&gt;q40</title>
<path fill="none" stroke="#424242" d="M785.51,-478.31C792.3,-472.22 801.25,-465.46 810.61,-461.87 917.02,-421.02 956.24,-472.29 1066.36,-442.87 1069.56,-442.01 1072.82,-440.89 1076.01,-439.61"/>
<polygon fill="#424242" stroke="#424242" points="1077.38,-442.83 1085.05,-435.51 1074.49,-436.46 1077.38,-442.83"/>
<text xml:space="preserve" text-anchor="start" x="918.24" y="-481.37" font-family="Helvetica,sans-Serif" font-weight="bold" font-size="10.00">Payment</text>
<text xml:space="preserve" text-anchor="start" x="882.61" y="-472.32" font-family="Helvetica,sans-Serif" font-size="9.00" fill="#c62828">[(&lt; (+ 201/2 (* &#45;1 article)) 0)]</text>
<text xml:space="preserve" text-anchor="start" x="810.61" y="-463.32" font-family="Helvetica,sans-Serif" font-size="9.00" fill="#1565c0">paymentAmount&#39; := paymentAmounttotalPaymentAmount&#39; := 42</text>
</g>
<!-- q6 -->
<g id="node16" class="node">
<title>q6</title>
<ellipse fill="#f3e5f5" stroke="#616161" cx="1104.81" cy="-518.87" rx="18" ry="18"/>
<text xml:space="preserve" text-anchor="middle" x="1104.81" y="-514.42" font-family="Helvetica,sans-Serif" font-size="11.00">q6</text>
</g>
<!-- q5&#45;&gt;q6 -->
<g id="edge7" class="edge">
<title>q5&#45;&gt;q6</title>
<path fill="none" stroke="#424242" d="M790.48,-492.34C844.26,-496.89 1008.86,-510.83 1075.43,-516.47"/>
<polygon fill="#424242" stroke="#424242" points="1074.9,-519.93 1085.16,-517.29 1075.49,-512.96 1074.9,-519.93"/>
<text xml:space="preserve" text-anchor="start" x="885.24" y="-525.9" font-family="Helvetica,sans-Serif" font-weight="bold" font-size="10.00">Insert Fine Notification</text>
<text xml:space="preserve" text-anchor="start" x="928.36" y="-516.85" font-family="Helvetica,sans-Serif" font-size="9.00" fill="#c62828">[true]</text>
</g>
<!-- q6&#45;&gt;q15 -->
<g id="edge16" class="edge">
<title>q6&#45;&gt;q15</title>
<path fill="none" stroke="#424242" d="M1112.19,-535.55C1118.12,-548.5 1128.3,-565.58 1143.25,-573.87 1190.2,-599.88 1567.6,-597.57 1679.79,-596.29"/>
<polygon fill="#424242" stroke="#424242" points="1679.78,-599.79 1689.74,-596.17 1679.7,-592.79 1679.78,-599.79"/>
<text xml:space="preserve" text-anchor="start" x="1281.25" y="-607.48" font-family="Helvetica,sans-Serif" font-weight="bold" font-size="10.00">Insert Date Appeal to Prefecture</text>
<text xml:space="preserve" text-anchor="start" x="1216" y="-598.43" font-family="Helvetica,sans-Serif" font-size="9.00" fill="#c62828">[(=&gt; (&gt;= (+ 71/2 (* &#45;1 amount)) 0) (&gt;= (+ 1671/200 (* &#45;1 expense)) 0))]</text>
</g>
<!-- q6&#45;&gt;q21 -->
<g id="edge22" class="edge">
<title>q6&#45;&gt;q21</title>
<path fill="none" stroke="#424242" d="M1122.42,-513.61C1128.86,-511.79 1136.34,-509.94 1143.25,-508.87 1236.25,-494.54 1480.15,-527.82 1566.25,-489.87 1576.6,-485.31 1574.73,-477.98 1584.25,-471.87 1614.57,-452.43 1654.08,-439.42 1680.9,-432.11"/>
<polygon fill="#424242" stroke="#424242" points="1681.64,-435.53 1690.43,-429.62 1679.87,-428.76 1681.64,-435.53"/>
<text xml:space="preserve" text-anchor="start" x="1334.5" y="-519.37" font-family="Helvetica,sans-Serif" font-weight="bold" font-size="10.00">Payment</text>
<text xml:space="preserve" text-anchor="start" x="1344.63" y="-510.32" font-family="Helvetica,sans-Serif" font-size="9.00" fill="#c62828">[true]</text>
</g>
<!-- q6&#45;&gt;q21 -->
<g id="edge33" class="edge">
<title>q6&#45;&gt;q21</title>
<path fill="none" stroke="#424242" d="M1111.27,-501.6C1116.83,-487.17 1126.98,-467.46 1143.25,-457.87 1183.78,-433.98 1519.32,-442.19 1566.25,-438.87 1605.69,-436.08 1651.03,-431.47 1680.33,-428.31"/>
<polygon fill="#424242" stroke="#424242" points="1680.4,-431.82 1689.97,-427.26 1679.64,-424.86 1680.4,-431.82"/>
<text xml:space="preserve" text-anchor="start" x="1316.5" y="-477.37" font-family="Helvetica,sans-Serif" font-weight="bold" font-size="10.00">Appeal to Judge</text>
<text xml:space="preserve" text-anchor="start" x="1344.63" y="-468.32" font-family="Helvetica,sans-Serif" font-size="9.00" fill="#c62828">[true]</text>
<text xml:space="preserve" text-anchor="start" x="1326.63" y="-459.32" font-family="Helvetica,sans-Serif" font-size="9.00" fill="#1565c0">matricola&#39; := 0</text>
</g>
<!-- q6&#45;&gt;q24 -->
<g id="edge25" class="edge">
<title>q6&#45;&gt;q24</title>
<path fill="none" stroke="#424242" d="M1121.9,-525.78C1128.4,-528.22 1136.06,-530.66 1143.25,-531.87 1328.63,-563.13 1379.3,-551.65 1566.25,-531.87 1606.49,-527.61 1651.99,-516.88 1681.08,-509.24"/>
<polygon fill="#424242" stroke="#424242" points="1681.9,-512.64 1690.66,-506.67 1680.09,-505.88 1681.9,-512.64"/>
<text xml:space="preserve" text-anchor="start" x="1326.63" y="-561.74" font-family="Helvetica,sans-Serif" font-weight="bold" font-size="10.00">Add penalty</text>
<text xml:space="preserve" text-anchor="start" x="1344.63" y="-552.69" font-family="Helvetica,sans-Serif" font-size="9.00" fill="#c62828">[true]</text>
</g>
<!-- q7 -->
<g id="node17" class="node">
<title>q7</title>
<ellipse fill="#f3e5f5" stroke="#616161" cx="1712.13" cy="-651.87" rx="18" ry="18"/>
<text xml:space="preserve" text-anchor="middle" x="1712.13" y="-647.42" font-family="Helvetica,sans-Serif" font-size="11.00">q7</text>
</g>
<!-- q6&#45;&gt;q7 -->
<g id="edge8" class="edge">
<title>q6&#45;&gt;q7</title>
<path fill="none" stroke="#424242" d="M1106.77,-536.97C1109.09,-560.37 1116.92,-600.43 1143.25,-619.87 1312.99,-745.2 1595.01,-683.6 1683.61,-659.81"/>
<polygon fill="#424242" stroke="#424242" points="1684.41,-663.22 1693.12,-657.19 1682.55,-656.47 1684.41,-663.22"/>
<text xml:space="preserve" text-anchor="start" x="1326.63" y="-706.52" font-family="Helvetica,sans-Serif" font-weight="bold" font-size="10.00">Add penalty</text>
<text xml:space="preserve" text-anchor="start" x="1344.63" y="-697.47" font-family="Helvetica,sans-Serif" font-size="9.00" fill="#c62828">[true]</text>
</g>
<!-- q7&#45;&gt;q12 -->
<g id="edge9" class="edge">
<title>q7&#45;&gt;q12</title>
<path fill="none" stroke="#424242" d="M1728.65,-660.05C1754.6,-673.23 1808.76,-698.73 1858,-708.87 2006.55,-739.46 2429.45,-812.17 2540.5,-708.87 2578.49,-673.53 2582.6,-515.15 2582.44,-442.95"/>
<polygon fill="#424242" stroke="#424242" points="2585.94,-443.22 2582.39,-433.24 2578.94,-443.26 2585.94,-443.22"/>
<text xml:space="preserve" text-anchor="start" x="2211.25" y="-772.86" font-family="Helvetica,sans-Serif" font-weight="bold" font-size="10.00">Send for Credit Collection</text>
<text xml:space="preserve" text-anchor="start" x="2262.25" y="-763.81" font-family="Helvetica,sans-Serif" font-size="9.00" fill="#c62828">[true]</text>
</g>
<!-- q7&#45;&gt;q12 -->
<g id="edge28" class="edge">
<title>q7&#45;&gt;q12</title>
<path fill="none" stroke="#424242" d="M1730.28,-655.05C1837.56,-674.51 2415.55,-773.12 2540.5,-662.87 2572.69,-634.47 2579.92,-506.31 2581.52,-442.79"/>
<polygon fill="#424242" stroke="#424242" points="2585.01,-442.94 2581.73,-432.87 2578.02,-442.79 2585.01,-442.94"/>
<text xml:space="preserve" text-anchor="start" x="2252.13" y="-724.72" font-family="Helvetica,sans-Serif" font-weight="bold" font-size="10.00">Payment</text>
<text xml:space="preserve" text-anchor="start" x="2262.25" y="-715.67" font-family="Helvetica,sans-Serif" font-size="9.00" fill="#c62828">[true]</text>
</g>
<!-- q7&#45;&gt;q12 -->
<g id="edge35" class="edge">
<title>q7&#45;&gt;q12</title>
<path fill="none" stroke="#424242" d="M1730.35,-652.25C1756.38,-651.98 1806.28,-648.17 1840,-624.87 1852.17,-616.46 1845.56,-604.87 1858,-596.87 2115.83,-431.23 2295.64,-683.12 2540.5,-498.87 2558.64,-485.22 2569.03,-461.82 2574.88,-442.04"/>
<polygon fill="#424242" stroke="#424242" points="2578.26,-442.93 2577.43,-432.37 2571.49,-441.15 2578.26,-442.93"/>
<text xml:space="preserve" text-anchor="start" x="2234.13" y="-589.49" font-family="Helvetica,sans-Serif" font-weight="bold" font-size="10.00">Appeal to Judge</text>
<text xml:space="preserve" text-anchor="start" x="2262.25" y="-580.44" font-family="Helvetica,sans-Serif" font-size="9.00" fill="#c62828">[true]</text>
<text xml:space="preserve" text-anchor="start" x="2244.25" y="-571.44" font-family="Helvetica,sans-Serif" font-size="9.00" fill="#1565c0">matricola&#39; := 0</text>
</g>
<!-- q7&#45;&gt;q16 -->
<g id="edge40" class="edge">
<title>q7&#45;&gt;q16</title>
<path fill="none" stroke="#424242" d="M1730.45,-651.47C1809.59,-649.62 2137.36,-641.99 2240.3,-639.59"/>
<polygon fill="#424242" stroke="#424242" points="2240.28,-643.09 2250.19,-639.36 2240.12,-636.1 2240.28,-643.09"/>
<text xml:space="preserve" text-anchor="start" x="1918.75" y="-658.88" font-family="Helvetica,sans-Serif" font-weight="bold" font-size="10.00">Insert Date Appeal to Prefecture</text>
<text xml:space="preserve" text-anchor="start" x="1870.75" y="-649.83" font-family="Helvetica,sans-Serif" font-size="9.00" fill="#c62828">[(and (&gt;= (+ 146 (* &#45;1 article)) 0) (&lt; (+ 291/2 (* &#45;1 article)) 0))]</text>
</g>
<!-- q9&#45;&gt;q10 -->
<g id="edge11" class="edge">
<title>q9&#45;&gt;q10</title>
<path fill="none" stroke="#424242" d="M790.48,-187.87C843.62,-187.87 1004.96,-187.87 1073.01,-187.87"/>
<polygon fill="#424242" stroke="#424242" points="1072.7,-191.37 1082.7,-187.87 1072.7,-184.37 1072.7,-191.37"/>
<text xml:space="preserve" text-anchor="start" x="885.24" y="-198.37" font-family="Helvetica,sans-Serif" font-weight="bold" font-size="10.00">Insert Fine Notification</text>
<text xml:space="preserve" text-anchor="start" x="928.36" y="-189.32" font-family="Helvetica,sans-Serif" font-size="9.00" fill="#c62828">[true]</text>
</g>
<!-- q9&#45;&gt;q12 -->
<g id="edge30" class="edge">
<title>q9&#45;&gt;q12</title>
<path fill="none" stroke="#424242" d="M787.96,-178.25C833.22,-149.78 974.65,-67.87 1103.81,-67.87 1103.81,-67.87 1103.81,-67.87 2273.38,-67.87 2392.58,-67.87 2454.5,-9.34 2540.5,-91.87 2579.79,-129.57 2583.13,-296.48 2582.6,-370.88"/>
<polygon fill="#424242" stroke="#424242" points="2579.11,-370.44 2582.5,-380.48 2586.11,-370.51 2579.11,-370.44"/>
<text xml:space="preserve" text-anchor="start" x="1691.88" y="-87.37" font-family="Helvetica,sans-Serif" font-weight="bold" font-size="10.00">Payment</text>
<text xml:space="preserve" text-anchor="start" x="1702" y="-78.32" font-family="Helvetica,sans-Serif" font-size="9.00" fill="#c62828">[true]</text>
<text xml:space="preserve" text-anchor="start" x="1584.25" y="-69.32" font-family="Helvetica,sans-Serif" font-size="9.00" fill="#1565c0">paymentAmount&#39; := paymentAmounttotalPaymentAmount&#39; := 46</text>
</g>
<!-- __start__ -->
<g id="node19" class="node">
<title>__start__</title>
</g>
<!-- __start__&#45;&gt;q0 -->
<g id="edge1" class="edge">
<title>__start__&#45;&gt;q0</title>
<path fill="none" stroke="#424242" d="M0.87,-305.87C2.38,-305.87 14.67,-305.87 27.12,-305.87"/>
<polygon fill="#424242" stroke="#424242" points="26.99,-308.67 34.99,-305.87 26.99,-303.07 26.99,-308.67"/>
</g>
</g>
</svg>
