<?xml version="1.0" encoding="UTF-8" standalone="no"?>
<!DOCTYPE svg PUBLIC "-//W3C//DTD SVG 1.1//EN"
 "http://www.w3.org/Graphics/SVG/1.1/DTD/svg11.dtd">
<!-- Generated by graphviz version 14.1.2 (20260124.0452)
 -->
<!-- Title: efsm Pages: 1 -->
<svg width="3653pt" height="693pt"
 viewBox="0.00 0.00 3653.00 693.00" xmlns="http://www.w3.org/2000/svg" xmlns:xlink="http://www.w3.org/1999/xlink">
<g id="graph0" class="graph" transform="scale(2.08333 2.08333) rotate(0) translate(4 328.76)">
<title>efsm</title>
<polygon fill="white" stroke="none" points="-4,4 -4,-328.76 1749.39,-328.76 1749.39,4 -4,4"/>
<text xml:space="preserve" text-anchor="middle" x="872.7" y="-308.41" font-family="Helvetica,sans-Serif" font-size="13.00">Sepsis — EFSM</text>
<!-- q0 -->
<g id="node1" class="node">
<title>q0</title>
<ellipse fill="#f3e5f5" stroke="#2e7d32" stroke-width="2.5" cx="55.72" cy="-219.26" rx="18" ry="18"/>
<text xml:space="preserve" text-anchor="middle" x="55.72" y="-214.81" font-family="Helvetica,sans-Serif" font-size="11.00">q0</text>
</g>
<!-- q1 -->
<g id="node2" class="node">
<title>q1</title>
<ellipse fill="#f3e5f5" stroke="#616161" cx="426.97" cy="-128.26" rx="18" ry="18"/>
<text xml:space="preserve" text-anchor="middle" x="426.97" y="-123.81" font-family="Helvetica,sans-Serif" font-size="11.00">q1</text>
</g>
<!-- q0&#45;&gt;q1 -->
<g id="edge2" class="edge">
<title>q0&#45;&gt;q1</title>
<path fill="none" stroke="#424242" d="M65.99,-203.14C72.1,-194.03 80.96,-183.29 91.72,-177.26 192.72,-120.66 336.7,-122.21 397.32,-125.89"/>
<polygon fill="#424242" stroke="#424242" points="396.9,-129.37 407.11,-126.56 397.38,-122.39 396.9,-129.37"/>
<text xml:space="preserve" text-anchor="start" x="178.72" y="-196.76" font-family="Helvetica,sans-Serif" font-weight="bold" font-size="10.00">NEW</text>
<text xml:space="preserve" text-anchor="start" x="180.59" y="-187.71" font-family="Helvetica,sans-Serif" font-size="9.00" fill="#c62828">[true]</text>
<text xml:space="preserve" text-anchor="start" x="91.72" y="-178.71" font-family="Helvetica,sans-Serif" font-size="9.00" fill="#1565c0">blocked&#39; := 0flagA&#39; := 0flagB&#39; := 0isCancelled&#39; := 0</text>
</g>
<!-- q14 -->
<g id="node3" class="node">
<title>q14</title>
<ellipse fill="#fff9c4" stroke="#616161" cx="1553.31" cy="-232.26" rx="20.45" ry="20.45"/>
<ellipse fill="none" stroke="#616161" cx="1553.31" cy="-232.26" rx="24.45" ry="24.45"/>
<text xml:space="preserve" text-anchor="middle" x="1553.31" y="-227.81" font-family="Helvetica,sans-Serif" font-size="11.00">q14</text>
</g>
<!-- q0&#45;&gt;q14 -->
<g id="edge10" class="edge">
<title>q0&#45;&gt;q14</title>
<path fill="none" stroke="#424242" d="M73.16,-226.84C78.93,-229.23 85.51,-231.66 91.72,-233.26 236.69,-270.7 276.25,-275.26 425.97,-275.26 425.97,-275.26 425.97,-275.26 1377.42,-275.26 1428.2,-275.26 1484.94,-257.95 1519.64,-245.3"/>
<polygon fill="#424242" stroke="#424242" points="1520.54,-248.7 1528.68,-241.91 1518.09,-242.14 1520.54,-248.7"/>
<text xml:space="preserve" text-anchor="start" x="896.59" y="-294.76" font-family="Helvetica,sans-Serif" font-weight="bold" font-size="10.00">NEW</text>
<text xml:space="preserve" text-anchor="start" x="898.47" y="-285.71" font-family="Helvetica,sans-Serif" font-size="9.00" fill="#c62828">[true]</text>
<text xml:space="preserve" text-anchor="start" x="761.97" y="-276.71" font-family="Helvetica,sans-Serif" font-size="9.00" fill="#1565c0">blocked&#39; := 0flagA&#39; := 0flagB&#39; := 0flagD&#39; := 0isCancelled&#39; := 0isClosed&#39; := 1</text>
</g>
<!-- q32 -->
<g id="node8" class="node">
<title>q32</title>
<ellipse fill="#f3e5f5" stroke="#616161" cx="721.97" cy="-219.26" rx="20.45" ry="20.45"/>
<text xml:space="preserve" text-anchor="middle" x="721.97" y="-214.81" font-family="Helvetica,sans-Serif" font-size="11.00">q32</text>
</g>
<!-- q0&#45;&gt;q32 -->
<g id="edge16" class="edge">
<title>q0&#45;&gt;q32</title>
<path fill="none" stroke="#424242" d="M74.83,-219.26C165.9,-219.26 574.02,-219.26 690.09,-219.26"/>
<polygon fill="#424242" stroke="#424242" points="689.77,-222.76 699.77,-219.26 689.77,-215.76 689.77,-222.76"/>
<text xml:space="preserve" text-anchor="start" x="414.97" y="-238.76" font-family="Helvetica,sans-Serif" font-weight="bold" font-size="10.00">NEW</text>
<text xml:space="preserve" text-anchor="start" x="416.84" y="-229.71" font-family="Helvetica,sans-Serif" font-size="9.00" fill="#c62828">[true]</text>
<text xml:space="preserve" text-anchor="start" x="307.72" y="-220.71" font-family="Helvetica,sans-Serif" font-size="9.00" fill="#1565c0">blocked&#39; := 0flagA&#39; := 0flagB&#39; := 0flagD&#39; := 0isCancelled&#39; := 0</text>
</g>
<!-- q1&#45;&gt;q1 -->
<g id="edge7" class="edge">
<title>q1&#45;&gt;q1</title>
<path fill="none" stroke="#424242" d="M409.61,-133.76C378.86,-146.37 384.64,-164.26 426.97,-164.26 464.01,-164.26 473.07,-150.57 454.15,-138.69"/>
<polygon fill="#424242" stroke="#424242" points="456.19,-135.8 445.68,-134.44 453.05,-142.06 456.19,-135.8"/>
<text xml:space="preserve" text-anchor="start" x="386.84" y="-174.76" font-family="Helvetica,sans-Serif" font-weight="bold" font-size="10.00">CHANGE DIAGN</text>
<text xml:space="preserve" text-anchor="start" x="370.72" y="-165.71" font-family="Helvetica,sans-Serif" font-size="9.00" fill="#c62828">[(&lt; (+ 1/2 (* &#45;1 isClosed)) 0)]</text>
</g>
<!-- q2 -->
<g id="node5" class="node">
<title>q2</title>
<ellipse fill="#fff9c4" stroke="#616161" cx="721.97" cy="-128.26" rx="18" ry="18"/>
<ellipse fill="none" stroke="#616161" cx="721.97" cy="-128.26" rx="22" ry="22"/>
<text xml:space="preserve" text-anchor="middle" x="721.97" y="-123.81" font-family="Helvetica,sans-Serif" font-size="11.00">q2</text>
</g>
<!-- q1&#45;&gt;q2 -->
<g id="edge3" class="edge">
<title>q1&#45;&gt;q2</title>
<path fill="none" stroke="#424242" d="M445.42,-128.26C493.12,-128.26 626.26,-128.26 688.33,-128.26"/>
<polygon fill="#424242" stroke="#424242" points="688.24,-131.76 698.24,-128.26 688.24,-124.76 688.24,-131.76"/>
<text xml:space="preserve" text-anchor="start" x="614.84" y="-138.76" font-family="Helvetica,sans-Serif" font-weight="bold" font-size="10.00">FIN</text>
<text xml:space="preserve" text-anchor="start" x="612.97" y="-129.71" font-family="Helvetica,sans-Serif" font-size="9.00" fill="#c62828">[true]</text>
</g>
<!-- q1&#45;&gt;q32 -->
<g id="edge8" class="edge">
<title>q1&#45;&gt;q32</title>
<path fill="none" stroke="#424242" d="M445.15,-131.09C495.1,-139.48 639.38,-164.98 681.97,-186.26 687.82,-189.18 693.54,-193.16 698.71,-197.34"/>
<polygon fill="#424242" stroke="#424242" points="696.38,-199.96 706.21,-203.91 700.99,-194.69 696.38,-199.96"/>
<text xml:space="preserve" text-anchor="start" x="582.97" y="-196.76" font-family="Helvetica,sans-Serif" font-weight="bold" font-size="10.00">CHANGE DIAGN</text>
<text xml:space="preserve" text-anchor="start" x="564.22" y="-187.71" font-family="Helvetica,sans-Serif" font-size="9.00" fill="#c62828">[(&gt;= (+ 1/2 (* &#45;1 isClosed)) 0)]</text>
</g>
<!-- q16 -->
<g id="node4" class="node">
<title>q16</title>
<ellipse fill="#f3e5f5" stroke="#616161" cx="1724.95" cy="-68.26" rx="20.45" ry="20.45"/>
<text xml:space="preserve" text-anchor="middle" x="1724.95" y="-63.81" font-family="Helvetica,sans-Serif" font-size="11.00">q16</text>
</g>
<!-- q22 -->
<g id="node6" class="node">
<title>q22</title>
<ellipse fill="#f3e5f5" stroke="#616161" cx="1376.42" cy="-63.26" rx="20.45" ry="20.45"/>
<text xml:space="preserve" text-anchor="middle" x="1376.42" y="-58.81" font-family="Helvetica,sans-Serif" font-size="11.00">q22</text>
</g>
<!-- q16&#45;&gt;q22 -->
<g id="edge12" class="edge">
<title>q16&#45;&gt;q22</title>
<path fill="none" stroke="#424242" d="M1706.09,-77.02C1700.02,-79.56 1693.1,-81.99 1686.5,-83.26 1567.95,-106.12 1532.43,-108.73 1414.86,-81.26 1411.46,-80.47 1408,-79.33 1404.64,-78"/>
<polygon fill="#424242" stroke="#424242" points="1406.29,-74.91 1395.74,-73.96 1403.4,-81.28 1406.29,-74.91"/>
<text xml:space="preserve" text-anchor="start" x="1533.43" y="-111.64" font-family="Helvetica,sans-Serif" font-weight="bold" font-size="10.00">REJECT</text>
<text xml:space="preserve" text-anchor="start" x="1543.18" y="-102.59" font-family="Helvetica,sans-Serif" font-size="9.00" fill="#c62828">[true]</text>
</g>
<!-- q3 -->
<g id="node7" class="node">
<title>q3</title>
<ellipse fill="#f3e5f5" stroke="#616161" cx="1091.22" cy="-128.26" rx="18" ry="18"/>
<text xml:space="preserve" text-anchor="middle" x="1091.22" y="-123.81" font-family="Helvetica,sans-Serif" font-size="11.00">q3</text>
</g>
<!-- q2&#45;&gt;q3 -->
<g id="edge4" class="edge">
<title>q2&#45;&gt;q3</title>
<path fill="none" stroke="#424242" d="M744.3,-128.26C806.96,-128.26 990.52,-128.26 1061.62,-128.26"/>
<polygon fill="#424242" stroke="#424242" points="1061.28,-131.76 1071.28,-128.26 1061.28,-124.76 1061.28,-131.76"/>
<text xml:space="preserve" text-anchor="start" x="884.59" y="-138.76" font-family="Helvetica,sans-Serif" font-weight="bold" font-size="10.00">RELEASE</text>
<text xml:space="preserve" text-anchor="start" x="898.47" y="-129.71" font-family="Helvetica,sans-Serif" font-size="9.00" fill="#c62828">[true]</text>
</g>
<!-- q22&#45;&gt;q1 -->
<g id="edge14" class="edge">
<title>q22&#45;&gt;q1</title>
<path fill="none" stroke="#424242" d="M1365.73,-45.75C1359.28,-35.99 1349.81,-24.73 1337.97,-19.26 1252.94,20.03 1220.61,-12.03 1127.22,-19.26 864.06,-39.65 550.14,-102.58 455.98,-122.29"/>
<polygon fill="#424242" stroke="#424242" points="455.44,-118.83 446.37,-124.32 456.88,-125.68 455.44,-118.83"/>
<text xml:space="preserve" text-anchor="start" x="887.22" y="-75.21" font-family="Helvetica,sans-Serif" font-weight="bold" font-size="10.00">REOPEN</text>
<text xml:space="preserve" text-anchor="start" x="898.47" y="-66.16" font-family="Helvetica,sans-Serif" font-size="9.00" fill="#c62828">[true]</text>
</g>
<!-- q22&#45;&gt;q3 -->
<g id="edge15" class="edge">
<title>q22&#45;&gt;q3</title>
<path fill="none" stroke="#424242" d="M1355.75,-64.9C1297.51,-69.78 1129.75,-83.92 1127.22,-85.26 1119.39,-89.42 1112.66,-96.15 1107.26,-103.07"/>
<polygon fill="#424242" stroke="#424242" points="1104.47,-100.95 1101.6,-111.15 1110.2,-104.97 1104.47,-100.95"/>
<text xml:space="preserve" text-anchor="start" x="1208.59" y="-95.76" font-family="Helvetica,sans-Serif" font-weight="bold" font-size="10.00">RELEASE</text>
<text xml:space="preserve" text-anchor="start" x="1222.47" y="-86.71" font-family="Helvetica,sans-Serif" font-size="9.00" fill="#c62828">[true]</text>
</g>
<!-- q5 -->
<g id="node10" class="node">
<title>q5</title>
<ellipse fill="#fff9c4" stroke="#616161" cx="1553.31" cy="-39.26" rx="18" ry="18"/>
<ellipse fill="none" stroke="#616161" cx="1553.31" cy="-39.26" rx="22" ry="22"/>
<text xml:space="preserve" text-anchor="middle" x="1553.31" y="-34.81" font-family="Helvetica,sans-Serif" font-size="11.00">q5</text>
</g>
<!-- q22&#45;&gt;q5 -->
<g id="edge6" class="edge">
<title>q22&#45;&gt;q5</title>
<path fill="none" stroke="#424242" d="M1387.98,-46.07C1394.5,-37.17 1403.75,-27.16 1414.86,-22.26 1453.9,-5.04 1469,-14.01 1510.86,-22.26 1514.8,-23.04 1518.83,-24.19 1522.76,-25.54"/>
<polygon fill="#424242" stroke="#424242" points="1521.4,-28.76 1531.98,-29.14 1523.94,-22.24 1521.4,-28.76"/>
<text xml:space="preserve" text-anchor="start" x="1444.49" y="-32.76" font-family="Helvetica,sans-Serif" font-weight="bold" font-size="10.00">BILLED</text>
<text xml:space="preserve" text-anchor="start" x="1452.74" y="-23.71" font-family="Helvetica,sans-Serif" font-size="9.00" fill="#c62828">[true]</text>
</g>
<!-- q3&#45;&gt;q22 -->
<g id="edge5" class="edge">
<title>q3&#45;&gt;q22</title>
<path fill="none" stroke="#424242" d="M1093.45,-110.06C1095.98,-88.76 1103.7,-54.35 1127.22,-38.26 1165.87,-11.82 1293.15,-24.67 1337.97,-38.26 1342.39,-39.6 1346.76,-41.65 1350.87,-44.02"/>
<polygon fill="#424242" stroke="#424242" points="1348.9,-46.91 1359.18,-49.48 1352.75,-41.06 1348.9,-46.91"/>
<text xml:space="preserve" text-anchor="start" x="1208.97" y="-57.76" font-family="Helvetica,sans-Serif" font-weight="bold" font-size="10.00">CODE OK</text>
<text xml:space="preserve" text-anchor="start" x="1222.47" y="-48.71" font-family="Helvetica,sans-Serif" font-size="9.00" fill="#c62828">[true]</text>
<text xml:space="preserve" text-anchor="start" x="1202.22" y="-39.71" font-family="Helvetica,sans-Serif" font-size="9.00" fill="#1565c0">msgCount&#39; := 0</text>
</g>
<!-- q3&#45;&gt;q22 -->
<g id="edge13" class="edge">
<title>q3&#45;&gt;q22</title>
<path fill="none" stroke="#424242" d="M1109.35,-127.63C1161.78,-125.6 1317.79,-118.74 1337.97,-108.26 1346.21,-103.98 1353.35,-97.02 1359.11,-89.84"/>
<polygon fill="#424242" stroke="#424242" points="1361.73,-92.18 1364.76,-82.03 1356.06,-88.07 1361.73,-92.18"/>
<text xml:space="preserve" text-anchor="start" x="1205.22" y="-146.3" font-family="Helvetica,sans-Serif" font-weight="bold" font-size="10.00">CODE NOK</text>
<text xml:space="preserve" text-anchor="start" x="1222.47" y="-137.25" font-family="Helvetica,sans-Serif" font-size="9.00" fill="#c62828">[true]</text>
<text xml:space="preserve" text-anchor="start" x="1127.22" y="-128.25" font-family="Helvetica,sans-Serif" font-size="9.00" fill="#1565c0">actOrange&#39; := 0actRed&#39; := 0flagC&#39; := 0msgCount&#39; := 1</text>
</g>
<!-- q3&#45;&gt;q3 -->
<g id="edge19" class="edge">
<title>q3&#45;&gt;q3</title>
<path fill="none" stroke="#424242" d="M1075.07,-136.04C1057.12,-148.42 1062.5,-164.26 1091.22,-164.26 1114.1,-164.26 1122.17,-154.2 1115.42,-143.85"/>
<polygon fill="#424242" stroke="#424242" points="1118.07,-141.54 1108.46,-137.09 1113.2,-146.57 1118.07,-141.54"/>
<text xml:space="preserve" text-anchor="start" x="1063.84" y="-183.76" font-family="Helvetica,sans-Serif" font-weight="bold" font-size="10.00">CODE NOK</text>
<text xml:space="preserve" text-anchor="start" x="1081.09" y="-174.71" font-family="Helvetica,sans-Serif" font-size="9.00" fill="#c62828">[true]</text>
<text xml:space="preserve" text-anchor="start" x="985.84" y="-165.71" font-family="Helvetica,sans-Serif" font-size="9.00" fill="#1565c0">actOrange&#39; := 0actRed&#39; := 0flagC&#39; := 0msgCount&#39; := 1</text>
</g>
<!-- q43 -->
<g id="node9" class="node">
<title>q43</title>
<ellipse fill="#f3e5f5" stroke="#616161" cx="1376.42" cy="-183.26" rx="20.45" ry="20.45"/>
<text xml:space="preserve" text-anchor="middle" x="1376.42" y="-178.81" font-family="Helvetica,sans-Serif" font-size="11.00">q43</text>
</g>
<!-- q3&#45;&gt;q43 -->
<g id="edge17" class="edge">
<title>q3&#45;&gt;q43</title>
<path fill="none" stroke="#424242" d="M1103.49,-141.6C1109.77,-148.08 1118.14,-155.31 1127.22,-159.26 1146.71,-167.75 1282.39,-177.34 1344.5,-181.34"/>
<polygon fill="#424242" stroke="#424242" points="1344.17,-184.83 1354.37,-181.97 1344.61,-177.84 1344.17,-184.83"/>
<text xml:space="preserve" text-anchor="start" x="1205.22" y="-200.4" font-family="Helvetica,sans-Serif" font-weight="bold" font-size="10.00">CODE NOK</text>
<text xml:space="preserve" text-anchor="start" x="1222.47" y="-191.35" font-family="Helvetica,sans-Serif" font-size="9.00" fill="#c62828">[true]</text>
<text xml:space="preserve" text-anchor="start" x="1127.22" y="-182.35" font-family="Helvetica,sans-Serif" font-size="9.00" fill="#1565c0">actOrange&#39; := 0actRed&#39; := 0flagC&#39; := 0msgCount&#39; := 1</text>
</g>
<!-- q32&#45;&gt;q14 -->
<g id="edge9" class="edge">
<title>q32&#45;&gt;q14</title>
<path fill="none" stroke="#424242" d="M742.65,-219.57C851.1,-221.27 1375.97,-229.5 1517.23,-231.71"/>
<polygon fill="#424242" stroke="#424242" points="1517.02,-235.21 1527.07,-231.86 1517.13,-228.21 1517.02,-235.21"/>
<text xml:space="preserve" text-anchor="start" x="1212.72" y="-248.3" font-family="Helvetica,sans-Serif" font-weight="bold" font-size="10.00">DELETE</text>
<text xml:space="preserve" text-anchor="start" x="1222.47" y="-239.25" font-family="Helvetica,sans-Serif" font-size="9.00" fill="#c62828">[true]</text>
<text xml:space="preserve" text-anchor="start" x="1198.84" y="-230.25" font-family="Helvetica,sans-Serif" font-size="9.00" fill="#1565c0">isCancelled&#39; := 1</text>
</g>
<!-- q43&#45;&gt;q14 -->
<g id="edge18" class="edge">
<title>q43&#45;&gt;q14</title>
<path fill="none" stroke="#424242" d="M1397.27,-182.33C1424.11,-181.8 1472.97,-183.42 1510.86,-199.26 1516.34,-201.55 1521.7,-204.79 1526.64,-208.35"/>
<polygon fill="#424242" stroke="#424242" points="1524.36,-211.01 1534.37,-214.48 1528.71,-205.52 1524.36,-211.01"/>
<text xml:space="preserve" text-anchor="start" x="1431.74" y="-209.76" font-family="Helvetica,sans-Serif" font-weight="bold" font-size="10.00">SET STATUS</text>
<text xml:space="preserve" text-anchor="start" x="1452.74" y="-200.71" font-family="Helvetica,sans-Serif" font-size="9.00" fill="#c62828">[true]</text>
</g>
<!-- q5&#45;&gt;q16 -->
<g id="edge11" class="edge">
<title>q5&#45;&gt;q16</title>
<path fill="none" stroke="#424242" d="M1575.45,-42.87C1605.08,-47.94 1659.16,-57.18 1693.23,-63.01"/>
<polygon fill="#424242" stroke="#424242" points="1692.44,-66.43 1702.89,-64.66 1693.62,-59.53 1692.44,-66.43"/>
<text xml:space="preserve" text-anchor="start" x="1619.75" y="-71.75" font-family="Helvetica,sans-Serif" font-weight="bold" font-size="10.00">STORNO</text>
<text xml:space="preserve" text-anchor="start" x="1595.75" y="-62.7" font-family="Helvetica,sans-Serif" font-size="9.00" fill="#c62828">[(&lt; (* &#45;1 actOrange) 0)]</text>
</g>
<!-- q5&#45;&gt;q22 -->
<g id="edge20" class="edge">
<title>q5&#45;&gt;q22</title>
<path fill="none" stroke="#424242" d="M1531.02,-42.18C1500.33,-46.39 1443.47,-54.2 1408.2,-59.04"/>
<polygon fill="#424242" stroke="#424242" points="1408.07,-55.52 1398.64,-60.35 1409.02,-62.46 1408.07,-55.52"/>
<text xml:space="preserve" text-anchor="start" x="1441.49" y="-68.58" font-family="Helvetica,sans-Serif" font-weight="bold" font-size="10.00">STORNO</text>
<text xml:space="preserve" text-anchor="start" x="1414.86" y="-59.53" font-family="Helvetica,sans-Serif" font-size="9.00" fill="#c62828">[(&gt;= (* &#45;1 actOrange) 0)]</text>
</g>
<!-- __start__ -->
<g id="node11" class="node">
<title>__start__</title>
</g>
<!-- __start__&#45;&gt;q0 -->
<g id="edge1" class="edge">
<title>__start__&#45;&gt;q0</title>
<path fill="none" stroke="#424242" d="M0.87,-219.26C2.38,-219.26 14.67,-219.26 27.12,-219.26"/>
<polygon fill="#424242" stroke="#424242" points="26.99,-222.06 34.99,-219.26 26.99,-216.46 26.99,-222.06"/>
</g>
</g>
</svg>
