<?xml version="1.0" encoding="UTF-8" standalone="no"?>
<!DOCTYPE svg PUBLIC "-//W3C//DTD SVG 1.1//EN"
 "http://www.w3.org/Graphics/SVG/1.1/DTD/svg11.dtd">
<!-- Generated by graphviz version 14.1.2 (20260124.0452)
 -->
<!-- Title: dpn Pages: 1 -->
<svg width="4416pt" height="1178pt"
 viewBox="0.00 0.00 4416.00 1178.00" xmlns="http://www.w3.org/2000/svg" xmlns:xlink="http://www.w3.org/1999/xlink">
<g id="graph0" class="graph" transform="scale(2.08333 2.08333) rotate(0) translate(4 561.51)">
<title>dpn</title>
<polygon fill="white" stroke="none" points="-4,4 -4,-561.51 2115.63,-561.51 2115.63,4 -4,4"/>
<text xml:space="preserve" text-anchor="middle" x="1055.81" y="-541.16" font-family="Helvetica,sans-Serif" font-size="13.00">Sepsis — DPN</text>
<!-- p_r0_q0 -->
<g id="node1" class="node">
<title>p_r0_q0</title>
<ellipse fill="#e8f5e9" stroke="#2e7d32" stroke-width="2.5" cx="33.52" cy="-279.62" rx="33.52" ry="33.52"/>
<text xml:space="preserve" text-anchor="middle" x="33.52" y="-275.18" font-family="Helvetica,sans-Serif" font-size="11.00">p_r0_q0</text>
</g>
<!-- t_ER Registration_3 -->
<g id="node13" class="node">
<title>t_ER Registration_3</title>
<path fill="#e3f2fd" stroke="#1565c0" stroke-width="1.2" d="M252.8,-430.62C252.8,-430.62 115.05,-430.62 115.05,-430.62 109.05,-430.62 103.05,-424.62 103.05,-418.62 103.05,-418.62 103.05,-140.62 103.05,-140.62 103.05,-134.62 109.05,-128.62 115.05,-128.62 115.05,-128.62 252.8,-128.62 252.8,-128.62 258.8,-128.62 264.8,-134.62 264.8,-140.62 264.8,-140.62 264.8,-418.62 264.8,-418.62 264.8,-424.62 258.8,-430.62 252.8,-430.62"/>
<text xml:space="preserve" text-anchor="start" x="142.3" y="-415.18" font-family="Helvetica,sans-Serif" font-weight="bold" font-size="11.00">ER Registration</text>
<text xml:space="preserve" text-anchor="start" x="172.67" y="-399.12" font-family="Helvetica,sans-Serif" font-size="10.00" fill="#c62828">[true]</text>
<text xml:space="preserve" text-anchor="start" x="158.42" y="-383.88" font-family="Helvetica,sans-Serif" font-size="10.00" fill="#1565c0">Age&#39; := Age</text>
<text xml:space="preserve" text-anchor="start" x="128.8" y="-372.62" font-family="Helvetica,sans-Serif" font-size="10.00" fill="#1565c0">DiagnosticArtAstrup&#39; := 0</text>
<text xml:space="preserve" text-anchor="start" x="137.05" y="-361.38" font-family="Helvetica,sans-Serif" font-size="10.00" fill="#1565c0">DiagnosticBlood&#39; := 1</text>
<text xml:space="preserve" text-anchor="start" x="138.55" y="-350.12" font-family="Helvetica,sans-Serif" font-size="10.00" fill="#1565c0">DiagnosticECG&#39; := 1</text>
<text xml:space="preserve" text-anchor="start" x="144.17" y="-338.88" font-family="Helvetica,sans-Serif" font-size="10.00" fill="#1565c0">DiagnosticIC&#39; := 1</text>
<text xml:space="preserve" text-anchor="start" x="126.55" y="-327.62" font-family="Helvetica,sans-Serif" font-size="10.00" fill="#1565c0">DiagnosticLacticAcid&#39; := 1</text>
<text xml:space="preserve" text-anchor="start" x="136.3" y="-316.38" font-family="Helvetica,sans-Serif" font-size="10.00" fill="#1565c0">DiagnosticLiquor&#39; := 0</text>
<text xml:space="preserve" text-anchor="start" x="137.42" y="-305.12" font-family="Helvetica,sans-Serif" font-size="10.00" fill="#1565c0">DiagnosticOther&#39; := 0</text>
<text xml:space="preserve" text-anchor="start" x="132.55" y="-293.88" font-family="Helvetica,sans-Serif" font-size="10.00" fill="#1565c0">DiagnosticSputum&#39; := 0</text>
<text xml:space="preserve" text-anchor="start" x="117.92" y="-282.62" font-family="Helvetica,sans-Serif" font-size="10.00" fill="#1565c0">DiagnosticUrinaryCulture&#39; := 0</text>
<text xml:space="preserve" text-anchor="start" x="113.05" y="-271.38" font-family="Helvetica,sans-Serif" font-size="10.00" fill="#1565c0">DiagnosticUrinarySediment&#39; := 0</text>
<text xml:space="preserve" text-anchor="start" x="132.55" y="-260.12" font-family="Helvetica,sans-Serif" font-size="10.00" fill="#1565c0">DiagnosticXthorax&#39; := 1</text>
<text xml:space="preserve" text-anchor="start" x="147.92" y="-248.88" font-family="Helvetica,sans-Serif" font-size="10.00" fill="#1565c0">DisfuncOrg&#39; := 0</text>
<text xml:space="preserve" text-anchor="start" x="147.92" y="-237.62" font-family="Helvetica,sans-Serif" font-size="10.00" fill="#1565c0">Hypotensie&#39; := 0</text>
<text xml:space="preserve" text-anchor="start" x="154.67" y="-226.38" font-family="Helvetica,sans-Serif" font-size="10.00" fill="#1565c0">Hypoxie&#39; := 0</text>
<text xml:space="preserve" text-anchor="start" x="130.67" y="-215.12" font-family="Helvetica,sans-Serif" font-size="10.00" fill="#1565c0">InfectionSuspected&#39; := 1</text>
<text xml:space="preserve" text-anchor="start" x="155.42" y="-203.88" font-family="Helvetica,sans-Serif" font-size="10.00" fill="#1565c0">Infusion&#39; := 1</text>
<text xml:space="preserve" text-anchor="start" x="156.17" y="-192.62" font-family="Helvetica,sans-Serif" font-size="10.00" fill="#1565c0">Oligurie&#39; := 0</text>
<text xml:space="preserve" text-anchor="start" x="130.3" y="-181.38" font-family="Helvetica,sans-Serif" font-size="10.00" fill="#1565c0">SIRSCritHeartRate&#39; := 1</text>
<text xml:space="preserve" text-anchor="start" x="137.05" y="-170.12" font-family="Helvetica,sans-Serif" font-size="10.00" fill="#1565c0">SIRSCritLeucos&#39; := 0</text>
<text xml:space="preserve" text-anchor="start" x="129.17" y="-158.88" font-family="Helvetica,sans-Serif" font-size="10.00" fill="#1565c0">SIRSCritTachypnea&#39; := 0</text>
<text xml:space="preserve" text-anchor="start" x="125.8" y="-147.62" font-family="Helvetica,sans-Serif" font-size="10.00" fill="#1565c0">SIRSCritTemperature&#39; := 1</text>
<text xml:space="preserve" text-anchor="start" x="126.17" y="-136.38" font-family="Helvetica,sans-Serif" font-size="10.00" fill="#1565c0">SIRSCriteria2OrMore&#39; := 1</text>
<polygon fill="#1565c0" stroke="#1565c0" points="111.05,-410.62 111.05,-410.62 256.8,-410.62 256.8,-410.62 111.05,-410.62"/>
</g>
<!-- p_r0_q0&#45;&gt;t_ER Registration_3 -->
<g id="edge9" class="edge">
<title>p_r0_q0&#45;&gt;t_ER Registration_3</title>
<path fill="none" stroke="#424242" d="M68.2,-279.62C75.23,-279.62 82.97,-279.62 90.99,-279.62"/>
<polygon fill="#424242" stroke="#424242" points="90.98,-283.13 100.98,-279.63 90.98,-276.13 90.98,-283.13"/>
</g>
<!-- p_r1_q1 -->
<g id="node2" class="node">
<title>p_r1_q1</title>
<ellipse fill="#e8f5e9" stroke="#616161" cx="334.32" cy="-310.62" rx="33.52" ry="33.52"/>
<text xml:space="preserve" text-anchor="middle" x="334.32" y="-306.18" font-family="Helvetica,sans-Serif" font-size="11.00">p_r1_q1</text>
</g>
<!-- t_ER Triage_5 -->
<g id="node15" class="node">
<title>t_ER Triage_5</title>
<path fill="#e3f2fd" stroke="#1565c0" stroke-width="1.2" d="M462.85,-323.25C462.85,-323.25 415.85,-323.25 415.85,-323.25 409.85,-323.25 403.85,-317.25 403.85,-311.25 403.85,-311.25 403.85,-296 403.85,-296 403.85,-290 409.85,-284 415.85,-284 415.85,-284 462.85,-284 462.85,-284 468.85,-284 474.85,-290 474.85,-296 474.85,-296 474.85,-311.25 474.85,-311.25 474.85,-317.25 468.85,-323.25 462.85,-323.25"/>
<text xml:space="preserve" text-anchor="start" x="413.85" y="-307.8" font-family="Helvetica,sans-Serif" font-weight="bold" font-size="11.00">ER Triage</text>
<text xml:space="preserve" text-anchor="start" x="428.1" y="-291.75" font-family="Helvetica,sans-Serif" font-size="10.00" fill="#c62828">[true]</text>
<polygon fill="#1565c0" stroke="#1565c0" points="411.85,-303.25 411.85,-303.25 466.85,-303.25 466.85,-303.25 411.85,-303.25"/>
</g>
<!-- p_r1_q1&#45;&gt;t_ER Triage_5 -->
<g id="edge16" class="edge">
<title>p_r1_q1&#45;&gt;t_ER Triage_5</title>
<path fill="none" stroke="#424242" d="M368.2,-308.39C375.72,-307.88 383.85,-307.33 391.82,-306.79"/>
<polygon fill="#424242" stroke="#424242" points="392.04,-310.28 401.78,-306.11 391.57,-303.3 392.04,-310.28"/>
</g>
<!-- p_r2_q1_q10_q11_+10 -->
<g id="node3" class="node">
<title>p_r2_q1_q10_q11_+10</title>
<ellipse fill="#e8f5e9" stroke="#616161" cx="588.12" cy="-272.62" rx="77.27" ry="77.27"/>
<text xml:space="preserve" text-anchor="middle" x="588.12" y="-268.18" font-family="Helvetica,sans-Serif" font-size="11.00">p_r2_q1_q10_q11_+10</text>
</g>
<!-- t_Admission NC_1 -->
<g id="node11" class="node">
<title>t_Admission NC_1</title>
<path fill="#e3f2fd" stroke="#1565c0" stroke-width="1.2" d="M791.89,-461.25C791.89,-461.25 720.14,-461.25 720.14,-461.25 714.14,-461.25 708.14,-455.25 708.14,-449.25 708.14,-449.25 708.14,-434 708.14,-434 708.14,-428 714.14,-422 720.14,-422 720.14,-422 791.89,-422 791.89,-422 797.89,-422 803.89,-428 803.89,-434 803.89,-434 803.89,-449.25 803.89,-449.25 803.89,-455.25 797.89,-461.25 791.89,-461.25"/>
<text xml:space="preserve" text-anchor="start" x="718.14" y="-445.8" font-family="Helvetica,sans-Serif" font-weight="bold" font-size="11.00">Admission NC</text>
<text xml:space="preserve" text-anchor="start" x="744.77" y="-429.75" font-family="Helvetica,sans-Serif" font-size="10.00" fill="#c62828">[true]</text>
<polygon fill="#1565c0" stroke="#1565c0" points="716.14,-441.25 716.14,-441.25 795.89,-441.25 795.89,-441.25 716.14,-441.25"/>
</g>
<!-- p_r2_q1_q10_q11_+10&#45;&gt;t_Admission NC_1 -->
<g id="edge1" class="edge">
<title>p_r2_q1_q10_q11_+10&#45;&gt;t_Admission NC_1</title>
<path fill="none" stroke="#424242" d="M638.43,-331.71C656.8,-354 678.72,-378.7 701.39,-398.62 708.09,-404.51 715.9,-410.07 723.46,-415.2"/>
<polygon fill="#424242" stroke="#424242" points="721.29,-417.96 731.54,-420.63 725.19,-412.15 721.29,-417.96"/>
</g>
<!-- t_CRP_2 -->
<g id="node12" class="node">
<title>t_CRP_2</title>
<path fill="#e3f2fd" stroke="#1565c0" stroke-width="1.2" d="M1577.45,-187.88C1577.45,-187.88 1520.7,-187.88 1520.7,-187.88 1514.7,-187.88 1508.7,-181.88 1508.7,-175.88 1508.7,-175.88 1508.7,-145.38 1508.7,-145.38 1508.7,-139.38 1514.7,-133.38 1520.7,-133.38 1520.7,-133.38 1577.45,-133.38 1577.45,-133.38 1583.45,-133.38 1589.45,-139.38 1589.45,-145.38 1589.45,-145.38 1589.45,-175.88 1589.45,-175.88 1589.45,-181.88 1583.45,-187.88 1577.45,-187.88"/>
<text xml:space="preserve" text-anchor="start" x="1537.08" y="-172.43" font-family="Helvetica,sans-Serif" font-weight="bold" font-size="11.00">CRP</text>
<text xml:space="preserve" text-anchor="start" x="1537.83" y="-156.38" font-family="Helvetica,sans-Serif" font-size="10.00" fill="#c62828">[true]</text>
<text xml:space="preserve" text-anchor="start" x="1518.7" y="-141.12" font-family="Helvetica,sans-Serif" font-size="10.00" fill="#1565c0">CRP&#39; := CRP</text>
<polygon fill="#1565c0" stroke="#1565c0" points="1516.7,-167.88 1516.7,-167.88 1581.45,-167.88 1581.45,-167.88 1516.7,-167.88"/>
</g>
<!-- p_r2_q1_q10_q11_+10&#45;&gt;t_CRP_2 -->
<g id="edge6" class="edge">
<title>p_r2_q1_q10_q11_+10&#45;&gt;t_CRP_2</title>
<path fill="none" stroke="#424242" d="M643.72,-218.58C661.22,-205.59 681.29,-193.08 701.39,-184.62 775.46,-153.45 798.81,-151.62 879.17,-151.62 879.17,-151.62 879.17,-151.62 1246.76,-151.62 1334.55,-151.62 1436.72,-151.62 1496.69,-154.16"/>
<polygon fill="#424242" stroke="#424242" points="1496.44,-157.65 1506.6,-154.63 1496.77,-150.66 1496.44,-157.65"/>
</g>
<!-- t_ER Sepsis Triage_4 -->
<g id="node14" class="node">
<title>t_ER Sepsis Triage_4</title>
<path fill="#e3f2fd" stroke="#1565c0" stroke-width="1.2" d="M798.64,-518.25C798.64,-518.25 713.39,-518.25 713.39,-518.25 707.39,-518.25 701.39,-512.25 701.39,-506.25 701.39,-506.25 701.39,-491 701.39,-491 701.39,-485 707.39,-479 713.39,-479 713.39,-479 798.64,-479 798.64,-479 804.64,-479 810.64,-485 810.64,-491 810.64,-491 810.64,-506.25 810.64,-506.25 810.64,-512.25 804.64,-518.25 798.64,-518.25"/>
<text xml:space="preserve" text-anchor="start" x="711.39" y="-502.8" font-family="Helvetica,sans-Serif" font-weight="bold" font-size="11.00">ER Sepsis Triage</text>
<text xml:space="preserve" text-anchor="start" x="744.77" y="-486.75" font-family="Helvetica,sans-Serif" font-size="10.00" fill="#c62828">[true]</text>
<polygon fill="#1565c0" stroke="#1565c0" points="709.39,-498.25 709.39,-498.25 802.64,-498.25 802.64,-498.25 709.39,-498.25"/>
</g>
<!-- p_r2_q1_q10_q11_+10&#45;&gt;t_ER Sepsis Triage_4 -->
<g id="edge12" class="edge">
<title>p_r2_q1_q10_q11_+10&#45;&gt;t_ER Sepsis Triage_4</title>
<path fill="none" stroke="#424242" d="M630.95,-337.28C642.16,-356.65 654.25,-377.94 665.39,-397.62 681.46,-426.03 677.96,-438.91 701.39,-461.62 705.57,-465.68 710.46,-469.29 715.55,-472.55"/>
<polygon fill="#424242" stroke="#424242" points="713.77,-475.56 724.15,-477.65 717.33,-469.54 713.77,-475.56"/>
</g>
<!-- p_r2_q1_q10_q11_+10&#45;&gt;t_ER Triage_5 -->
<g id="edge17" class="edge">
<title>p_r2_q1_q10_q11_+10&#45;&gt;t_ER Triage_5</title>
<path fill="none" stroke="#424242" d="M513.88,-294.84C504.48,-296.83 495.07,-298.67 486.28,-300.23"/>
<polygon fill="#424242" stroke="#424242" points="485.9,-296.75 476.62,-301.87 487.07,-303.65 485.9,-296.75"/>
</g>
<!-- t_IV Antibiotics_6 -->
<g id="node16" class="node">
<title>t_IV Antibiotics_6</title>
<path fill="#e3f2fd" stroke="#1565c0" stroke-width="1.2" d="M1581.95,-467.25C1581.95,-467.25 1516.2,-467.25 1516.2,-467.25 1510.2,-467.25 1504.2,-461.25 1504.2,-455.25 1504.2,-455.25 1504.2,-440 1504.2,-440 1504.2,-434 1510.2,-428 1516.2,-428 1516.2,-428 1581.95,-428 1581.95,-428 1587.95,-428 1593.95,-434 1593.95,-440 1593.95,-440 1593.95,-455.25 1593.95,-455.25 1593.95,-461.25 1587.95,-467.25 1581.95,-467.25"/>
<text xml:space="preserve" text-anchor="start" x="1514.2" y="-451.8" font-family="Helvetica,sans-Serif" font-weight="bold" font-size="11.00">IV Antibiotics</text>
<text xml:space="preserve" text-anchor="start" x="1537.83" y="-435.75" font-family="Helvetica,sans-Serif" font-size="10.00" fill="#c62828">[true]</text>
<polygon fill="#1565c0" stroke="#1565c0" points="1512.2,-447.25 1512.2,-447.25 1585.95,-447.25 1585.95,-447.25 1512.2,-447.25"/>
</g>
<!-- p_r2_q1_q10_q11_+10&#45;&gt;t_IV Antibiotics_6 -->
<g id="edge21" class="edge">
<title>p_r2_q1_q10_q11_+10&#45;&gt;t_IV Antibiotics_6</title>
<path fill="none" stroke="#424242" d="M660.22,-301.7C673.66,-307.82 687.78,-313.83 701.39,-318.62 986.8,-419.11 1354.41,-435.65 1492.44,-442.77"/>
<polygon fill="#424242" stroke="#424242" points="1492.24,-446.26 1502.4,-443.29 1492.6,-439.27 1492.24,-446.26"/>
</g>
<!-- t_IV Liquid_7 -->
<g id="node17" class="node">
<title>t_IV Liquid_7</title>
<path fill="#e3f2fd" stroke="#1565c0" stroke-width="1.2" d="M1004.19,-361.25C1004.19,-361.25 961.69,-361.25 961.69,-361.25 955.69,-361.25 949.69,-355.25 949.69,-349.25 949.69,-349.25 949.69,-334 949.69,-334 949.69,-328 955.69,-322 961.69,-322 961.69,-322 1004.19,-322 1004.19,-322 1010.19,-322 1016.19,-328 1016.19,-334 1016.19,-334 1016.19,-349.25 1016.19,-349.25 1016.19,-355.25 1010.19,-361.25 1004.19,-361.25"/>
<text xml:space="preserve" text-anchor="start" x="959.69" y="-345.8" font-family="Helvetica,sans-Serif" font-weight="bold" font-size="11.00">IV Liquid</text>
<text xml:space="preserve" text-anchor="start" x="971.69" y="-329.75" font-family="Helvetica,sans-Serif" font-size="10.00" fill="#c62828">[true]</text>
<polygon fill="#1565c0" stroke="#1565c0" points="957.69,-341.25 957.69,-341.25 1008.19,-341.25 1008.19,-341.25 957.69,-341.25"/>
</g>
<!-- p_r2_q1_q10_q11_+10&#45;&gt;t_IV Liquid_7 -->
<g id="edge24" class="edge">
<title>p_r2_q1_q10_q11_+10&#45;&gt;t_IV Liquid_7</title>
<path fill="none" stroke="#424242" d="M665.44,-279.79C677.45,-282.09 689.75,-284.48 701.39,-286.62 785,-302.04 883.11,-317.53 938.35,-328.77"/>
<polygon fill="#424242" stroke="#424242" points="937.48,-332.16 947.99,-330.79 938.92,-325.31 937.48,-332.16"/>
</g>
<!-- t_LacticAcid_8 -->
<g id="node18" class="node">
<title>t_LacticAcid_8</title>
<path fill="#e3f2fd" stroke="#1565c0" stroke-width="1.2" d="M1878.61,-272.88C1878.61,-272.88 1773.86,-272.88 1773.86,-272.88 1767.86,-272.88 1761.86,-266.88 1761.86,-260.88 1761.86,-260.88 1761.86,-230.38 1761.86,-230.38 1761.86,-224.38 1767.86,-218.38 1773.86,-218.38 1773.86,-218.38 1878.61,-218.38 1878.61,-218.38 1884.61,-218.38 1890.61,-224.38 1890.61,-230.38 1890.61,-230.38 1890.61,-260.88 1890.61,-260.88 1890.61,-266.88 1884.61,-272.88 1878.61,-272.88"/>
<text xml:space="preserve" text-anchor="start" x="1798.49" y="-257.43" font-family="Helvetica,sans-Serif" font-weight="bold" font-size="11.00">LacticAcid</text>
<text xml:space="preserve" text-anchor="start" x="1814.99" y="-241.38" font-family="Helvetica,sans-Serif" font-size="10.00" fill="#c62828">[true]</text>
<text xml:space="preserve" text-anchor="start" x="1771.86" y="-226.12" font-family="Helvetica,sans-Serif" font-size="10.00" fill="#1565c0">LacticAcid&#39; := LacticAcid</text>
<polygon fill="#1565c0" stroke="#1565c0" points="1769.86,-252.88 1769.86,-252.88 1882.61,-252.88 1882.61,-252.88 1769.86,-252.88"/>
</g>
<!-- p_r2_q1_q10_q11_+10&#45;&gt;t_LacticAcid_8 -->
<g id="edge28" class="edge">
<title>p_r2_q1_q10_q11_+10&#45;&gt;t_LacticAcid_8</title>
<path fill="none" stroke="#424242" d="M660.2,-243.78C718.47,-226.28 803.39,-207.62 879.17,-207.62 879.17,-207.62 879.17,-207.62 1246.76,-207.62 1427.65,-207.62 1639.95,-221.94 1750.2,-233.58"/>
<polygon fill="#424242" stroke="#424242" points="1749.7,-237.05 1760.01,-234.64 1750.45,-230.09 1749.7,-237.05"/>
</g>
<!-- t_Leucocytes_9 -->
<g id="node19" class="node">
<title>t_Leucocytes_9</title>
<path fill="#e3f2fd" stroke="#1565c0" stroke-width="1.2" d="M1302.64,-323.88C1302.64,-323.88 1188.89,-323.88 1188.89,-323.88 1182.89,-323.88 1176.89,-317.88 1176.89,-311.88 1176.89,-311.88 1176.89,-281.38 1176.89,-281.38 1176.89,-275.38 1182.89,-269.38 1188.89,-269.38 1188.89,-269.38 1302.64,-269.38 1302.64,-269.38 1308.64,-269.38 1314.64,-275.38 1314.64,-281.38 1314.64,-281.38 1314.64,-311.88 1314.64,-311.88 1314.64,-317.88 1308.64,-323.88 1302.64,-323.88"/>
<text xml:space="preserve" text-anchor="start" x="1215.76" y="-308.43" font-family="Helvetica,sans-Serif" font-weight="bold" font-size="11.00">Leucocytes</text>
<text xml:space="preserve" text-anchor="start" x="1234.51" y="-292.38" font-family="Helvetica,sans-Serif" font-size="10.00" fill="#c62828">[true]</text>
<text xml:space="preserve" text-anchor="start" x="1186.89" y="-277.12" font-family="Helvetica,sans-Serif" font-size="10.00" fill="#1565c0">Leucocytes&#39; := Leucocytes</text>
<polygon fill="#1565c0" stroke="#1565c0" points="1184.89,-303.88 1184.89,-303.88 1306.64,-303.88 1306.64,-303.88 1184.89,-303.88"/>
</g>
<!-- p_r2_q1_q10_q11_+10&#45;&gt;t_Leucocytes_9 -->
<g id="edge33" class="edge">
<title>p_r2_q1_q10_q11_+10&#45;&gt;t_Leucocytes_9</title>
<path fill="none" stroke="#424242" d="M665.46,-265.23C723.95,-263.62 806.66,-263.62 879.17,-263.62 879.17,-263.62 879.17,-263.62 983.94,-263.62 1045.05,-263.62 1113.88,-270.24 1165.48,-277.82"/>
<polygon fill="#424242" stroke="#424242" points="1164.64,-281.24 1175.05,-279.28 1165.69,-274.32 1164.64,-281.24"/>
</g>
<!-- t_Release A_10 -->
<g id="node20" class="node">
<title>t_Release A_10</title>
<path fill="#e3f2fd" stroke="#1565c0" stroke-width="1.2" d="M1850.11,-105.25C1850.11,-105.25 1802.36,-105.25 1802.36,-105.25 1796.36,-105.25 1790.36,-99.25 1790.36,-93.25 1790.36,-93.25 1790.36,-78 1790.36,-78 1790.36,-72 1796.36,-66 1802.36,-66 1802.36,-66 1850.11,-66 1850.11,-66 1856.11,-66 1862.11,-72 1862.11,-78 1862.11,-78 1862.11,-93.25 1862.11,-93.25 1862.11,-99.25 1856.11,-105.25 1850.11,-105.25"/>
<text xml:space="preserve" text-anchor="start" x="1800.36" y="-89.8" font-family="Helvetica,sans-Serif" font-weight="bold" font-size="11.00">Release A</text>
<text xml:space="preserve" text-anchor="start" x="1814.99" y="-73.75" font-family="Helvetica,sans-Serif" font-size="10.00" fill="#c62828">[true]</text>
<polygon fill="#1565c0" stroke="#1565c0" points="1798.36,-85.25 1798.36,-85.25 1854.11,-85.25 1854.11,-85.25 1798.36,-85.25"/>
</g>
<!-- p_r2_q1_q10_q11_+10&#45;&gt;t_Release A_10 -->
<g id="edge36" class="edge">
<title>p_r2_q1_q10_q11_+10&#45;&gt;t_Release A_10</title>
<path fill="none" stroke="#424242" d="M633.99,-210.15C686.16,-149.46 778.12,-66.62 879.17,-66.62 879.17,-66.62 879.17,-66.62 1550.08,-66.62 1630.46,-66.62 1723.97,-70.94 1778.68,-76.45"/>
<polygon fill="#424242" stroke="#424242" points="1778.25,-79.93 1788.57,-77.52 1779,-72.97 1778.25,-79.93"/>
</g>
<!-- t_Return ER_11 -->
<g id="node21" class="node">
<title>t_Return ER_11</title>
<path fill="#e3f2fd" stroke="#1565c0" stroke-width="1.2" d="M2099.63,-39.25C2099.63,-39.25 2048.88,-39.25 2048.88,-39.25 2042.88,-39.25 2036.88,-33.25 2036.88,-27.25 2036.88,-27.25 2036.88,-12 2036.88,-12 2036.88,-6 2042.88,0 2048.88,0 2048.88,0 2099.63,0 2099.63,0 2105.63,0 2111.63,-6 2111.63,-12 2111.63,-12 2111.63,-27.25 2111.63,-27.25 2111.63,-33.25 2105.63,-39.25 2099.63,-39.25"/>
<text xml:space="preserve" text-anchor="start" x="2046.88" y="-23.8" font-family="Helvetica,sans-Serif" font-weight="bold" font-size="11.00">Return ER</text>
<text xml:space="preserve" text-anchor="start" x="2063" y="-7.75" font-family="Helvetica,sans-Serif" font-size="10.00" fill="#c62828">[true]</text>
<polygon fill="#1565c0" stroke="#1565c0" points="2044.88,-19.25 2044.88,-19.25 2103.63,-19.25 2103.63,-19.25 2044.88,-19.25"/>
</g>
<!-- p_r2_q1_q10_q11_+10&#45;&gt;t_Return ER_11 -->
<g id="edge41" class="edge">
<title>p_r2_q1_q10_q11_+10&#45;&gt;t_Return ER_11</title>
<path fill="none" stroke="#424242" d="M614.71,-200.07C633.42,-158.75 662.35,-109.03 701.39,-76.62 766.24,-22.8 794.89,-10.62 879.17,-10.62 879.17,-10.62 879.17,-10.62 1827.24,-10.62 1896.04,-10.62 1975.66,-10.62 2025.25,-12.87"/>
<polygon fill="#424242" stroke="#424242" points="2024.9,-16.35 2035.06,-13.37 2025.26,-9.36 2024.9,-16.35"/>
</g>
<!-- p_r3_q10_q3_q6 -->
<g id="node4" class="node">
<title>p_r3_q10_q3_q6</title>
<ellipse fill="#e8f5e9" stroke="#616161" cx="1409.42" cy="-312.62" rx="58.78" ry="58.78"/>
<text xml:space="preserve" text-anchor="middle" x="1409.42" y="-308.18" font-family="Helvetica,sans-Serif" font-size="11.00">p_r3_q10_q3_q6</text>
</g>
<!-- p_r3_q10_q3_q6&#45;&gt;t_CRP_2 -->
<g id="edge5" class="edge">
<title>p_r3_q10_q3_q6&#45;&gt;t_CRP_2</title>
<path fill="none" stroke="#424242" d="M1449.5,-269.47C1470.41,-246.38 1495.86,-218.28 1515.66,-196.42"/>
<polygon fill="#424242" stroke="#424242" points="1518.09,-198.95 1522.21,-189.19 1512.9,-194.25 1518.09,-198.95"/>
</g>
<!-- p_r3_q10_q3_q6&#45;&gt;t_IV Antibiotics_6 -->
<g id="edge20" class="edge">
<title>p_r3_q10_q3_q6&#45;&gt;t_IV Antibiotics_6</title>
<path fill="none" stroke="#424242" d="M1452.09,-353.5C1473.88,-374.86 1499.98,-400.46 1519.46,-419.56"/>
<polygon fill="#424242" stroke="#424242" points="1516.97,-422.02 1526.56,-426.53 1521.87,-417.02 1516.97,-422.02"/>
</g>
<!-- p_r4_q11_q4 -->
<g id="node5" class="node">
<title>p_r4_q11_q4</title>
<ellipse fill="#e8f5e9" stroke="#616161" cx="1677.91" cy="-160.62" rx="47.96" ry="47.96"/>
<text xml:space="preserve" text-anchor="middle" x="1677.91" y="-156.18" font-family="Helvetica,sans-Serif" font-size="11.00">p_r4_q11_q4</text>
</g>
<!-- p_r4_q11_q4&#45;&gt;t_LacticAcid_8 -->
<g id="edge29" class="edge">
<title>p_r4_q11_q4&#45;&gt;t_LacticAcid_8</title>
<path fill="none" stroke="#424242" d="M1719.67,-184.3C1734.52,-192.93 1751.59,-202.85 1767.63,-212.16"/>
<polygon fill="#424242" stroke="#424242" points="1765.73,-215.11 1776.14,-217.1 1769.25,-209.05 1765.73,-215.11"/>
</g>
<!-- p_r4_q11_q4&#45;&gt;t_Release A_10 -->
<g id="edge37" class="edge">
<title>p_r4_q11_q4&#45;&gt;t_Release A_10</title>
<path fill="none" stroke="#424242" d="M1721.23,-138.93C1739.61,-129.51 1761.16,-118.47 1779.86,-108.88"/>
<polygon fill="#424242" stroke="#424242" points="1781.27,-112.09 1788.58,-104.42 1778.08,-105.86 1781.27,-112.09"/>
</g>
<!-- p_r5_q12 -->
<g id="node6" class="node">
<title>p_r5_q12</title>
<ellipse fill="#e8f5e9" stroke="#616161" cx="1963.75" cy="-93.62" rx="37.13" ry="37.13"/>
<text xml:space="preserve" text-anchor="middle" x="1963.75" y="-89.17" font-family="Helvetica,sans-Serif" font-size="11.00">p_r5_q12</text>
</g>
<!-- p_r5_q12&#45;&gt;t_Return ER_11 -->
<g id="edge40" class="edge">
<title>p_r5_q12&#45;&gt;t_Return ER_11</title>
<path fill="none" stroke="#424242" d="M1994.97,-73.01C2007.28,-64.62 2021.67,-54.81 2034.72,-45.91"/>
<polygon fill="#424242" stroke="#424242" points="2036.4,-49 2042.69,-40.47 2032.46,-43.21 2036.4,-49"/>
</g>
<!-- p_r6_q2 -->
<g id="node7" class="node">
<title>p_r6_q2</title>
<ellipse fill="#e8f5e9" stroke="#616161" cx="588.12" cy="-449.62" rx="33.52" ry="33.52"/>
<text xml:space="preserve" text-anchor="middle" x="588.12" y="-445.18" font-family="Helvetica,sans-Serif" font-size="11.00">p_r6_q2</text>
</g>
<!-- p_r6_q2&#45;&gt;t_ER Sepsis Triage_4 -->
<g id="edge13" class="edge">
<title>p_r6_q2&#45;&gt;t_ER Sepsis Triage_4</title>
<path fill="none" stroke="#424242" d="M620.71,-458.96C640.36,-464.76 666.35,-472.44 690.22,-479.49"/>
<polygon fill="#424242" stroke="#424242" points="688.98,-482.77 699.56,-482.25 690.96,-476.06 688.98,-482.77"/>
</g>
<!-- p_r7_q5_q9 -->
<g id="node8" class="node">
<title>p_r7_q5_q9</title>
<ellipse fill="#e8f5e9" stroke="#616161" cx="1096.54" cy="-353.62" rx="44.35" ry="44.35"/>
<text xml:space="preserve" text-anchor="middle" x="1096.54" y="-349.18" font-family="Helvetica,sans-Serif" font-size="11.00">p_r7_q5_q9</text>
</g>
<!-- p_r7_q5_q9&#45;&gt;t_Leucocytes_9 -->
<g id="edge32" class="edge">
<title>p_r7_q5_q9&#45;&gt;t_Leucocytes_9</title>
<path fill="none" stroke="#424242" d="M1138.16,-337.9C1146.75,-334.57 1156.11,-330.95 1165.58,-327.28"/>
<polygon fill="#424242" stroke="#424242" points="1166.83,-330.55 1174.89,-323.68 1164.3,-324.02 1166.83,-330.55"/>
</g>
<!-- p_r8_q7 -->
<g id="node9" class="node">
<title>p_r8_q7</title>
<ellipse fill="#e8f5e9" stroke="#616161" cx="1677.91" cy="-496.62" rx="33.52" ry="33.52"/>
<text xml:space="preserve" text-anchor="middle" x="1677.91" y="-492.18" font-family="Helvetica,sans-Serif" font-size="11.00">p_r8_q7</text>
</g>
<!-- p_r8_q7&#45;&gt;t_Admission NC_1 -->
<g id="edge2" class="edge">
<title>p_r8_q7&#45;&gt;t_Admission NC_1</title>
<path fill="none" stroke="#424242" d="M1644.18,-496.74C1538.46,-497.11 1196.59,-498.25 913.69,-498.62 883.89,-498.66 874.75,-508.54 846.64,-498.62 827.27,-491.79 827.83,-480.88 810.64,-469.62 809.61,-468.95 808.56,-468.28 807.49,-467.61"/>
<polygon fill="#424242" stroke="#424242" points="809.31,-464.61 798.93,-462.51 805.73,-470.63 809.31,-464.61"/>
</g>
<!-- p_r9_q8 -->
<g id="node10" class="node">
<title>p_r9_q8</title>
<ellipse fill="#e8f5e9" stroke="#616161" cx="880.17" cy="-455.62" rx="33.52" ry="33.52"/>
<text xml:space="preserve" text-anchor="middle" x="880.17" y="-451.18" font-family="Helvetica,sans-Serif" font-size="11.00">p_r9_q8</text>
</g>
<!-- p_r9_q8&#45;&gt;t_IV Liquid_7 -->
<g id="edge25" class="edge">
<title>p_r9_q8&#45;&gt;t_IV Liquid_7</title>
<path fill="none" stroke="#424242" d="M903.03,-430.89C918.82,-413.02 940.19,-388.86 956.71,-370.17"/>
<polygon fill="#424242" stroke="#424242" points="959.14,-372.7 963.14,-362.89 953.9,-368.06 959.14,-372.7"/>
</g>
<!-- t_Admission NC_1&#45;&gt;p_r2_q1_q10_q11_+10 -->
<g id="edge3" class="edge">
<title>t_Admission NC_1&#45;&gt;p_r2_q1_q10_q11_+10</title>
<path fill="none" stroke="#424242" d="M707.61,-421.76C705.47,-420.09 703.38,-418.37 701.39,-416.62 678.15,-396.19 655.68,-370.73 637.03,-346.89"/>
<polygon fill="#424242" stroke="#424242" points="639.87,-344.83 631,-339.04 634.32,-349.1 639.87,-344.83"/>
</g>
<!-- t_Admission NC_1&#45;&gt;p_r9_q8 -->
<g id="edge4" class="edge">
<title>t_Admission NC_1&#45;&gt;p_r9_q8</title>
<path fill="none" stroke="#424242" d="M804.24,-447.04C814.38,-448.2 825.05,-449.42 835.06,-450.57"/>
<polygon fill="#424242" stroke="#424242" points="834.59,-454.04 844.93,-451.7 835.39,-447.08 834.59,-454.04"/>
</g>
<!-- t_CRP_2&#45;&gt;p_r2_q1_q10_q11_+10 -->
<g id="edge7" class="edge">
<title>t_CRP_2&#45;&gt;p_r2_q1_q10_q11_+10</title>
<path fill="none" stroke="#424242" d="M1508.11,-166.55C1450.41,-169.62 1340.4,-169.62 1246.76,-169.62 879.17,-169.62 879.17,-169.62 879.17,-169.62 798.81,-169.62 775.46,-171.45 701.39,-202.62 688.09,-208.22 674.8,-215.6 662.25,-223.47"/>
<polygon fill="#424242" stroke="#424242" points="660.59,-220.37 654.09,-228.74 664.39,-226.25 660.59,-220.37"/>
</g>
<!-- t_CRP_2&#45;&gt;p_r4_q11_q4 -->
<g id="edge8" class="edge">
<title>t_CRP_2&#45;&gt;p_r4_q11_q4</title>
<path fill="none" stroke="#424242" d="M1589.86,-160.62C1598.94,-160.62 1608.78,-160.62 1618.47,-160.62"/>
<polygon fill="#424242" stroke="#424242" points="1618.2,-164.13 1628.2,-160.63 1618.2,-157.13 1618.2,-164.13"/>
</g>
<!-- t_ER Registration_3&#45;&gt;p_r1_q1 -->
<g id="edge10" class="edge">
<title>t_ER Registration_3&#45;&gt;p_r1_q1</title>
<path fill="none" stroke="#424242" d="M265.2,-296.4C273.74,-298.18 282.17,-299.94 290.03,-301.58"/>
<polygon fill="#424242" stroke="#424242" points="289.11,-304.96 299.61,-303.58 290.54,-298.11 289.11,-304.96"/>
</g>
<!-- t_ER Registration_3&#45;&gt;p_r2_q1_q10_q11_+10 -->
<g id="edge11" class="edge">
<title>t_ER Registration_3&#45;&gt;p_r2_q1_q10_q11_+10</title>
<path fill="none" stroke="#424242" d="M265.25,-270.22C277.16,-269.14 289.29,-268.22 300.8,-267.62 367.22,-264.19 442.42,-265.72 499.07,-267.95"/>
<polygon fill="#424242" stroke="#424242" points="498.86,-271.44 509,-268.36 499.15,-264.45 498.86,-271.44"/>
</g>
<!-- t_ER Sepsis Triage_4&#45;&gt;p_r2_q1_q10_q11_+10 -->
<g id="edge15" class="edge">
<title>t_ER Sepsis Triage_4&#45;&gt;p_r2_q1_q10_q11_+10</title>
<path fill="none" stroke="#424242" d="M700.85,-479.09C678.01,-456.71 681.34,-443.81 665.39,-415.62 653.67,-394.91 640.89,-372.42 629.2,-351.51"/>
<polygon fill="#424242" stroke="#424242" points="632.4,-350.06 624.47,-343.03 626.28,-353.47 632.4,-350.06"/>
</g>
<!-- t_ER Sepsis Triage_4&#45;&gt;p_r3_q10_q3_q6 -->
<g id="edge14" class="edge">
<title>t_ER Sepsis Triage_4&#45;&gt;p_r3_q10_q3_q6</title>
<path fill="none" stroke="#424242" d="M802.21,-518.78C816.17,-524.04 831.79,-528.98 846.64,-531.62 875.98,-536.85 884.54,-537.79 913.69,-531.62 1080.22,-496.42 1258.87,-401.32 1349.05,-348.77"/>
<polygon fill="#424242" stroke="#424242" points="1350.65,-351.88 1357.51,-343.81 1347.11,-345.85 1350.65,-351.88"/>
</g>
<!-- t_ER Triage_5&#45;&gt;p_r2_q1_q10_q11_+10 -->
<g id="edge18" class="edge">
<title>t_ER Triage_5&#45;&gt;p_r2_q1_q10_q11_+10</title>
<path fill="none" stroke="#424242" d="M475.13,-290.44C482.76,-288.43 491.17,-286.39 499.84,-284.42"/>
<polygon fill="#424242" stroke="#424242" points="500.45,-287.87 509.46,-282.3 498.94,-281.03 500.45,-287.87"/>
</g>
<!-- t_ER Triage_5&#45;&gt;p_r6_q2 -->
<g id="edge19" class="edge">
<title>t_ER Triage_5&#45;&gt;p_r6_q2</title>
<path fill="none" stroke="#424242" d="M460.45,-323.62C484.96,-348 526.67,-389.5 555.5,-418.17"/>
<polygon fill="#424242" stroke="#424242" points="553,-420.62 562.56,-425.19 557.94,-415.66 553,-420.62"/>
</g>
<!-- t_IV Antibiotics_6&#45;&gt;p_r2_q1_q10_q11_+10 -->
<g id="edge22" class="edge">
<title>t_IV Antibiotics_6&#45;&gt;p_r2_q1_q10_q11_+10</title>
<path fill="none" stroke="#424242" d="M1503.92,-451.47C1375.91,-454.55 995.12,-440.04 701.39,-336.62 688.63,-332.13 675.43,-326.57 662.75,-320.59"/>
<polygon fill="#424242" stroke="#424242" points="664.61,-317.6 654.08,-316.38 661.55,-323.89 664.61,-317.6"/>
</g>
<!-- t_IV Antibiotics_6&#45;&gt;p_r8_q7 -->
<g id="edge23" class="edge">
<title>t_IV Antibiotics_6&#45;&gt;p_r8_q7</title>
<path fill="none" stroke="#424242" d="M1594.43,-464.76C1607.83,-469.94 1622.47,-475.6 1635.66,-480.69"/>
<polygon fill="#424242" stroke="#424242" points="1634.32,-483.93 1644.91,-484.26 1636.85,-477.4 1634.32,-483.93"/>
</g>
<!-- t_IV Liquid_7&#45;&gt;p_r2_q1_q10_q11_+10 -->
<g id="edge27" class="edge">
<title>t_IV Liquid_7&#45;&gt;p_r2_q1_q10_q11_+10</title>
<path fill="none" stroke="#424242" d="M949.47,-342.36C897.14,-337.74 790.95,-321.13 701.39,-304.62 692.18,-302.93 682.56,-301.08 672.99,-299.13"/>
<polygon fill="#424242" stroke="#424242" points="673.8,-295.72 663.29,-297.11 672.37,-302.57 673.8,-295.72"/>
</g>
<!-- t_IV Liquid_7&#45;&gt;p_r7_q5_q9 -->
<g id="edge26" class="edge">
<title>t_IV Liquid_7&#45;&gt;p_r7_q5_q9</title>
<path fill="none" stroke="#424242" d="M1016.52,-345.13C1024.22,-345.96 1032.63,-346.86 1041.01,-347.76"/>
<polygon fill="#424242" stroke="#424242" points="1040.51,-351.23 1050.83,-348.82 1041.26,-344.27 1040.51,-351.23"/>
</g>
<!-- t_LacticAcid_8&#45;&gt;p_r2_q1_q10_q11_+10 -->
<g id="edge31" class="edge">
<title>t_LacticAcid_8&#45;&gt;p_r2_q1_q10_q11_+10</title>
<path fill="none" stroke="#424242" d="M1761.52,-245.87C1655.01,-240.98 1434.05,-225.62 1246.76,-225.62 879.17,-225.62 879.17,-225.62 879.17,-225.62 809.69,-225.62 732.52,-241.31 675.26,-254.74"/>
<polygon fill="#424242" stroke="#424242" points="674.48,-251.33 665.56,-257.04 676.09,-258.14 674.48,-251.33"/>
</g>
<!-- t_LacticAcid_8&#45;&gt;p_r7_q5_q9 -->
<g id="edge30" class="edge">
<title>t_LacticAcid_8&#45;&gt;p_r7_q5_q9</title>
<path fill="none" stroke="#424242" d="M1798.36,-273.16C1752.08,-317.45 1652.45,-399.62 1550.08,-399.62 1408.42,-399.62 1408.42,-399.62 1408.42,-399.62 1317.25,-399.62 1212.65,-380.03 1150.99,-366.41"/>
<polygon fill="#424242" stroke="#424242" points="1151.99,-363.05 1141.47,-364.28 1150.46,-369.88 1151.99,-363.05"/>
</g>
<!-- t_Leucocytes_9&#45;&gt;p_r2_q1_q10_q11_+10 -->
<g id="edge35" class="edge">
<title>t_Leucocytes_9&#45;&gt;p_r2_q1_q10_q11_+10</title>
<path fill="none" stroke="#424242" d="M1176.55,-294.29C1124.02,-289.25 1049.54,-281.62 983.94,-281.62 879.17,-281.62 879.17,-281.62 879.17,-281.62 811.19,-281.62 734.25,-281.62 676.7,-280.31"/>
<polygon fill="#424242" stroke="#424242" points="677.05,-276.81 666.97,-280.06 676.88,-283.81 677.05,-276.81"/>
</g>
<!-- t_Leucocytes_9&#45;&gt;p_r3_q10_q3_q6 -->
<g id="edge34" class="edge">
<title>t_Leucocytes_9&#45;&gt;p_r3_q10_q3_q6</title>
<path fill="none" stroke="#424242" d="M1314.85,-303.36C1322.95,-304.17 1331.21,-304.98 1339.32,-305.79"/>
<polygon fill="#424242" stroke="#424242" points="1338.84,-309.26 1349.13,-306.76 1339.53,-302.29 1338.84,-309.26"/>
</g>
<!-- t_Release A_10&#45;&gt;p_r2_q1_q10_q11_+10 -->
<g id="edge39" class="edge">
<title>t_Release A_10&#45;&gt;p_r2_q1_q10_q11_+10</title>
<path fill="none" stroke="#424242" d="M1790.07,-89.37C1737.76,-89.6 1636.36,-84.62 1550.08,-84.62 879.17,-84.62 879.17,-84.62 879.17,-84.62 787.06,-84.62 702.51,-153.44 648.76,-207.87"/>
<polygon fill="#424242" stroke="#424242" points="646.58,-205.1 642.11,-214.71 651.59,-209.98 646.58,-205.1"/>
</g>
<!-- t_Release A_10&#45;&gt;p_r5_q12 -->
<g id="edge38" class="edge">
<title>t_Release A_10&#45;&gt;p_r5_q12</title>
<path fill="none" stroke="#424242" d="M1862.49,-87.71C1878.57,-88.66 1897.85,-89.79 1915.19,-90.82"/>
<polygon fill="#424242" stroke="#424242" points="1914.56,-94.29 1924.74,-91.38 1914.97,-87.3 1914.56,-94.29"/>
</g>
<!-- t_Return ER_11&#45;&gt;p_r2_q1_q10_q11_+10 -->
<g id="edge42" class="edge">
<title>t_Return ER_11&#45;&gt;p_r2_q1_q10_q11_+10</title>
<path fill="none" stroke="#424242" d="M2036.58,-25.8C1988.5,-28.62 1901.56,-28.62 1827.24,-28.62 879.17,-28.62 879.17,-28.62 879.17,-28.62 794.89,-28.62 766.24,-40.8 701.39,-94.62 669.7,-120.93 644.67,-158.64 626.37,-192.62"/>
<polygon fill="#424242" stroke="#424242" points="623.4,-190.74 621.85,-201.22 629.6,-194 623.4,-190.74"/>
</g>
</g>
</svg>
