<?xml version="1.0" encoding="UTF-8" standalone="no"?>
<!DOCTYPE svg PUBLIC "-//W3C//DTD SVG 1.1//EN"
 "http://www.w3.org/Graphics/SVG/1.1/DTD/svg11.dtd">
<!-- Generated by graphviz version 14.1.2 (20260124.0452)
 -->
<!-- Title: efsm Pages: 1 -->
<svg width="1601pt" height="329pt"
 viewBox="0.00 0.00 1601.00 329.00" xmlns="http://www.w3.org/2000/svg" xmlns:xlink="http://www.w3.org/1999/xlink">
<g id="graph0" class="graph" transform="scale(2.08333 2.08333) rotate(0) translate(4 153.99)">
<title>efsm</title>
<polygon fill="white" stroke="none" points="-4,4 -4,-153.99 764.47,-153.99 764.47,4 -4,4"/>
<text xml:space="preserve" text-anchor="middle" x="380.24" y="-133.64" font-family="Helvetica,sans-Serif" font-size="13.00">TC6: Loop + XOR + Updates — EFSM</text>
<!-- q0 -->
<g id="node1" class="node">
<title>q0</title>
<ellipse fill="#f3e5f5" stroke="#2e7d32" stroke-width="2.5" cx="55.72" cy="-64.49" rx="18" ry="18"/>
<text xml:space="preserve" text-anchor="middle" x="55.72" y="-60.04" font-family="Helvetica,sans-Serif" font-size="11.00">q0</text>
</g>
<!-- q1 -->
<g id="node2" class="node">
<title>q1</title>
<ellipse fill="#f3e5f5" stroke="#616161" cx="166.72" cy="-64.49" rx="18" ry="18"/>
<text xml:space="preserve" text-anchor="middle" x="166.72" y="-60.04" font-family="Helvetica,sans-Serif" font-size="11.00">q1</text>
</g>
<!-- q0&#45;&gt;q1 -->
<g id="edge2" class="edge">
<title>q0&#45;&gt;q1</title>
<path fill="none" stroke="#424242" d="M74.72,-64.49C91.64,-64.49 117.26,-64.49 137.01,-64.49"/>
<polygon fill="#424242" stroke="#424242" points="136.9,-67.99 146.9,-64.49 136.9,-60.99 136.9,-67.99"/>
<text xml:space="preserve" text-anchor="start" x="91.72" y="-83.99" font-family="Helvetica,sans-Serif" font-weight="bold" font-size="10.00">Register</text>
<text xml:space="preserve" text-anchor="start" x="101.1" y="-74.94" font-family="Helvetica,sans-Serif" font-size="9.00" fill="#c62828">[true]</text>
<text xml:space="preserve" text-anchor="start" x="100.72" y="-65.94" font-family="Helvetica,sans-Serif" font-size="9.00" fill="#1565c0">i&#39; := 0</text>
</g>
<!-- q1&#45;&gt;q1 -->
<g id="edge3" class="edge">
<title>q1&#45;&gt;q1</title>
<path fill="none" stroke="#424242" d="M157.23,-80.03C154.56,-90.4 157.72,-100.49 166.72,-100.49 172.2,-100.49 175.52,-96.75 176.67,-91.47"/>
<polygon fill="#424242" stroke="#424242" points="180.17,-91.4 176.27,-81.55 173.17,-91.68 180.17,-91.4"/>
<text xml:space="preserve" text-anchor="start" x="152.1" y="-119.99" font-family="Helvetica,sans-Serif" font-weight="bold" font-size="10.00">Check</text>
<text xml:space="preserve" text-anchor="start" x="124.72" y="-110.94" font-family="Helvetica,sans-Serif" font-size="9.00" fill="#c62828">[(&gt;= (+ 3/2 (* &#45;1 i)) 0)]</text>
<text xml:space="preserve" text-anchor="start" x="109.72" y="-101.94" font-family="Helvetica,sans-Serif" font-size="9.00" fill="#1565c0">amount&#39; := amounti&#39; := (+ 1 i)</text>
</g>
<!-- q4 -->
<g id="node3" class="node">
<title>q4</title>
<ellipse fill="#f3e5f5" stroke="#616161" cx="569.47" cy="-64.49" rx="18" ry="18"/>
<text xml:space="preserve" text-anchor="middle" x="569.47" y="-60.04" font-family="Helvetica,sans-Serif" font-size="11.00">q4</text>
</g>
<!-- q1&#45;&gt;q4 -->
<g id="edge4" class="edge">
<title>q1&#45;&gt;q4</title>
<path fill="none" stroke="#424242" d="M184.78,-66.84C190.47,-67.51 196.86,-68.16 202.72,-68.49 349.48,-76.85 386.71,-76.85 533.47,-68.49 535.67,-68.37 537.94,-68.2 540.22,-68"/>
<polygon fill="#424242" stroke="#424242" points="540.32,-71.51 549.91,-66.99 539.6,-64.55 540.32,-71.51"/>
<text xml:space="preserve" text-anchor="start" x="348.22" y="-94.26" font-family="Helvetica,sans-Serif" font-weight="bold" font-size="10.00">Approve</text>
<text xml:space="preserve" text-anchor="start" x="257.47" y="-85.21" font-family="Helvetica,sans-Serif" font-size="9.00" fill="#c62828">[(and (&gt;= (+ 5000 (* &#45;1 amount)) 0) (&lt; (+ 3/2 (* &#45;1 i)) 0))]</text>
<text xml:space="preserve" text-anchor="start" x="306.97" y="-76.21" font-family="Helvetica,sans-Serif" font-size="9.00" fill="#1565c0">amount&#39; := (+ &#45;50 amount)i&#39; := i</text>
</g>
<!-- q1&#45;&gt;q4 -->
<g id="edge6" class="edge">
<title>q1&#45;&gt;q4</title>
<path fill="none" stroke="#424242" d="M179.71,-51.51C185.94,-45.72 194.06,-39.53 202.72,-36.49 341.43,12.16 394.76,12.16 533.47,-36.49 538.48,-38.25 543.3,-41.06 547.69,-44.24"/>
<polygon fill="#424242" stroke="#424242" points="545.37,-46.86 555.31,-50.54 549.84,-41.47 545.37,-46.86"/>
<text xml:space="preserve" text-anchor="start" x="353.47" y="-55.99" font-family="Helvetica,sans-Serif" font-weight="bold" font-size="10.00">Reject</text>
<text xml:space="preserve" text-anchor="start" x="202.72" y="-46.94" font-family="Helvetica,sans-Serif" font-size="9.00" fill="#c62828">[(and (&lt; (+ 3/2 (* &#45;1 i)) 0) &#160;&#160;&#160;&#160;(=&gt; (&gt;= (+ 5000 (* &#45;1 amount)) 0) (&gt;= (+ 3/2 (* &#45;1 i)) 0)))]</text>
<text xml:space="preserve" text-anchor="start" x="321.6" y="-37.94" font-family="Helvetica,sans-Serif" font-size="9.00" fill="#1565c0">amount&#39; := amounti&#39; := i</text>
</g>
<!-- q5 -->
<g id="node4" class="node">
<title>q5</title>
<ellipse fill="#fff9c4" stroke="#616161" cx="738.47" cy="-64.49" rx="18" ry="18"/>
<ellipse fill="none" stroke="#616161" cx="738.47" cy="-64.49" rx="22" ry="22"/>
<text xml:space="preserve" text-anchor="middle" x="738.47" y="-60.04" font-family="Helvetica,sans-Serif" font-size="11.00">q5</text>
</g>
<!-- q4&#45;&gt;q5 -->
<g id="edge5" class="edge">
<title>q4&#45;&gt;q5</title>
<path fill="none" stroke="#424242" d="M587.71,-64.49C615.34,-64.49 669.98,-64.49 705.06,-64.49"/>
<polygon fill="#424242" stroke="#424242" points="704.63,-67.99 714.63,-64.49 704.63,-60.99 704.63,-67.99"/>
<text xml:space="preserve" text-anchor="start" x="638.47" y="-83.99" font-family="Helvetica,sans-Serif" font-weight="bold" font-size="10.00">Close</text>
<text xml:space="preserve" text-anchor="start" x="641.85" y="-74.94" font-family="Helvetica,sans-Serif" font-size="9.00" fill="#c62828">[true]</text>
<text xml:space="preserve" text-anchor="start" x="605.47" y="-65.94" font-family="Helvetica,sans-Serif" font-size="9.00" fill="#1565c0">amount&#39; := amounti&#39; := i</text>
</g>
<!-- __start__ -->
<g id="node5" class="node">
<title>__start__</title>
</g>
<!-- __start__&#45;&gt;q0 -->
<g id="edge1" class="edge">
<title>__start__&#45;&gt;q0</title>
<path fill="none" stroke="#424242" d="M0.87,-64.49C2.38,-64.49 14.67,-64.49 27.12,-64.49"/>
<polygon fill="#424242" stroke="#424242" points="26.99,-67.29 34.99,-64.49 26.99,-61.69 26.99,-67.29"/>
</g>
</g>
</svg>
