<?xml version="1.0" encoding="UTF-8" standalone="no"?>
<!DOCTYPE svg PUBLIC "-//W3C//DTD SVG 1.1//EN"
 "http://www.w3.org/Graphics/SVG/1.1/DTD/svg11.dtd">
<!-- Generated by graphviz version 14.1.2 (20260124.0452)
 -->
<!-- Title: dpn Pages: 1 -->
<svg width="1309pt" height="469pt"
 viewBox="0.00 0.00 1309.00 469.00" xmlns="http://www.w3.org/2000/svg" xmlns:xlink="http://www.w3.org/1999/xlink">
<g id="graph0" class="graph" transform="scale(2.08333 2.08333) rotate(0) translate(4 221.2)">
<title>dpn</title>
<polygon fill="white" stroke="none" points="-4,4 -4,-221.2 624.44,-221.2 624.44,4 -4,4"/>
<text xml:space="preserve" text-anchor="middle" x="310.22" y="-200.85" font-family="Helvetica,sans-Serif" font-size="13.00">TC1: Simple Sequence — DPN</text>
<!-- p_r0_q0 -->
<g id="node1" class="node">
<title>p_r0_q0</title>
<ellipse fill="#e8f5e9" stroke="#2e7d32" stroke-width="2.5" cx="33.52" cy="-59.17" rx="33.52" ry="33.52"/>
<text xml:space="preserve" text-anchor="middle" x="33.52" y="-54.72" font-family="Helvetica,sans-Serif" font-size="11.00">p_r0_q0</text>
</g>
<!-- t_A_1 -->
<g id="node5" class="node">
<title>t_A_1</title>
<path fill="#e3f2fd" stroke="#1565c0" stroke-width="1.2" d="M145.05,-78.8C145.05,-78.8 115.05,-78.8 115.05,-78.8 109.05,-78.8 103.05,-72.8 103.05,-66.8 103.05,-66.8 103.05,-51.55 103.05,-51.55 103.05,-45.55 109.05,-39.55 115.05,-39.55 115.05,-39.55 145.05,-39.55 145.05,-39.55 151.05,-39.55 157.05,-45.55 157.05,-51.55 157.05,-51.55 157.05,-66.8 157.05,-66.8 157.05,-72.8 151.05,-78.8 145.05,-78.8"/>
<text xml:space="preserve" text-anchor="start" x="125.92" y="-63.35" font-family="Helvetica,sans-Serif" font-weight="bold" font-size="11.00">A</text>
<text xml:space="preserve" text-anchor="start" x="118.8" y="-47.3" font-family="Helvetica,sans-Serif" font-size="10.00" fill="#c62828">[true]</text>
<polygon fill="#1565c0" stroke="#1565c0" points="116.8,-58.8 116.8,-58.8 143.3,-58.8 143.3,-58.8 116.8,-58.8"/>
</g>
<!-- p_r0_q0&#45;&gt;t_A_1 -->
<g id="edge1" class="edge">
<title>p_r0_q0&#45;&gt;t_A_1</title>
<path fill="none" stroke="#424242" d="M68.12,-59.17C75.66,-59.17 83.71,-59.17 91.4,-59.17"/>
<polygon fill="#424242" stroke="#424242" points="91.18,-62.67 101.18,-59.17 91.18,-55.67 91.18,-62.67"/>
</g>
<!-- p_r1_q1 -->
<g id="node2" class="node">
<title>p_r1_q1</title>
<ellipse fill="#e8f5e9" stroke="#616161" cx="226.57" cy="-90.17" rx="33.52" ry="33.52"/>
<text xml:space="preserve" text-anchor="middle" x="226.57" y="-85.72" font-family="Helvetica,sans-Serif" font-size="11.00">p_r1_q1</text>
</g>
<!-- t_B_2 -->
<g id="node6" class="node">
<title>t_B_2</title>
<path fill="#e3f2fd" stroke="#1565c0" stroke-width="1.2" d="M355.1,-113.42C355.1,-113.42 308.1,-113.42 308.1,-113.42 302.1,-113.42 296.1,-107.42 296.1,-101.42 296.1,-101.42 296.1,-70.92 296.1,-70.92 296.1,-64.92 302.1,-58.92 308.1,-58.92 308.1,-58.92 355.1,-58.92 355.1,-58.92 361.1,-58.92 367.1,-64.92 367.1,-70.92 367.1,-70.92 367.1,-101.42 367.1,-101.42 367.1,-107.42 361.1,-113.42 355.1,-113.42"/>
<text xml:space="preserve" text-anchor="start" x="327.47" y="-97.97" font-family="Helvetica,sans-Serif" font-weight="bold" font-size="11.00">B</text>
<text xml:space="preserve" text-anchor="start" x="320.35" y="-81.92" font-family="Helvetica,sans-Serif" font-size="10.00" fill="#c62828">[true]</text>
<text xml:space="preserve" text-anchor="start" x="306.1" y="-66.67" font-family="Helvetica,sans-Serif" font-size="10.00" fill="#1565c0">x&#39; := (+ 1 x)</text>
<polygon fill="#1565c0" stroke="#1565c0" points="304.1,-93.42 304.1,-93.42 359.1,-93.42 359.1,-93.42 304.1,-93.42"/>
</g>
<!-- p_r1_q1&#45;&gt;t_B_2 -->
<g id="edge4" class="edge">
<title>p_r1_q1&#45;&gt;t_B_2</title>
<path fill="none" stroke="#424242" d="M260.45,-88.9C267.97,-88.6 276.1,-88.29 284.07,-87.98"/>
<polygon fill="#424242" stroke="#424242" points="284.17,-91.48 294.03,-87.59 283.9,-84.48 284.17,-91.48"/>
</g>
<!-- p_r2_q1_q2_q3 -->
<g id="node3" class="node">
<title>p_r2_q1_q2_q3</title>
<ellipse fill="#e8f5e9" stroke="#616161" cx="458.27" cy="-55.17" rx="55.17" ry="55.17"/>
<text xml:space="preserve" text-anchor="middle" x="458.27" y="-50.72" font-family="Helvetica,sans-Serif" font-size="11.00">p_r2_q1_q2_q3</text>
</g>
<!-- p_r2_q1_q2_q3&#45;&gt;t_B_2 -->
<g id="edge5" class="edge">
<title>p_r2_q1_q2_q3&#45;&gt;t_B_2</title>
<path fill="none" stroke="#424242" d="M406.19,-74.53C397.08,-76.95 387.64,-79.26 378.69,-81.25"/>
<polygon fill="#424242" stroke="#424242" points="378.19,-77.78 369.14,-83.28 379.65,-84.63 378.19,-77.78"/>
</g>
<!-- t_C_3 -->
<g id="node7" class="node">
<title>t_C_3</title>
<path fill="#e3f2fd" stroke="#1565c0" stroke-width="1.2" d="M608.44,-82.42C608.44,-82.42 561.44,-82.42 561.44,-82.42 555.44,-82.42 549.44,-76.42 549.44,-70.42 549.44,-70.42 549.44,-39.92 549.44,-39.92 549.44,-33.92 555.44,-27.92 561.44,-27.92 561.44,-27.92 608.44,-27.92 608.44,-27.92 614.44,-27.92 620.44,-33.92 620.44,-39.92 620.44,-39.92 620.44,-70.42 620.44,-70.42 620.44,-76.42 614.44,-82.42 608.44,-82.42"/>
<text xml:space="preserve" text-anchor="start" x="580.82" y="-66.97" font-family="Helvetica,sans-Serif" font-weight="bold" font-size="11.00">C</text>
<text xml:space="preserve" text-anchor="start" x="573.69" y="-50.92" font-family="Helvetica,sans-Serif" font-size="10.00" fill="#c62828">[true]</text>
<text xml:space="preserve" text-anchor="start" x="559.44" y="-35.67" font-family="Helvetica,sans-Serif" font-size="10.00" fill="#1565c0">x&#39; := (+ 1 x)</text>
<polygon fill="#1565c0" stroke="#1565c0" points="557.44,-62.42 557.44,-62.42 612.44,-62.42 612.44,-62.42 557.44,-62.42"/>
</g>
<!-- p_r2_q1_q2_q3&#45;&gt;t_C_3 -->
<g id="edge9" class="edge">
<title>p_r2_q1_q2_q3&#45;&gt;t_C_3</title>
<path fill="none" stroke="#424242" d="M513.23,-48.48C521.36,-48.37 529.69,-48.42 537.65,-48.63"/>
<polygon fill="#424242" stroke="#424242" points="537.34,-52.12 547.46,-48.98 537.59,-45.12 537.34,-52.12"/>
</g>
<!-- p_r3_q2 -->
<g id="node4" class="node">
<title>p_r3_q2</title>
<ellipse fill="#e8f5e9" stroke="#616161" cx="458.27" cy="-162.17" rx="33.52" ry="33.52"/>
<text xml:space="preserve" text-anchor="middle" x="458.27" y="-157.72" font-family="Helvetica,sans-Serif" font-size="11.00">p_r3_q2</text>
</g>
<!-- p_r3_q2&#45;&gt;t_C_3 -->
<g id="edge8" class="edge">
<title>p_r3_q2&#45;&gt;t_C_3</title>
<path fill="none" stroke="#424242" d="M485.46,-141.96C494.43,-134.88 504.47,-126.79 513.44,-119.17 524.17,-110.06 535.57,-99.93 545.99,-90.46"/>
<polygon fill="#424242" stroke="#424242" points="548.35,-93.06 553.37,-83.73 543.63,-87.89 548.35,-93.06"/>
</g>
<!-- t_A_1&#45;&gt;p_r1_q1 -->
<g id="edge2" class="edge">
<title>t_A_1&#45;&gt;p_r1_q1</title>
<path fill="none" stroke="#424242" d="M157.63,-67.89C165.62,-70.51 174.58,-73.45 183.32,-76.32"/>
<polygon fill="#424242" stroke="#424242" points="182.14,-79.61 192.73,-79.4 184.32,-72.96 182.14,-79.61"/>
</g>
<!-- t_A_1&#45;&gt;p_r2_q1_q2_q3 -->
<g id="edge3" class="edge">
<title>t_A_1&#45;&gt;p_r2_q1_q2_q3</title>
<path fill="none" stroke="#424242" d="M157.44,-52.91C168.39,-50.62 181.26,-48.3 193.05,-47.17 260.51,-40.7 338.05,-44.36 391.61,-48.61"/>
<polygon fill="#424242" stroke="#424242" points="391.23,-52.09 401.49,-49.43 391.81,-45.12 391.23,-52.09"/>
</g>
<!-- t_B_2&#45;&gt;p_r2_q1_q2_q3 -->
<g id="edge7" class="edge">
<title>t_B_2&#45;&gt;p_r2_q1_q2_q3</title>
<path fill="none" stroke="#424242" d="M367.66,-71.32C375.37,-69.03 383.78,-66.74 392.25,-64.6"/>
<polygon fill="#424242" stroke="#424242" points="393.02,-68.01 401.9,-62.24 391.36,-61.21 393.02,-68.01"/>
</g>
<!-- t_B_2&#45;&gt;p_r3_q2 -->
<g id="edge6" class="edge">
<title>t_B_2&#45;&gt;p_r3_q2</title>
<path fill="none" stroke="#424242" d="M367.66,-107.55C383.91,-117.45 403.25,-129.24 419.8,-139.33"/>
<polygon fill="#424242" stroke="#424242" points="417.52,-142.04 427.88,-144.25 421.16,-136.06 417.52,-142.04"/>
</g>
<!-- t_C_3&#45;&gt;p_r2_q1_q2_q3 -->
<g id="edge10" class="edge">
<title>t_C_3&#45;&gt;p_r2_q1_q2_q3</title>
<path fill="none" stroke="#424242" d="M548.97,-61.31C541.34,-61.67 533.03,-61.88 524.65,-61.92"/>
<polygon fill="#424242" stroke="#424242" points="524.76,-58.42 514.74,-61.87 524.73,-65.42 524.76,-58.42"/>
</g>
</g>
</svg>
