<?xml version="1.0" encoding="UTF-8" standalone="no"?>
<!DOCTYPE svg PUBLIC "-//W3C//DTD SVG 1.1//EN"
 "http://www.w3.org/Graphics/SVG/1.1/DTD/svg11.dtd">
<!-- Generated by graphviz version 14.1.2 (20260124.0452)
 -->
<!-- Title: dpn Pages: 1 -->
<svg width="2021pt" height="716pt"
 viewBox="0.00 0.00 2021.00 716.00" xmlns="http://www.w3.org/2000/svg" xmlns:xlink="http://www.w3.org/1999/xlink">
<g id="graph0" class="graph" transform="scale(2.08333 2.08333) rotate(0) translate(4 339.91)">
<title>dpn</title>
<polygon fill="white" stroke="none" points="-4,4 -4,-339.91 965.9,-339.91 965.9,4 -4,4"/>
<text xml:space="preserve" text-anchor="middle" x="480.95" y="-319.56" font-family="Helvetica,sans-Serif" font-size="13.00">TC5: Multi&#45;Variable XOR — DPN</text>
<!-- p_r0_q0 -->
<g id="node1" class="node">
<title>p_r0_q0</title>
<ellipse fill="#e8f5e9" stroke="#2e7d32" stroke-width="2.5" cx="33.52" cy="-155.53" rx="33.52" ry="33.52"/>
<text xml:space="preserve" text-anchor="middle" x="33.52" y="-151.08" font-family="Helvetica,sans-Serif" font-size="11.00">p_r0_q0</text>
</g>
<!-- t_A_1 -->
<g id="node4" class="node">
<title>t_A_1</title>
<path fill="#e3f2fd" stroke="#1565c0" stroke-width="1.2" d="M145.05,-175.16C145.05,-175.16 115.05,-175.16 115.05,-175.16 109.05,-175.16 103.05,-169.16 103.05,-163.16 103.05,-163.16 103.05,-147.91 103.05,-147.91 103.05,-141.91 109.05,-135.91 115.05,-135.91 115.05,-135.91 145.05,-135.91 145.05,-135.91 151.05,-135.91 157.05,-141.91 157.05,-147.91 157.05,-147.91 157.05,-163.16 157.05,-163.16 157.05,-169.16 151.05,-175.16 145.05,-175.16"/>
<text xml:space="preserve" text-anchor="start" x="125.92" y="-159.71" font-family="Helvetica,sans-Serif" font-weight="bold" font-size="11.00">A</text>
<text xml:space="preserve" text-anchor="start" x="118.8" y="-143.66" font-family="Helvetica,sans-Serif" font-size="10.00" fill="#c62828">[true]</text>
<polygon fill="#1565c0" stroke="#1565c0" points="116.8,-155.16 116.8,-155.16 143.3,-155.16 143.3,-155.16 116.8,-155.16"/>
</g>
<!-- p_r0_q0&#45;&gt;t_A_1 -->
<g id="edge1" class="edge">
<title>p_r0_q0&#45;&gt;t_A_1</title>
<path fill="none" stroke="#424242" d="M68.12,-155.53C75.66,-155.53 83.71,-155.53 91.4,-155.53"/>
<polygon fill="#424242" stroke="#424242" points="91.18,-159.03 101.18,-155.53 91.18,-152.03 91.18,-159.03"/>
</g>
<!-- p_r1_q1 -->
<g id="node2" class="node">
<title>p_r1_q1</title>
<ellipse fill="#e8f5e9" stroke="#616161" cx="226.57" cy="-155.53" rx="33.52" ry="33.52"/>
<text xml:space="preserve" text-anchor="middle" x="226.57" y="-151.08" font-family="Helvetica,sans-Serif" font-size="11.00">p_r1_q1</text>
</g>
<!-- t_B_2 -->
<g id="node5" class="node">
<title>t_B_2</title>
<path fill="#e3f2fd" stroke="#1565c0" stroke-width="1.2" d="M571.85,-314.41C571.85,-314.41 445.35,-314.41 445.35,-314.41 439.35,-314.41 433.35,-308.41 433.35,-302.41 433.35,-302.41 433.35,-260.66 433.35,-260.66 433.35,-254.66 439.35,-248.66 445.35,-248.66 445.35,-248.66 571.85,-248.66 571.85,-248.66 577.85,-248.66 583.85,-254.66 583.85,-260.66 583.85,-260.66 583.85,-302.41 583.85,-302.41 583.85,-308.41 577.85,-314.41 571.85,-314.41"/>
<text xml:space="preserve" text-anchor="start" x="504.47" y="-298.96" font-family="Helvetica,sans-Serif" font-weight="bold" font-size="11.00">B</text>
<text xml:space="preserve" text-anchor="start" x="443.35" y="-282.91" font-family="Helvetica,sans-Serif" font-size="10.00" fill="#c62828">[(&gt;= (+ 1100 (* &#45;1 amount)) 0)]</text>
<text xml:space="preserve" text-anchor="start" x="450.85" y="-267.66" font-family="Helvetica,sans-Serif" font-size="10.00" fill="#1565c0">amount&#39; := (+ 100 amount)</text>
<text xml:space="preserve" text-anchor="start" x="484.22" y="-256.41" font-family="Helvetica,sans-Serif" font-size="10.00" fill="#1565c0">risk&#39; := risk</text>
<polygon fill="#1565c0" stroke="#1565c0" points="441.35,-294.41 441.35,-294.41 575.85,-294.41 575.85,-294.41 441.35,-294.41"/>
</g>
<!-- p_r1_q1&#45;&gt;t_B_2 -->
<g id="edge3" class="edge">
<title>p_r1_q1&#45;&gt;t_B_2</title>
<path fill="none" stroke="#424242" d="M247.49,-181.93C259.39,-198.42 276.1,-218.51 296.1,-230.53 333.78,-253.19 381.41,-263.89 421.92,-269.72"/>
<polygon fill="#424242" stroke="#424242" points="421.27,-273.16 431.65,-271.03 422.21,-266.22 421.27,-273.16"/>
</g>
<!-- t_C_3 -->
<g id="node6" class="node">
<title>t_C_3</title>
<path fill="#e3f2fd" stroke="#1565c0" stroke-width="1.2" d="M628.85,-230.41C628.85,-230.41 388.35,-230.41 388.35,-230.41 382.35,-230.41 376.35,-224.41 376.35,-218.41 376.35,-218.41 376.35,-176.66 376.35,-176.66 376.35,-170.66 382.35,-164.66 388.35,-164.66 388.35,-164.66 628.85,-164.66 628.85,-164.66 634.85,-164.66 640.85,-170.66 640.85,-176.66 640.85,-176.66 640.85,-218.41 640.85,-218.41 640.85,-224.41 634.85,-230.41 628.85,-230.41"/>
<text xml:space="preserve" text-anchor="start" x="504.47" y="-214.96" font-family="Helvetica,sans-Serif" font-weight="bold" font-size="11.00">C</text>
<text xml:space="preserve" text-anchor="start" x="386.35" y="-198.91" font-family="Helvetica,sans-Serif" font-size="10.00" fill="#c62828">[(and (&lt; (+ 1200 (* &#45;1 amount)) 0) (&gt;= (+ 6 (* &#45;1 risk)) 0))]</text>
<text xml:space="preserve" text-anchor="start" x="467.72" y="-183.66" font-family="Helvetica,sans-Serif" font-size="10.00" fill="#1565c0">amount&#39; := amount</text>
<text xml:space="preserve" text-anchor="start" x="484.22" y="-172.41" font-family="Helvetica,sans-Serif" font-size="10.00" fill="#1565c0">risk&#39; := risk</text>
<polygon fill="#1565c0" stroke="#1565c0" points="384.35,-210.41 384.35,-210.41 632.85,-210.41 632.85,-210.41 384.35,-210.41"/>
</g>
<!-- p_r1_q1&#45;&gt;t_C_3 -->
<g id="edge6" class="edge">
<title>p_r1_q1&#45;&gt;t_C_3</title>
<path fill="none" stroke="#424242" d="M260.52,-155.93C286.83,-158.44 325.64,-163.53 364.76,-169.36"/>
<polygon fill="#424242" stroke="#424242" points="364.15,-172.81 374.56,-170.84 365.2,-165.89 364.15,-172.81"/>
</g>
<!-- t_D_4 -->
<g id="node7" class="node">
<title>t_D_4</title>
<path fill="#e3f2fd" stroke="#1565c0" stroke-width="1.2" d="M709.1,-146.41C709.1,-146.41 308.1,-146.41 308.1,-146.41 302.1,-146.41 296.1,-140.41 296.1,-134.41 296.1,-134.41 296.1,-92.66 296.1,-92.66 296.1,-86.66 302.1,-80.66 308.1,-80.66 308.1,-80.66 709.1,-80.66 709.1,-80.66 715.1,-80.66 721.1,-86.66 721.1,-92.66 721.1,-92.66 721.1,-134.41 721.1,-134.41 721.1,-140.41 715.1,-146.41 709.1,-146.41"/>
<text xml:space="preserve" text-anchor="start" x="504.47" y="-130.96" font-family="Helvetica,sans-Serif" font-weight="bold" font-size="11.00">D</text>
<text xml:space="preserve" text-anchor="start" x="306.1" y="-114.91" font-family="Helvetica,sans-Serif" font-size="10.00" fill="#c62828">[(and (&lt; (+ 1100 (* &#45;1 amount)) 0) &#160;&#160;&#160;&#160;(=&gt; (&gt;= (+ 6 (* &#45;1 risk)) 0) (&gt;= (+ 1200 (* &#45;1 amount)) 0)))]</text>
<text xml:space="preserve" text-anchor="start" x="467.72" y="-99.66" font-family="Helvetica,sans-Serif" font-size="10.00" fill="#1565c0">amount&#39; := amount</text>
<text xml:space="preserve" text-anchor="start" x="484.22" y="-88.41" font-family="Helvetica,sans-Serif" font-size="10.00" fill="#1565c0">risk&#39; := risk</text>
<polygon fill="#1565c0" stroke="#1565c0" points="304.1,-126.41 304.1,-126.41 713.1,-126.41 713.1,-126.41 304.1,-126.41"/>
</g>
<!-- p_r1_q1&#45;&gt;t_D_4 -->
<g id="edge9" class="edge">
<title>p_r1_q1&#45;&gt;t_D_4</title>
<path fill="none" stroke="#424242" d="M259.15,-146.33C266.61,-144.79 275.11,-143.15 284.39,-141.46"/>
<polygon fill="#424242" stroke="#424242" points="284.9,-144.92 294.12,-139.71 283.66,-138.03 284.9,-144.92"/>
</g>
<!-- t_E_5 -->
<g id="node8" class="node">
<title>t_E_5</title>
<path fill="#e3f2fd" stroke="#1565c0" stroke-width="1.2" d="M949.9,-76.41C949.9,-76.41 872.15,-76.41 872.15,-76.41 866.15,-76.41 860.15,-70.41 860.15,-64.41 860.15,-64.41 860.15,-22.66 860.15,-22.66 860.15,-16.66 866.15,-10.66 872.15,-10.66 872.15,-10.66 949.9,-10.66 949.9,-10.66 955.9,-10.66 961.9,-16.66 961.9,-22.66 961.9,-22.66 961.9,-64.41 961.9,-64.41 961.9,-70.41 955.9,-76.41 949.9,-76.41"/>
<text xml:space="preserve" text-anchor="start" x="907.27" y="-60.96" font-family="Helvetica,sans-Serif" font-weight="bold" font-size="11.00">E</text>
<text xml:space="preserve" text-anchor="start" x="899.77" y="-44.91" font-family="Helvetica,sans-Serif" font-size="10.00" fill="#c62828">[true]</text>
<text xml:space="preserve" text-anchor="start" x="870.15" y="-29.66" font-family="Helvetica,sans-Serif" font-size="10.00" fill="#1565c0">amount&#39; := amount</text>
<text xml:space="preserve" text-anchor="start" x="886.65" y="-18.41" font-family="Helvetica,sans-Serif" font-size="10.00" fill="#1565c0">risk&#39; := risk</text>
<polygon fill="#1565c0" stroke="#1565c0" points="868.15,-56.41 868.15,-56.41 953.9,-56.41 953.9,-56.41 868.15,-56.41"/>
</g>
<!-- p_r1_q1&#45;&gt;t_E_5 -->
<g id="edge12" class="edge">
<title>p_r1_q1&#45;&gt;t_E_5</title>
<path fill="none" stroke="#424242" d="M239.66,-124.45C251.18,-102.59 270.54,-75.39 296.1,-62.53 479.2,29.57 733.21,-0.79 848.6,-25.48"/>
<polygon fill="#424242" stroke="#424242" points="847.66,-28.86 858.18,-27.6 849.17,-22.03 847.66,-28.86"/>
</g>
<!-- p_r3_q2 -->
<g id="node3" class="node">
<title>p_r3_q2</title>
<ellipse fill="#e8f5e9" stroke="#616161" cx="790.62" cy="-155.53" rx="33.52" ry="33.52"/>
<text xml:space="preserve" text-anchor="middle" x="790.62" y="-151.08" font-family="Helvetica,sans-Serif" font-size="11.00">p_r3_q2</text>
</g>
<!-- p_r3_q2&#45;&gt;t_E_5 -->
<g id="edge13" class="edge">
<title>p_r3_q2&#45;&gt;t_E_5</title>
<path fill="none" stroke="#424242" d="M815.58,-132.87C830.22,-119.02 849.37,-100.91 866.59,-84.61"/>
<polygon fill="#424242" stroke="#424242" points="868.91,-87.24 873.77,-77.83 864.1,-82.15 868.91,-87.24"/>
</g>
<!-- t_A_1&#45;&gt;p_r1_q1 -->
<g id="edge2" class="edge">
<title>t_A_1&#45;&gt;p_r1_q1</title>
<path fill="none" stroke="#424242" d="M157.63,-155.53C165.05,-155.53 173.32,-155.53 181.47,-155.53"/>
<polygon fill="#424242" stroke="#424242" points="181.29,-159.03 191.29,-155.53 181.29,-152.03 181.29,-159.03"/>
</g>
<!-- t_B_2&#45;&gt;p_r1_q1 -->
<g id="edge4" class="edge">
<title>t_B_2&#45;&gt;p_r1_q1</title>
<path fill="none" stroke="#424242" d="M433.15,-286.96C390.45,-283.8 337.33,-273.32 296.1,-248.53 275.36,-236.06 258.16,-214.93 246.19,-195.84"/>
<polygon fill="#424242" stroke="#424242" points="249.29,-194.21 241.18,-187.4 243.27,-197.79 249.29,-194.21"/>
</g>
<!-- t_B_2&#45;&gt;p_r3_q2 -->
<g id="edge5" class="edge">
<title>t_B_2&#45;&gt;p_r3_q2</title>
<path fill="none" stroke="#424242" d="M584.05,-279.1C626.74,-274.8 679.87,-264.32 721.1,-239.53 739.57,-228.43 755.23,-210.45 766.9,-193.97"/>
<polygon fill="#424242" stroke="#424242" points="769.75,-196 772.45,-185.75 763.95,-192.08 769.75,-196"/>
</g>
<!-- t_C_3&#45;&gt;p_r1_q1 -->
<g id="edge7" class="edge">
<title>t_C_3&#45;&gt;p_r1_q1</title>
<path fill="none" stroke="#424242" d="M375.78,-184.5C337.63,-178.87 298.66,-172.45 270.26,-166.95"/>
<polygon fill="#424242" stroke="#424242" points="271.13,-163.56 260.64,-165.03 269.76,-170.42 271.13,-163.56"/>
</g>
<!-- t_C_3&#45;&gt;p_r3_q2 -->
<g id="edge8" class="edge">
<title>t_C_3&#45;&gt;p_r3_q2</title>
<path fill="none" stroke="#424242" d="M641.41,-177.76C679.19,-172.1 717.76,-166.31 746.09,-162.06"/>
<polygon fill="#424242" stroke="#424242" points="746.31,-165.57 755.69,-160.62 745.28,-158.64 746.31,-165.57"/>
</g>
<!-- t_D_4&#45;&gt;p_r1_q1 -->
<g id="edge10" class="edge">
<title>t_D_4&#45;&gt;p_r1_q1</title>
<path fill="none" stroke="#424242" d="M327.86,-146.99C307.2,-149.83 287.79,-152.26 271.66,-154"/>
<polygon fill="#424242" stroke="#424242" points="271.62,-150.48 262.03,-154.98 272.33,-157.45 271.62,-150.48"/>
</g>
<!-- t_D_4&#45;&gt;p_r3_q2 -->
<g id="edge11" class="edge">
<title>t_D_4&#45;&gt;p_r3_q2</title>
<path fill="none" stroke="#424242" d="M721.48,-145.31C730.23,-146.62 738.47,-147.86 745.98,-148.99"/>
<polygon fill="#424242" stroke="#424242" points="745.27,-152.42 755.68,-150.44 746.31,-145.5 745.27,-152.42"/>
</g>
<!-- t_E_5&#45;&gt;p_r1_q1 -->
<g id="edge14" class="edge">
<title>t_E_5&#45;&gt;p_r1_q1</title>
<path fill="none" stroke="#424242" d="M859.65,-37.54C750.2,-20.95 485.3,14.64 296.1,-80.53 278.69,-89.29 264.16,-104.7 253.02,-119.35"/>
<polygon fill="#424242" stroke="#424242" points="250.45,-116.94 247.42,-127.09 256.12,-121.04 250.45,-116.94"/>
</g>
</g>
</svg>
