<?xml version="1.0" encoding="UTF-8" standalone="no"?>
<!DOCTYPE svg PUBLIC "-//W3C//DTD SVG 1.1//EN"
 "http://www.w3.org/Graphics/SVG/1.1/DTD/svg11.dtd">
<!-- Generated by graphviz version 14.1.2 (20260124.0452)
 -->
<!-- Title: dpn Pages: 1 -->
<svg width="1953pt" height="709pt"
 viewBox="0.00 0.00 1953.00 709.00" xmlns="http://www.w3.org/2000/svg" xmlns:xlink="http://www.w3.org/1999/xlink">
<g id="graph0" class="graph" transform="scale(2.08333 2.08333) rotate(0) translate(4 336.43)">
<title>dpn</title>
<polygon fill="white" stroke="none" points="-4,4 -4,-336.43 933.4,-336.43 933.4,4 -4,4"/>
<text xml:space="preserve" text-anchor="middle" x="464.7" y="-316.08" font-family="Helvetica,sans-Serif" font-size="13.00">TC6: Loop + XOR + Updates — DPN</text>
<!-- p_r0_q0 -->
<g id="node1" class="node">
<title>p_r0_q0</title>
<ellipse fill="#e8f5e9" stroke="#2e7d32" stroke-width="2.5" cx="33.52" cy="-152.05" rx="33.52" ry="33.52"/>
<text xml:space="preserve" text-anchor="middle" x="33.52" y="-147.6" font-family="Helvetica,sans-Serif" font-size="11.00">p_r0_q0</text>
</g>
<!-- t_Register_4 -->
<g id="node7" class="node">
<title>t_Register_4</title>
<path fill="#e3f2fd" stroke="#1565c0" stroke-width="1.2" d="M155.3,-179.3C155.3,-179.3 115.05,-179.3 115.05,-179.3 109.05,-179.3 103.05,-173.3 103.05,-167.3 103.05,-167.3 103.05,-136.8 103.05,-136.8 103.05,-130.8 109.05,-124.8 115.05,-124.8 115.05,-124.8 155.3,-124.8 155.3,-124.8 161.3,-124.8 167.3,-130.8 167.3,-136.8 167.3,-136.8 167.3,-167.3 167.3,-167.3 167.3,-173.3 161.3,-179.3 155.3,-179.3"/>
<text xml:space="preserve" text-anchor="start" x="113.05" y="-163.85" font-family="Helvetica,sans-Serif" font-weight="bold" font-size="11.00">Register</text>
<text xml:space="preserve" text-anchor="start" x="123.92" y="-147.8" font-family="Helvetica,sans-Serif" font-size="10.00" fill="#c62828">[true]</text>
<text xml:space="preserve" text-anchor="start" x="122.8" y="-132.55" font-family="Helvetica,sans-Serif" font-size="10.00" fill="#1565c0">i&#39; := 0</text>
<polygon fill="#1565c0" stroke="#1565c0" points="111.05,-159.3 111.05,-159.3 159.3,-159.3 159.3,-159.3 111.05,-159.3"/>
</g>
<!-- p_r0_q0&#45;&gt;t_Register_4 -->
<g id="edge9" class="edge">
<title>p_r0_q0&#45;&gt;t_Register_4</title>
<path fill="none" stroke="#424242" d="M68.26,-152.05C75.61,-152.05 83.48,-152.05 91.14,-152.05"/>
<polygon fill="#424242" stroke="#424242" points="90.98,-155.55 100.98,-152.05 90.98,-148.55 90.98,-155.55"/>
</g>
<!-- p_r1_q1 -->
<g id="node2" class="node">
<title>p_r1_q1</title>
<ellipse fill="#e8f5e9" stroke="#616161" cx="236.82" cy="-152.05" rx="33.52" ry="33.52"/>
<text xml:space="preserve" text-anchor="middle" x="236.82" y="-147.6" font-family="Helvetica,sans-Serif" font-size="11.00">p_r1_q1</text>
</g>
<!-- t_Approve_1 -->
<g id="node4" class="node">
<title>t_Approve_1</title>
<path fill="#e3f2fd" stroke="#1565c0" stroke-width="1.2" d="M615.1,-310.93C615.1,-310.93 379.85,-310.93 379.85,-310.93 373.85,-310.93 367.85,-304.93 367.85,-298.93 367.85,-298.93 367.85,-257.18 367.85,-257.18 367.85,-251.18 373.85,-245.18 379.85,-245.18 379.85,-245.18 615.1,-245.18 615.1,-245.18 621.1,-245.18 627.1,-251.18 627.1,-257.18 627.1,-257.18 627.1,-298.93 627.1,-298.93 627.1,-304.93 621.1,-310.93 615.1,-310.93"/>
<text xml:space="preserve" text-anchor="start" x="474.97" y="-295.48" font-family="Helvetica,sans-Serif" font-weight="bold" font-size="11.00">Approve</text>
<text xml:space="preserve" text-anchor="start" x="377.85" y="-279.43" font-family="Helvetica,sans-Serif" font-size="10.00" fill="#c62828">[(and (&gt;= (+ 5000 (* &#45;1 amount)) 0) (&lt; (+ 3/2 (* &#45;1 i)) 0))]</text>
<text xml:space="preserve" text-anchor="start" x="440.85" y="-264.18" font-family="Helvetica,sans-Serif" font-size="10.00" fill="#1565c0">amount&#39; := (+ &#45;50 amount)</text>
<text xml:space="preserve" text-anchor="start" x="486.6" y="-252.93" font-family="Helvetica,sans-Serif" font-size="10.00" fill="#1565c0">i&#39; := i</text>
<polygon fill="#1565c0" stroke="#1565c0" points="375.85,-290.93 375.85,-290.93 619.1,-290.93 619.1,-290.93 375.85,-290.93"/>
</g>
<!-- p_r1_q1&#45;&gt;t_Approve_1 -->
<g id="edge1" class="edge">
<title>p_r1_q1&#45;&gt;t_Approve_1</title>
<path fill="none" stroke="#424242" d="M257.84,-178.28C269.78,-194.72 286.48,-214.81 306.35,-227.05 321.87,-236.61 339.28,-244 357.11,-249.81"/>
<polygon fill="#424242" stroke="#424242" points="355.61,-253 366.19,-252.6 357.66,-246.31 355.61,-253"/>
</g>
<!-- t_Check_2 -->
<g id="node5" class="node">
<title>t_Check_2</title>
<path fill="#e3f2fd" stroke="#1565c0" stroke-width="1.2" d="M541.97,-226.93C541.97,-226.93 452.97,-226.93 452.97,-226.93 446.97,-226.93 440.97,-220.93 440.97,-214.93 440.97,-214.93 440.97,-173.18 440.97,-173.18 440.97,-167.18 446.97,-161.18 452.97,-161.18 452.97,-161.18 541.97,-161.18 541.97,-161.18 547.97,-161.18 553.97,-167.18 553.97,-173.18 553.97,-173.18 553.97,-214.93 553.97,-214.93 553.97,-220.93 547.97,-226.93 541.97,-226.93"/>
<text xml:space="preserve" text-anchor="start" x="480.97" y="-211.48" font-family="Helvetica,sans-Serif" font-weight="bold" font-size="11.00">Check</text>
<text xml:space="preserve" text-anchor="start" x="450.97" y="-195.43" font-family="Helvetica,sans-Serif" font-size="10.00" fill="#c62828">[(&gt;= (+ 3/2 (* &#45;1 i)) 0)]</text>
<text xml:space="preserve" text-anchor="start" x="456.6" y="-180.18" font-family="Helvetica,sans-Serif" font-size="10.00" fill="#1565c0">amount&#39; := amount</text>
<text xml:space="preserve" text-anchor="start" x="474.97" y="-168.93" font-family="Helvetica,sans-Serif" font-size="10.00" fill="#1565c0">i&#39; := (+ 1 i)</text>
<polygon fill="#1565c0" stroke="#1565c0" points="448.97,-206.93 448.97,-206.93 545.97,-206.93 545.97,-206.93 448.97,-206.93"/>
</g>
<!-- p_r1_q1&#45;&gt;t_Check_2 -->
<g id="edge4" class="edge">
<title>p_r1_q1&#45;&gt;t_Check_2</title>
<path fill="none" stroke="#424242" d="M270.58,-152.7C310.26,-156.93 378.13,-167.5 429.14,-177.11"/>
<polygon fill="#424242" stroke="#424242" points="428.44,-180.54 438.92,-178.98 429.76,-173.66 428.44,-180.54"/>
</g>
<!-- t_Close_3 -->
<g id="node6" class="node">
<title>t_Close_3</title>
<path fill="#e3f2fd" stroke="#1565c0" stroke-width="1.2" d="M917.4,-72.93C917.4,-72.93 839.65,-72.93 839.65,-72.93 833.65,-72.93 827.65,-66.93 827.65,-60.93 827.65,-60.93 827.65,-19.18 827.65,-19.18 827.65,-13.18 833.65,-7.18 839.65,-7.18 839.65,-7.18 917.4,-7.18 917.4,-7.18 923.4,-7.18 929.4,-13.18 929.4,-19.18 929.4,-19.18 929.4,-60.93 929.4,-60.93 929.4,-66.93 923.4,-72.93 917.4,-72.93"/>
<text xml:space="preserve" text-anchor="start" x="863.52" y="-57.48" font-family="Helvetica,sans-Serif" font-weight="bold" font-size="11.00">Close</text>
<text xml:space="preserve" text-anchor="start" x="867.27" y="-41.43" font-family="Helvetica,sans-Serif" font-size="10.00" fill="#c62828">[true]</text>
<text xml:space="preserve" text-anchor="start" x="837.65" y="-26.18" font-family="Helvetica,sans-Serif" font-size="10.00" fill="#1565c0">amount&#39; := amount</text>
<text xml:space="preserve" text-anchor="start" x="867.65" y="-14.93" font-family="Helvetica,sans-Serif" font-size="10.00" fill="#1565c0">i&#39; := i</text>
<polygon fill="#1565c0" stroke="#1565c0" points="835.65,-52.93 835.65,-52.93 921.4,-52.93 921.4,-52.93 835.65,-52.93"/>
</g>
<!-- p_r1_q1&#45;&gt;t_Close_3 -->
<g id="edge6" class="edge">
<title>p_r1_q1&#45;&gt;t_Close_3</title>
<path fill="none" stroke="#424242" d="M249.92,-120.99C261.44,-99.14 280.81,-71.95 306.35,-59.05 474.32,25.8 706.67,0.35 815.99,-22.23"/>
<polygon fill="#424242" stroke="#424242" points="815.13,-25.63 825.64,-24.3 816.6,-18.78 815.13,-25.63"/>
</g>
<!-- t_Reject_5 -->
<g id="node8" class="node">
<title>t_Reject_5</title>
<path fill="#e3f2fd" stroke="#1565c0" stroke-width="1.2" d="M676.6,-142.93C676.6,-142.93 318.35,-142.93 318.35,-142.93 312.35,-142.93 306.35,-136.93 306.35,-130.93 306.35,-130.93 306.35,-89.18 306.35,-89.18 306.35,-83.18 312.35,-77.18 318.35,-77.18 318.35,-77.18 676.6,-77.18 676.6,-77.18 682.6,-77.18 688.6,-83.18 688.6,-89.18 688.6,-89.18 688.6,-130.93 688.6,-130.93 688.6,-136.93 682.6,-142.93 676.6,-142.93"/>
<text xml:space="preserve" text-anchor="start" x="480.97" y="-127.48" font-family="Helvetica,sans-Serif" font-weight="bold" font-size="11.00">Reject</text>
<text xml:space="preserve" text-anchor="start" x="316.35" y="-111.43" font-family="Helvetica,sans-Serif" font-size="10.00" fill="#c62828">[(and (&lt; (+ 3/2 (* &#45;1 i)) 0) &#160;&#160;&#160;&#160;(=&gt; (&gt;= (+ 5000 (* &#45;1 amount)) 0) (&gt;= (+ 3/2 (* &#45;1 i)) 0)))]</text>
<text xml:space="preserve" text-anchor="start" x="456.6" y="-96.18" font-family="Helvetica,sans-Serif" font-size="10.00" fill="#1565c0">amount&#39; := amount</text>
<text xml:space="preserve" text-anchor="start" x="486.6" y="-84.93" font-family="Helvetica,sans-Serif" font-size="10.00" fill="#1565c0">i&#39; := i</text>
<polygon fill="#1565c0" stroke="#1565c0" points="314.35,-122.93 314.35,-122.93 680.6,-122.93 680.6,-122.93 314.35,-122.93"/>
</g>
<!-- p_r1_q1&#45;&gt;t_Reject_5 -->
<g id="edge11" class="edge">
<title>p_r1_q1&#45;&gt;t_Reject_5</title>
<path fill="none" stroke="#424242" d="M269.28,-142.34C276.78,-140.69 285.34,-138.94 294.63,-137.13"/>
<polygon fill="#424242" stroke="#424242" points="295.21,-140.58 304.38,-135.26 293.9,-133.7 295.21,-140.58"/>
</g>
<!-- p_r3_q4 -->
<g id="node3" class="node">
<title>p_r3_q4</title>
<ellipse fill="#e8f5e9" stroke="#616161" cx="758.12" cy="-111.05" rx="33.52" ry="33.52"/>
<text xml:space="preserve" text-anchor="middle" x="758.12" y="-106.6" font-family="Helvetica,sans-Serif" font-size="11.00">p_r3_q4</text>
</g>
<!-- p_r3_q4&#45;&gt;t_Close_3 -->
<g id="edge7" class="edge">
<title>p_r3_q4&#45;&gt;t_Close_3</title>
<path fill="none" stroke="#424242" d="M787.48,-94.04C796.6,-88.58 807.06,-82.3 817.56,-76.01"/>
<polygon fill="#424242" stroke="#424242" points="819.1,-79.17 825.88,-71.02 815.5,-73.16 819.1,-79.17"/>
</g>
<!-- t_Approve_1&#45;&gt;p_r1_q1 -->
<g id="edge2" class="edge">
<title>t_Approve_1&#45;&gt;p_r1_q1</title>
<path fill="none" stroke="#424242" d="M367.64,-270.75C346.19,-264.82 324.91,-256.48 306.35,-245.05 285.88,-232.45 268.78,-211.51 256.78,-192.57"/>
<polygon fill="#424242" stroke="#424242" points="259.9,-190.98 251.75,-184.2 253.9,-194.58 259.9,-190.98"/>
</g>
<!-- t_Approve_1&#45;&gt;p_r3_q4 -->
<g id="edge3" class="edge">
<title>t_Approve_1&#45;&gt;p_r3_q4</title>
<path fill="none" stroke="#424242" d="M627.21,-265.25C649.14,-258.85 670.61,-249.54 688.6,-236.05 715.69,-215.74 733.4,-181.42 744.01,-153.88"/>
<polygon fill="#424242" stroke="#424242" points="747.21,-155.34 747.35,-144.74 740.63,-152.94 747.21,-155.34"/>
</g>
<!-- t_Check_2&#45;&gt;p_r1_q1 -->
<g id="edge5" class="edge">
<title>t_Check_2&#45;&gt;p_r1_q1</title>
<path fill="none" stroke="#424242" d="M440.79,-190.67C392.69,-184.46 324.22,-173.18 280.41,-164.13"/>
<polygon fill="#424242" stroke="#424242" points="281.27,-160.73 270.76,-162.07 279.81,-167.58 281.27,-160.73"/>
</g>
<!-- t_Close_3&#45;&gt;p_r1_q1 -->
<g id="edge8" class="edge">
<title>t_Close_3&#45;&gt;p_r1_q1</title>
<path fill="none" stroke="#424242" d="M827.12,-34.5C723.2,-19.59 480.26,10.8 306.35,-77.05 288.96,-85.83 274.43,-101.25 263.29,-115.9"/>
<polygon fill="#424242" stroke="#424242" points="260.72,-113.48 257.68,-123.63 266.39,-117.59 260.72,-113.48"/>
</g>
<!-- t_Register_4&#45;&gt;p_r1_q1 -->
<g id="edge10" class="edge">
<title>t_Register_4&#45;&gt;p_r1_q1</title>
<path fill="none" stroke="#424242" d="M167.7,-152.05C175.38,-152.05 183.72,-152.05 191.86,-152.05"/>
<polygon fill="#424242" stroke="#424242" points="191.61,-155.55 201.61,-152.05 191.61,-148.55 191.61,-155.55"/>
</g>
<!-- t_Reject_5&#45;&gt;p_r1_q1 -->
<g id="edge12" class="edge">
<title>t_Reject_5&#45;&gt;p_r1_q1</title>
<path fill="none" stroke="#424242" d="M330.39,-143.52C312.74,-146.14 296.08,-148.42 281.89,-150.12"/>
<polygon fill="#424242" stroke="#424242" points="281.63,-146.63 272.09,-151.23 282.42,-153.58 281.63,-146.63"/>
</g>
<!-- t_Reject_5&#45;&gt;p_r3_q4 -->
<g id="edge13" class="edge">
<title>t_Reject_5&#45;&gt;p_r3_q4</title>
<path fill="none" stroke="#424242" d="M689.17,-110.79C697.61,-110.82 705.6,-110.85 712.93,-110.88"/>
<polygon fill="#424242" stroke="#424242" points="712.72,-114.38 722.74,-110.92 712.75,-107.38 712.72,-114.38"/>
</g>
</g>
</svg>
