<?xml version="1.0" encoding="UTF-8" standalone="no"?>
<!DOCTYPE svg PUBLIC "-//W3C//DTD SVG 1.1//EN"
 "http://www.w3.org/Graphics/SVG/1.1/DTD/svg11.dtd">
<!-- Generated by graphviz version 14.1.2 (20260124.0452)
 -->
<!-- Title: dpn Pages: 1 -->
<svg width="1392pt" height="460pt"
 viewBox="0.00 0.00 1392.00 460.00" xmlns="http://www.w3.org/2000/svg" xmlns:xlink="http://www.w3.org/1999/xlink">
<g id="graph0" class="graph" transform="scale(2.08333 2.08333) rotate(0) translate(4 217)">
<title>dpn</title>
<polygon fill="white" stroke="none" points="-4,4 -4,-217 664.4,-217 664.4,4 -4,4"/>
<text xml:space="preserve" text-anchor="middle" x="330.2" y="-196.65" font-family="Helvetica,sans-Serif" font-size="13.00">TC2: XOR Split/Join — DPN</text>
<!-- p_r0_q0 -->
<g id="node1" class="node">
<title>p_r0_q0</title>
<ellipse fill="#e8f5e9" stroke="#2e7d32" stroke-width="2.5" cx="33.52" cy="-91.25" rx="33.52" ry="33.52"/>
<text xml:space="preserve" text-anchor="middle" x="33.52" y="-86.8" font-family="Helvetica,sans-Serif" font-size="11.00">p_r0_q0</text>
</g>
<!-- t_A_1 -->
<g id="node4" class="node">
<title>t_A_1</title>
<path fill="#e3f2fd" stroke="#1565c0" stroke-width="1.2" d="M145.05,-110.88C145.05,-110.88 115.05,-110.88 115.05,-110.88 109.05,-110.88 103.05,-104.88 103.05,-98.88 103.05,-98.88 103.05,-83.62 103.05,-83.62 103.05,-77.62 109.05,-71.62 115.05,-71.62 115.05,-71.62 145.05,-71.62 145.05,-71.62 151.05,-71.62 157.05,-77.62 157.05,-83.62 157.05,-83.62 157.05,-98.88 157.05,-98.88 157.05,-104.88 151.05,-110.88 145.05,-110.88"/>
<text xml:space="preserve" text-anchor="start" x="125.92" y="-95.42" font-family="Helvetica,sans-Serif" font-weight="bold" font-size="11.00">A</text>
<text xml:space="preserve" text-anchor="start" x="118.8" y="-79.38" font-family="Helvetica,sans-Serif" font-size="10.00" fill="#c62828">[true]</text>
<polygon fill="#1565c0" stroke="#1565c0" points="116.8,-90.88 116.8,-90.88 143.3,-90.88 143.3,-90.88 116.8,-90.88"/>
</g>
<!-- p_r0_q0&#45;&gt;t_A_1 -->
<g id="edge1" class="edge">
<title>p_r0_q0&#45;&gt;t_A_1</title>
<path fill="none" stroke="#424242" d="M68.12,-91.25C75.66,-91.25 83.71,-91.25 91.4,-91.25"/>
<polygon fill="#424242" stroke="#424242" points="91.18,-94.75 101.18,-91.25 91.18,-87.75 91.18,-94.75"/>
</g>
<!-- p_r1_q1 -->
<g id="node2" class="node">
<title>p_r1_q1</title>
<ellipse fill="#e8f5e9" stroke="#616161" cx="226.57" cy="-91.25" rx="33.52" ry="33.52"/>
<text xml:space="preserve" text-anchor="middle" x="226.57" y="-86.8" font-family="Helvetica,sans-Serif" font-size="11.00">p_r1_q1</text>
</g>
<!-- t_B_2 -->
<g id="node5" class="node">
<title>t_B_2</title>
<path fill="#e3f2fd" stroke="#1565c0" stroke-width="1.2" d="M421.1,-191.5C421.1,-191.5 311.1,-191.5 311.1,-191.5 305.1,-191.5 299.1,-185.5 299.1,-179.5 299.1,-179.5 299.1,-149 299.1,-149 299.1,-143 305.1,-137 311.1,-137 311.1,-137 421.1,-137 421.1,-137 427.1,-137 433.1,-143 433.1,-149 433.1,-149 433.1,-179.5 433.1,-179.5 433.1,-185.5 427.1,-191.5 421.1,-191.5"/>
<text xml:space="preserve" text-anchor="start" x="361.97" y="-176.05" font-family="Helvetica,sans-Serif" font-weight="bold" font-size="11.00">B</text>
<text xml:space="preserve" text-anchor="start" x="309.1" y="-160" font-family="Helvetica,sans-Serif" font-size="10.00" fill="#c62828">[(&lt; (+ 99/2 (* &#45;1 score)) 0)]</text>
<text xml:space="preserve" text-anchor="start" x="333.47" y="-144.75" font-family="Helvetica,sans-Serif" font-size="10.00" fill="#1565c0">score&#39; := score</text>
<polygon fill="#1565c0" stroke="#1565c0" points="307.1,-171.5 307.1,-171.5 425.1,-171.5 425.1,-171.5 307.1,-171.5"/>
</g>
<!-- p_r1_q1&#45;&gt;t_B_2 -->
<g id="edge3" class="edge">
<title>p_r1_q1&#45;&gt;t_B_2</title>
<path fill="none" stroke="#424242" d="M258.78,-102.05C275.31,-109.86 296.01,-120.59 314.74,-130.99"/>
<polygon fill="#424242" stroke="#424242" points="312.86,-133.95 323.29,-135.8 316.29,-127.85 312.86,-133.95"/>
</g>
<!-- t_C_3 -->
<g id="node6" class="node">
<title>t_C_3</title>
<path fill="#e3f2fd" stroke="#1565c0" stroke-width="1.2" d="M424.1,-118.5C424.1,-118.5 308.1,-118.5 308.1,-118.5 302.1,-118.5 296.1,-112.5 296.1,-106.5 296.1,-106.5 296.1,-76 296.1,-76 296.1,-70 302.1,-64 308.1,-64 308.1,-64 424.1,-64 424.1,-64 430.1,-64 436.1,-70 436.1,-76 436.1,-76 436.1,-106.5 436.1,-106.5 436.1,-112.5 430.1,-118.5 424.1,-118.5"/>
<text xml:space="preserve" text-anchor="start" x="361.97" y="-103.05" font-family="Helvetica,sans-Serif" font-weight="bold" font-size="11.00">C</text>
<text xml:space="preserve" text-anchor="start" x="306.1" y="-87" font-family="Helvetica,sans-Serif" font-size="10.00" fill="#c62828">[(&gt;= (+ 99/2 (* &#45;1 score)) 0)]</text>
<text xml:space="preserve" text-anchor="start" x="333.47" y="-71.75" font-family="Helvetica,sans-Serif" font-size="10.00" fill="#1565c0">score&#39; := score</text>
<polygon fill="#1565c0" stroke="#1565c0" points="304.1,-98.5 304.1,-98.5 428.1,-98.5 428.1,-98.5 304.1,-98.5"/>
</g>
<!-- p_r1_q1&#45;&gt;t_C_3 -->
<g id="edge6" class="edge">
<title>p_r1_q1&#45;&gt;t_C_3</title>
<path fill="none" stroke="#424242" d="M259.82,-85.43C267.32,-85.01 275.65,-84.73 284.24,-84.59"/>
<polygon fill="#424242" stroke="#424242" points="284.14,-88.09 294.11,-84.51 284.08,-81.1 284.14,-88.09"/>
</g>
<!-- t_D_4 -->
<g id="node7" class="node">
<title>t_D_4</title>
<path fill="#e3f2fd" stroke="#1565c0" stroke-width="1.2" d="M648.4,-54.5C648.4,-54.5 587.15,-54.5 587.15,-54.5 581.15,-54.5 575.15,-48.5 575.15,-42.5 575.15,-42.5 575.15,-12 575.15,-12 575.15,-6 581.15,0 587.15,0 587.15,0 648.4,0 648.4,0 654.4,0 660.4,-6 660.4,-12 660.4,-12 660.4,-42.5 660.4,-42.5 660.4,-48.5 654.4,-54.5 648.4,-54.5"/>
<text xml:space="preserve" text-anchor="start" x="613.65" y="-39.05" font-family="Helvetica,sans-Serif" font-weight="bold" font-size="11.00">D</text>
<text xml:space="preserve" text-anchor="start" x="606.52" y="-23" font-family="Helvetica,sans-Serif" font-size="10.00" fill="#c62828">[true]</text>
<text xml:space="preserve" text-anchor="start" x="585.15" y="-7.75" font-family="Helvetica,sans-Serif" font-size="10.00" fill="#1565c0">score&#39; := score</text>
<polygon fill="#1565c0" stroke="#1565c0" points="583.15,-34.5 583.15,-34.5 652.4,-34.5 652.4,-34.5 583.15,-34.5"/>
</g>
<!-- p_r1_q1&#45;&gt;t_D_4 -->
<g id="edge9" class="edge">
<title>p_r1_q1&#45;&gt;t_D_4</title>
<path fill="none" stroke="#424242" d="M251,-67.96C263.8,-59.4 280.24,-50.9 296.1,-46.25 387.41,-19.46 499.12,-15.92 563.7,-19.2"/>
<polygon fill="#424242" stroke="#424242" points="563.1,-22.67 573.29,-19.77 563.52,-15.69 563.1,-22.67"/>
</g>
<!-- p_r3_q2 -->
<g id="node3" class="node">
<title>p_r3_q2</title>
<ellipse fill="#e8f5e9" stroke="#616161" cx="505.62" cy="-98.25" rx="33.52" ry="33.52"/>
<text xml:space="preserve" text-anchor="middle" x="505.62" y="-93.8" font-family="Helvetica,sans-Serif" font-size="11.00">p_r3_q2</text>
</g>
<!-- p_r3_q2&#45;&gt;t_D_4 -->
<g id="edge10" class="edge">
<title>p_r3_q2&#45;&gt;t_D_4</title>
<path fill="none" stroke="#424242" d="M534.42,-80.33C543.79,-74.29 554.56,-67.35 565.17,-60.51"/>
<polygon fill="#424242" stroke="#424242" points="567.03,-63.47 573.54,-55.11 563.24,-57.59 567.03,-63.47"/>
</g>
<!-- t_A_1&#45;&gt;p_r1_q1 -->
<g id="edge2" class="edge">
<title>t_A_1&#45;&gt;p_r1_q1</title>
<path fill="none" stroke="#424242" d="M157.63,-91.25C165.05,-91.25 173.32,-91.25 181.47,-91.25"/>
<polygon fill="#424242" stroke="#424242" points="181.29,-94.75 191.29,-91.25 181.29,-87.75 181.29,-94.75"/>
</g>
<!-- t_B_2&#45;&gt;p_r1_q1 -->
<g id="edge4" class="edge">
<title>t_B_2&#45;&gt;p_r1_q1</title>
<path fill="none" stroke="#424242" d="M300.15,-136.51C287.68,-129.95 275.04,-123.01 263.88,-116.55"/>
<polygon fill="#424242" stroke="#424242" points="265.79,-113.61 255.39,-111.55 262.23,-119.64 265.79,-113.61"/>
</g>
<!-- t_B_2&#45;&gt;p_r3_q2 -->
<g id="edge5" class="edge">
<title>t_B_2&#45;&gt;p_r3_q2</title>
<path fill="none" stroke="#424242" d="M425.02,-136.45C438.44,-130.01 452.43,-123.3 464.86,-117.33"/>
<polygon fill="#424242" stroke="#424242" points="466.03,-120.65 473.53,-113.17 463,-114.34 466.03,-120.65"/>
</g>
<!-- t_C_3&#45;&gt;p_r1_q1 -->
<g id="edge7" class="edge">
<title>t_C_3&#45;&gt;p_r1_q1</title>
<path fill="none" stroke="#424242" d="M295.62,-98C287.31,-97.99 279.01,-97.85 271.21,-97.58"/>
<polygon fill="#424242" stroke="#424242" points="271.48,-94.09 261.33,-97.14 271.16,-101.08 271.48,-94.09"/>
</g>
<!-- t_C_3&#45;&gt;p_r3_q2 -->
<g id="edge8" class="edge">
<title>t_C_3&#45;&gt;p_r3_q2</title>
<path fill="none" stroke="#424242" d="M436.67,-94.79C444.71,-95.2 452.74,-95.61 460.32,-95.99"/>
<polygon fill="#424242" stroke="#424242" points="460.1,-99.49 470.27,-96.5 460.46,-92.5 460.1,-99.49"/>
</g>
<!-- t_D_4&#45;&gt;p_r1_q1 -->
<g id="edge11" class="edge">
<title>t_D_4&#45;&gt;p_r1_q1</title>
<path fill="none" stroke="#424242" d="M574.8,-31.55C512.61,-33.58 392.89,-35.85 296.1,-64.25 286.93,-66.94 277.57,-70.91 268.83,-75.05"/>
<polygon fill="#424242" stroke="#424242" points="267.32,-71.9 259.89,-79.45 270.41,-78.18 267.32,-71.9"/>
</g>
</g>
</svg>
