<?xml version="1.0" encoding="UTF-8" standalone="no"?>
<!DOCTYPE svg PUBLIC "-//W3C//DTD SVG 1.1//EN"
 "http://www.w3.org/Graphics/SVG/1.1/DTD/svg11.dtd">
<!-- Generated by graphviz version 14.1.2 (20260124.0452)
 -->
<!-- Title: efsm Pages: 1 -->
<svg width="1198pt" height="254pt"
 viewBox="0.00 0.00 1198.00 254.00" xmlns="http://www.w3.org/2000/svg" xmlns:xlink="http://www.w3.org/1999/xlink">
<g id="graph0" class="graph" transform="scale(2.08333 2.08333) rotate(0) translate(4 117.99)">
<title>efsm</title>
<polygon fill="white" stroke="none" points="-4,4 -4,-117.99 570.97,-117.99 570.97,4 -4,4"/>
<text xml:space="preserve" text-anchor="middle" x="283.49" y="-97.64" font-family="Helvetica,sans-Serif" font-size="13.00">TC4: Concurrency (AND Split/Join) — EFSM</text>
<!-- q0 -->
<g id="node1" class="node">
<title>q0</title>
<ellipse fill="#f3e5f5" stroke="#2e7d32" stroke-width="2.5" cx="55.72" cy="-44" rx="18" ry="18"/>
<text xml:space="preserve" text-anchor="middle" x="55.72" y="-39.55" font-family="Helvetica,sans-Serif" font-size="11.00">q0</text>
</g>
<!-- q1 -->
<g id="node2" class="node">
<title>q1</title>
<ellipse fill="#f3e5f5" stroke="#616161" cx="147.97" cy="-44" rx="18" ry="18"/>
<text xml:space="preserve" text-anchor="middle" x="147.97" y="-39.55" font-family="Helvetica,sans-Serif" font-size="11.00">q1</text>
</g>
<!-- q0&#45;&gt;q1 -->
<g id="edge2" class="edge">
<title>q0&#45;&gt;q1</title>
<path fill="none" stroke="#424242" d="M74.55,-44C86.99,-44 103.87,-44 118.2,-44"/>
<polygon fill="#424242" stroke="#424242" points="117.97,-47.5 127.97,-44 117.97,-40.5 117.97,-47.5"/>
<text xml:space="preserve" text-anchor="start" x="98.1" y="-54.5" font-family="Helvetica,sans-Serif" font-weight="bold" font-size="10.00">A</text>
<text xml:space="preserve" text-anchor="start" x="91.72" y="-45.45" font-family="Helvetica,sans-Serif" font-size="9.00" fill="#c62828">[true]</text>
</g>
<!-- q2 -->
<g id="node3" class="node">
<title>q2</title>
<ellipse fill="#f3e5f5" stroke="#616161" cx="285.97" cy="-72" rx="18" ry="18"/>
<text xml:space="preserve" text-anchor="middle" x="285.97" y="-67.55" font-family="Helvetica,sans-Serif" font-size="11.00">q2</text>
</g>
<!-- q1&#45;&gt;q2 -->
<g id="edge3" class="edge">
<title>q1&#45;&gt;q2</title>
<path fill="none" stroke="#424242" d="M165.92,-47.49C188.75,-52.19 229.66,-60.61 257.06,-66.25"/>
<polygon fill="#424242" stroke="#424242" points="256.25,-69.66 266.75,-68.25 257.66,-62.8 256.25,-69.66"/>
<text xml:space="preserve" text-anchor="start" x="213.22" y="-83.99" font-family="Helvetica,sans-Serif" font-weight="bold" font-size="10.00">B</text>
<text xml:space="preserve" text-anchor="start" x="206.85" y="-74.94" font-family="Helvetica,sans-Serif" font-size="9.00" fill="#c62828">[true]</text>
<text xml:space="preserve" text-anchor="start" x="183.97" y="-65.94" font-family="Helvetica,sans-Serif" font-size="9.00" fill="#1565c0">x&#39; := (+ 1 x)y&#39; := y</text>
</g>
<!-- q5 -->
<g id="node6" class="node">
<title>q5</title>
<ellipse fill="#f3e5f5" stroke="#616161" cx="285.97" cy="-18" rx="18" ry="18"/>
<text xml:space="preserve" text-anchor="middle" x="285.97" y="-13.55" font-family="Helvetica,sans-Serif" font-size="11.00">q5</text>
</g>
<!-- q1&#45;&gt;q5 -->
<g id="edge6" class="edge">
<title>q1&#45;&gt;q5</title>
<path fill="none" stroke="#424242" d="M162.36,-32.68C168.53,-28.16 176.2,-23.45 183.97,-21 207.49,-13.58 235.65,-13.41 256.25,-14.76"/>
<polygon fill="#424242" stroke="#424242" points="255.94,-18.24 266.19,-15.59 256.52,-11.27 255.94,-18.24"/>
<text xml:space="preserve" text-anchor="start" x="213.22" y="-40.5" font-family="Helvetica,sans-Serif" font-weight="bold" font-size="10.00">C</text>
<text xml:space="preserve" text-anchor="start" x="206.85" y="-31.45" font-family="Helvetica,sans-Serif" font-size="9.00" fill="#c62828">[true]</text>
<text xml:space="preserve" text-anchor="start" x="183.97" y="-22.45" font-family="Helvetica,sans-Serif" font-size="9.00" fill="#1565c0">x&#39; := xy&#39; := (+ 1 y)</text>
</g>
<!-- q3 -->
<g id="node4" class="node">
<title>q3</title>
<ellipse fill="#f3e5f5" stroke="#616161" cx="423.97" cy="-44" rx="18" ry="18"/>
<text xml:space="preserve" text-anchor="middle" x="423.97" y="-39.55" font-family="Helvetica,sans-Serif" font-size="11.00">q3</text>
</g>
<!-- q2&#45;&gt;q3 -->
<g id="edge4" class="edge">
<title>q2&#45;&gt;q3</title>
<path fill="none" stroke="#424242" d="M303.92,-68.51C326.75,-63.81 367.66,-55.39 395.06,-49.75"/>
<polygon fill="#424242" stroke="#424242" points="395.66,-53.2 404.75,-47.75 394.25,-46.34 395.66,-53.2"/>
<text xml:space="preserve" text-anchor="start" x="351.22" y="-83.99" font-family="Helvetica,sans-Serif" font-weight="bold" font-size="10.00">C</text>
<text xml:space="preserve" text-anchor="start" x="344.85" y="-74.94" font-family="Helvetica,sans-Serif" font-size="9.00" fill="#c62828">[true]</text>
<text xml:space="preserve" text-anchor="start" x="321.97" y="-65.94" font-family="Helvetica,sans-Serif" font-size="9.00" fill="#1565c0">x&#39; := xy&#39; := (+ 1 y)</text>
</g>
<!-- q4 -->
<g id="node5" class="node">
<title>q4</title>
<ellipse fill="#fff9c4" stroke="#616161" cx="544.97" cy="-44" rx="18" ry="18"/>
<ellipse fill="none" stroke="#616161" cx="544.97" cy="-44" rx="22" ry="22"/>
<text xml:space="preserve" text-anchor="middle" x="544.97" y="-39.55" font-family="Helvetica,sans-Serif" font-size="11.00">q4</text>
</g>
<!-- q3&#45;&gt;q4 -->
<g id="edge5" class="edge">
<title>q3&#45;&gt;q4</title>
<path fill="none" stroke="#424242" d="M442.27,-44C460.31,-44 488.99,-44 511.3,-44"/>
<polygon fill="#424242" stroke="#424242" points="511.11,-47.5 521.11,-44 511.11,-40.5 511.11,-47.5"/>
<text xml:space="preserve" text-anchor="start" x="478.72" y="-63.5" font-family="Helvetica,sans-Serif" font-weight="bold" font-size="10.00">D</text>
<text xml:space="preserve" text-anchor="start" x="472.35" y="-54.45" font-family="Helvetica,sans-Serif" font-size="9.00" fill="#c62828">[true]</text>
<text xml:space="preserve" text-anchor="start" x="459.97" y="-45.45" font-family="Helvetica,sans-Serif" font-size="9.00" fill="#1565c0">x&#39; := xy&#39; := y</text>
</g>
<!-- q5&#45;&gt;q3 -->
<g id="edge7" class="edge">
<title>q5&#45;&gt;q3</title>
<path fill="none" stroke="#424242" d="M304.24,-15.71C324.74,-13.63 359.7,-12.08 387.97,-21 392.1,-22.3 396.19,-24.24 400.06,-26.45"/>
<polygon fill="#424242" stroke="#424242" points="398.03,-29.31 408.31,-31.85 401.86,-23.45 398.03,-29.31"/>
<text xml:space="preserve" text-anchor="start" x="351.22" y="-40.5" font-family="Helvetica,sans-Serif" font-weight="bold" font-size="10.00">B</text>
<text xml:space="preserve" text-anchor="start" x="344.85" y="-31.45" font-family="Helvetica,sans-Serif" font-size="9.00" fill="#c62828">[true]</text>
<text xml:space="preserve" text-anchor="start" x="321.97" y="-22.45" font-family="Helvetica,sans-Serif" font-size="9.00" fill="#1565c0">x&#39; := (+ 1 x)y&#39; := y</text>
</g>
<!-- __start__ -->
<g id="node7" class="node">
<title>__start__</title>
</g>
<!-- __start__&#45;&gt;q0 -->
<g id="edge1" class="edge">
<title>__start__&#45;&gt;q0</title>
<path fill="none" stroke="#424242" d="M0.87,-44C2.38,-44 14.67,-44 27.12,-44"/>
<polygon fill="#424242" stroke="#424242" points="26.99,-46.8 34.99,-44 26.99,-41.2 26.99,-46.8"/>
</g>
</g>
</svg>
